<svg xmlns="http://www.w3.org/2000/svg" xmlns:xlink="http://www.w3.org/1999/xlink" width="80" zoomAndPan="magnify" viewBox="0 0 60 60" height="80" preserveAspectRatio="xMidYMid meet" version="1.2"><defs><clipPath id="a202194027"><path d="M 0 21.738281 L 10 21.738281 L 10 33 L 0 33 Z M 0 21.738281 "/></clipPath></defs><g id="988327fddf"><rect x="0" width="60" y="0" height="60" style="fill:#ffffff;fill-opacity:1;stroke:none;"/><rect x="0" width="60" y="0" height="60" style="fill:#ffffff;fill-opacity:1;stroke:none;"/><path style=" stroke:none;fill-rule:nonzero;fill:#000000;fill-opacity:1;" d="M 19.410156 34.292969 L 15.746094 30.640625 L 15.136719 31.25 L 15.136719 32.574219 L 13.578125 32.574219 L 13.578125 25.644531 L 15.136719 25.644531 L 15.136719 29.046875 L 18.542969 25.644531 L 19.644531 26.746094 L 16.84375 29.539062 L 20.511719 33.191406 Z M 19.410156 34.292969 "/><path style=" stroke:none;fill-rule:nonzero;fill:#000000;fill-opacity:1;" d="M 25.445312 29.109375 C 25.445312 28.585938 25.257812 28.136719 24.882812 27.765625 C 24.511719 27.390625 24.0625 27.203125 23.539062 27.203125 C 23.011719 27.203125 22.558594 27.390625 22.1875 27.761719 C 21.820312 28.128906 21.636719 28.582031 21.636719 29.109375 C 21.636719 29.640625 21.820312 30.09375 22.1875 30.460938 C 22.558594 30.828125 23.007812 31.015625 23.539062 31.015625 C 24.070312 31.015625 24.519531 30.832031 24.886719 30.460938 C 25.257812 30.089844 25.445312 29.636719 25.445312 29.109375 Z M 27.003906 29.109375 C 27.003906 30.070312 26.664062 30.886719 25.988281 31.5625 C 25.308594 32.234375 24.492188 32.574219 23.539062 32.574219 C 22.578125 32.574219 21.757812 32.234375 21.085938 31.5625 C 20.414062 30.890625 20.074219 30.070312 20.074219 29.109375 C 20.074219 28.15625 20.414062 27.339844 21.085938 26.660156 C 21.761719 25.984375 22.578125 25.644531 23.539062 25.644531 C 24.484375 25.644531 25.300781 25.988281 25.980469 26.667969 C 26.664062 27.347656 27.003906 28.164062 27.003906 29.109375 Z M 27.003906 29.109375 "/><path style=" stroke:none;fill-rule:nonzero;fill:#000000;fill-opacity:1;" d="M 31.9375 32.574219 L 28.992188 28.492188 L 28.992188 32.574219 L 27.433594 32.574219 L 27.433594 25.644531 L 28.992188 25.644531 L 31.9375 29.722656 L 31.9375 25.644531 L 33.5 25.644531 L 33.5 32.574219 Z M 31.9375 32.574219 "/><path style=" stroke:none;fill-rule:nonzero;fill:#000000;fill-opacity:1;" d="M 35.917969 27.203125 L 35.917969 28.328125 L 38.691406 28.328125 L 38.691406 29.886719 L 35.917969 29.886719 L 35.917969 32.574219 L 34.359375 32.574219 L 34.359375 25.644531 L 39.554688 25.644531 L 39.554688 27.203125 Z M 35.917969 27.203125 "/><path style=" stroke:none;fill-rule:nonzero;fill:#000000;fill-opacity:1;" d="M 44.582031 32.574219 L 44.582031 29.886719 L 41.640625 29.886719 L 41.640625 32.574219 L 40.082031 32.574219 L 40.082031 25.644531 L 41.640625 25.644531 L 41.640625 28.328125 L 44.582031 28.328125 L 44.582031 25.644531 L 46.144531 25.644531 L 46.144531 32.574219 Z M 44.582031 32.574219 "/><path style=" stroke:none;fill-rule:nonzero;fill:#000000;fill-opacity:1;" d="M 52.851562 29.539062 C 52.851562 30.382812 52.558594 31.101562 51.96875 31.691406 C 51.382812 32.277344 50.664062 32.574219 49.824219 32.574219 C 48.980469 32.574219 48.261719 32.277344 47.671875 31.691406 C 47.085938 31.101562 46.792969 30.382812 46.792969 29.539062 L 46.792969 25.644531 L 48.347656 25.644531 L 48.347656 29.539062 C 48.347656 29.949219 48.492188 30.296875 48.78125 30.582031 C 49.066406 30.871094 49.414062 31.015625 49.824219 31.015625 C 50.230469 31.015625 50.578125 30.871094 50.863281 30.582031 C 51.148438 30.296875 51.292969 29.949219 51.292969 29.539062 L 51.292969 25.644531 L 52.851562 25.644531 Z M 52.851562 29.539062 "/><path style=" stroke:none;fill-rule:nonzero;fill:#000000;fill-opacity:1;" d="M 57.996094 30.453125 C 57.996094 30.296875 57.941406 30.164062 57.828125 30.054688 C 57.71875 29.941406 57.585938 29.886719 57.433594 29.886719 L 55.0625 29.886719 L 55.0625 31.015625 L 57.433594 31.015625 C 57.589844 31.015625 57.722656 30.960938 57.832031 30.847656 C 57.941406 30.738281 57.996094 30.605469 57.996094 30.453125 Z M 57.824219 27.765625 C 57.824219 27.621094 57.769531 27.488281 57.664062 27.371094 C 57.558594 27.261719 57.429688 27.203125 57.273438 27.203125 L 55.0625 27.203125 L 55.0625 28.328125 L 57.261719 28.328125 C 57.417969 28.328125 57.550781 28.273438 57.660156 28.164062 C 57.769531 28.054688 57.824219 27.921875 57.824219 27.765625 Z M 59.570312 30.640625 C 59.570312 31.1875 59.347656 31.648438 58.90625 32.027344 C 58.484375 32.390625 57.996094 32.574219 57.445312 32.574219 L 53.503906 32.574219 L 53.503906 25.644531 L 57.261719 25.644531 C 57.804688 25.644531 58.292969 25.824219 58.71875 26.179688 C 59.171875 26.550781 59.398438 27 59.398438 27.535156 C 59.398438 28.148438 59.144531 28.636719 58.640625 29.003906 C 59.257812 29.378906 59.570312 29.925781 59.570312 30.640625 Z M 59.570312 30.640625 "/><g clip-rule="nonzero" clip-path="url(#a202194027)"><path style=" stroke:none;fill-rule:nonzero;fill:#000000;fill-opacity:1;" d="M 1.113281 32.527344 C -0.363281 31.054688 -0.363281 28.664062 1.113281 27.191406 L 6.566406 21.738281 L 7.335938 22.507812 C 6.945312 22.898438 6.945312 23.539062 7.335938 23.929688 C 7.730469 24.324219 8.367188 24.324219 8.761719 23.929688 L 9.53125 24.699219 L 4.683594 29.550781 L 1.933594 27.417969 L 4.371094 29.859375 L 1.40625 32.824219 Z M 1.113281 32.527344 "/></g><path style=" stroke:none;fill-rule:nonzero;fill:#000000;fill-opacity:1;" d="M 4.371094 35.789062 L 1.113281 32.527344 C -0.359375 31.054688 -0.359375 28.664062 1.113281 27.191406 L 1.410156 26.894531 L 7.34375 32.828125 C 7.328125 32.835938 7.316406 32.84375 7.308594 32.855469 L 7.160156 33 C 7.113281 33.050781 7.113281 33.128906 7.160156 33.179688 C 7.210938 33.226562 7.289062 33.226562 7.339844 33.179688 L 7.484375 33.03125 C 7.496094 33.019531 7.503906 33.007812 7.511719 32.996094 L 9.53125 35.015625 L 8.761719 35.789062 C 8.367188 35.394531 7.730469 35.394531 7.335938 35.789062 C 6.945312 36.179688 6.945312 36.820312 7.335938 37.210938 L 6.566406 37.980469 L 4.550781 35.964844 L 4.695312 35.820312 C 4.746094 35.769531 4.746094 35.691406 4.695312 35.640625 C 4.648438 35.59375 4.566406 35.59375 4.519531 35.640625 Z M 4.8125 35.347656 C 4.765625 35.398438 4.765625 35.476562 4.8125 35.527344 C 4.863281 35.574219 4.941406 35.574219 4.992188 35.527344 L 5.285156 35.230469 C 5.332031 35.183594 5.332031 35.105469 5.285156 35.054688 C 5.234375 35.003906 5.15625 35.003906 5.105469 35.054688 Z M 5.398438 34.761719 C 5.351562 34.8125 5.351562 34.890625 5.398438 34.9375 C 5.449219 34.988281 5.527344 34.988281 5.578125 34.9375 L 5.871094 34.644531 C 5.917969 34.597656 5.917969 34.515625 5.871094 34.46875 C 5.820312 34.417969 5.742188 34.417969 5.691406 34.46875 Z M 5.988281 34.175781 C 5.9375 34.222656 5.9375 34.304688 5.988281 34.351562 C 6.035156 34.402344 6.117188 34.402344 6.164062 34.351562 L 6.457031 34.058594 C 6.507812 34.007812 6.507812 33.929688 6.457031 33.882812 C 6.410156 33.832031 6.328125 33.832031 6.28125 33.882812 Z M 6.574219 33.585938 C 6.523438 33.636719 6.523438 33.714844 6.574219 33.765625 C 6.621094 33.8125 6.703125 33.8125 6.75 33.765625 L 7.042969 33.472656 C 7.09375 33.421875 7.09375 33.34375 7.042969 33.292969 C 6.996094 33.246094 6.914062 33.246094 6.867188 33.292969 Z M 6.574219 33.585938 "/></g></svg>