<svg width="1095" height="172" viewBox="0 0 1095 172" fill="none" xmlns="http://www.w3.org/2000/svg">
<path d="M136.515 74.3125V118.25C134.598 119.917 132.036 121.312 128.827 122.438C125.619 123.562 121.723 124.125 117.14 124.125C112.557 124.125 108.661 123.104 105.452 121.062C101.827 118.854 100.015 115.729 100.015 111.688V71.4375H85.4525C82.4525 67.1458 80.9525 62.4583 80.9525 57.375C80.9525 53.9167 81.4942 50.9167 82.5775 48.375C83.7025 45.7917 85.0775 43.7917 86.7025 42.375H151.327C152.536 44.25 153.536 46.5208 154.327 49.1875C155.119 51.8542 155.515 54.5 155.515 57.125C155.515 62.0417 154.432 65.6667 152.265 68C150.098 70.2917 147.182 71.4375 143.515 71.4375H125.202C125.077 71.7292 125.015 72.0417 125.015 72.375C125.015 73.125 125.452 73.625 126.327 73.875C127.244 74.1667 129.202 74.3125 132.202 74.3125H136.515ZM245.847 56.75V118.875C241.181 122.375 235.202 124.125 227.91 124.125C222.285 124.125 217.827 122.979 214.535 120.688C211.077 118.354 209.347 114.979 209.347 110.562V98.1875H213.785C215.493 98.1875 216.556 97.9792 216.972 97.5625C217.431 97.1042 217.66 96.375 217.66 95.375H198.035C198.035 96.375 198.222 97.1042 198.597 97.5625C198.972 97.9792 199.868 98.1875 201.285 98.1875H206.035V118.875C202.827 120.958 199.785 122.354 196.91 123.062C194.035 123.771 191.097 124.125 188.097 124.125C182.472 124.125 178.014 122.979 174.722 120.688C171.264 118.354 169.535 114.979 169.535 110.562V48.375C171.702 46.0833 174.368 44.3333 177.535 43.125C180.743 41.875 184.077 41.25 187.535 41.25C192.577 41.25 196.847 42.5 200.347 45C204.139 47.8333 206.035 51.75 206.035 56.75V67.875H213.972C213.972 66.7917 213.764 66.0625 213.347 65.6875C212.972 65.2708 212.347 65.0625 211.472 65.0625H209.347V48.375C211.514 46.0833 214.181 44.3333 217.347 43.125C220.556 41.875 223.889 41.25 227.347 41.25C232.389 41.25 236.66 42.5 240.16 45C243.952 47.8333 245.847 51.75 245.847 56.75ZM290.18 42.375H326.242C327.451 44.375 328.347 46.5625 328.93 48.9375C329.513 51.2708 329.805 53.375 329.805 55.25C329.805 59.4583 328.972 62.625 327.305 64.75C325.68 66.875 323.388 67.9375 320.43 67.9375H295.242C293.701 67.9375 292.93 68.5417 292.93 69.75V70.25C292.93 70.5 292.972 70.6667 293.055 70.75H322.93C323.68 72.0417 324.326 73.6667 324.867 75.625C325.367 77.75 325.617 79.6458 325.617 81.3125C325.617 86.2708 324.701 90.1458 322.867 92.9375H309.305C302.972 92.9375 298.68 93.1875 296.43 93.6875C294.18 94.1458 292.784 94.5417 292.242 94.875C291.701 95.25 291.43 95.7292 291.43 96.3125C291.43 96.8958 291.722 97.3542 292.305 97.6875C294.472 96.9792 296.742 96.4792 299.117 96.1875C302.242 95.8958 305.638 95.75 309.305 95.75H326.867C329.409 99.3333 330.68 103.646 330.68 108.688C330.68 111.521 330.326 114.229 329.617 116.812C328.909 119.396 327.847 121.479 326.43 123.062H279.617C274.451 123.062 270.305 121.812 267.18 119.312C263.763 116.646 262.055 112.729 262.055 107.562V48.125C262.055 46.125 264.347 44.6667 268.93 43.75C273.513 42.8333 280.597 42.375 290.18 42.375ZM423.408 81.9375C423.741 82.2708 424.262 82.4375 424.97 82.4375C425.678 82.4375 426.283 82.2917 426.783 82C425.699 75.6667 424.97 71.9167 424.595 70.75C424.137 69.5417 423.449 68.9375 422.533 68.9375C422.116 68.9375 421.616 69.0625 421.033 69.3125L423.408 81.9375ZM411.033 100.688C410.616 101.271 410.408 101.812 410.408 102.312C410.408 103.521 411.533 104.542 413.783 105.375C416.074 106.167 418.845 106.667 422.095 106.875C422.637 112.875 423.22 116.292 423.845 117.125C423.053 118.667 420.866 120.229 417.283 121.812C413.699 123.354 409.658 124.125 405.158 124.125C399.199 124.125 394.095 122.854 389.845 120.312C385.595 117.729 383.47 114.417 383.47 110.375C383.47 109.292 383.574 108.333 383.783 107.5L397.095 48C400.428 45.875 404.408 44.2083 409.033 43C413.658 41.7917 418.47 41.1875 423.47 41.1875C430.637 41.1875 436.762 42.3958 441.845 44.8125C447.637 47.5625 451.158 51.5417 452.408 56.75L466.658 115.688C462.324 121.312 455.262 124.125 445.47 124.125C440.72 124.125 436.699 123.271 433.408 121.562C430.116 119.854 428.199 117.417 427.658 114.25L426.283 106.625C428.783 106.583 431.199 106.104 433.533 105.188C435.866 104.271 437.033 103.312 437.033 102.312C437.033 101.646 436.762 101.104 436.22 100.688C434.637 101.812 432.699 102.667 430.408 103.25C428.116 103.833 425.991 104.125 424.033 104.125C418.408 104.125 414.074 102.979 411.033 100.688ZM515.052 81.0625C515.219 81.1875 515.698 81.25 516.49 81.25C517.282 81.25 517.886 80.9375 518.302 80.3125C518.719 79.6875 518.927 78.6667 518.927 77.25V72.5C518.927 71 518.74 69.9375 518.365 69.3125C518.032 68.6458 517.448 68.3125 516.615 68.3125C515.823 68.3125 515.282 68.3958 514.99 68.5625C515.032 68.7708 515.052 69.125 515.052 69.625V81.0625ZM516.615 109.312V118.875C514.782 120.417 512.198 121.688 508.865 122.688C505.532 123.646 502.052 124.125 498.427 124.125C493.261 124.125 489.032 123.125 485.74 121.125C481.99 118.833 480.115 115.521 480.115 111.188V51.8125C480.115 50.4792 481.011 49.1458 482.802 47.8125C484.636 46.4792 487.157 45.2708 490.365 44.1875C497.24 41.8542 505.094 40.6875 513.927 40.6875C526.136 40.6875 535.865 43.7292 543.115 49.8125C550.365 55.8958 553.99 64.0833 553.99 74.375C553.99 84.625 550.719 92.6042 544.177 98.3125C537.886 103.729 529.157 106.438 517.99 106.438C515.448 106.438 512.719 106.146 509.802 105.562C506.927 104.938 504.99 104.396 503.99 103.938C503.657 104.271 503.49 104.729 503.49 105.312C503.49 107.438 507.865 108.771 516.615 109.312ZM604.76 53.6875V118.25C602.843 119.917 600.281 121.312 597.073 122.438C593.864 123.562 589.968 124.125 585.385 124.125C580.802 124.125 576.906 123.104 573.698 121.062C570.073 118.854 568.26 115.729 568.26 111.688V47.125C570.177 45.4583 572.739 44.0625 575.948 42.9375C579.156 41.8125 583.031 41.25 587.573 41.25C592.114 41.25 596.052 42.25 599.385 44.25C602.968 46.5417 604.76 49.6875 604.76 53.6875ZM702.3 98.125C702.717 98.125 703.092 98.0208 703.425 97.8125V92.125C706.258 90.2083 710.217 88.6458 715.3 87.4375C720.425 86.2292 725.404 85.625 730.238 85.625C732.446 87.875 734.279 91.25 735.738 95.75C737.238 100.208 738.029 104.25 738.113 107.875C737.279 109.542 735.863 111.333 733.863 113.25C731.904 115.167 729.529 116.938 726.738 118.562C719.821 122.646 711.883 124.688 702.925 124.688C690.092 124.688 679.988 120.958 672.613 113.5C664.988 105.958 661.175 95.5208 661.175 82.1875C661.175 68.8125 665.342 58.3125 673.675 50.6875C677.342 47.2708 681.613 44.7083 686.488 43C691.363 41.25 696.488 40.375 701.863 40.375C712.363 40.375 720.967 42.9167 727.675 48C734.383 53.0833 737.738 59.3542 737.738 66.8125C737.738 72.4375 736.008 76.6042 732.55 79.3125C729.092 81.9792 724.404 83.3125 718.488 83.3125C715.238 83.3125 711.967 82.5208 708.675 80.9375C705.383 79.3125 703.425 77.7917 702.8 76.375C702.8 72.9583 702.863 70.2708 702.988 68.3125C702.904 68.2708 702.758 68.25 702.55 68.25H702.113C701.488 68.25 700.988 68.4375 700.613 68.8125C700.279 69.1458 699.967 69.875 699.675 71C699.425 72.125 699.3 75.1875 699.3 80.1875C699.3 92.1458 700.3 98.125 702.3 98.125ZM794.257 79.875C794.257 75.7083 794.07 72.8542 793.695 71.3125C793.32 69.7292 792.632 68.9375 791.632 68.9375C791.007 68.9375 790.445 69.1458 789.945 69.5625C790.028 70.3125 790.153 71.3125 790.32 72.5625C790.487 73.8125 790.57 76.4792 790.57 80.5625V84.625C790.57 87.4583 790.507 89.5208 790.382 90.8125C790.257 92.1042 790.153 93.2083 790.07 94.125C790.028 94.625 789.987 95.125 789.945 95.625C790.445 96.0417 791.007 96.25 791.632 96.25C792.632 96.25 793.32 95.4792 793.695 93.9375C794.07 92.3542 794.257 89.4792 794.257 85.3125V79.875ZM791.757 125C784.341 125 777.528 123.479 771.32 120.438C765.153 117.354 760.174 112.667 756.382 106.375C752.591 100.042 750.695 92.1458 750.695 82.6875C750.695 68.9792 754.82 58.2708 763.07 50.5625C770.403 43.7708 779.841 40.375 791.382 40.375C803.924 40.375 813.841 44.2708 821.132 52.0625C828.466 59.8125 832.132 70.0208 832.132 82.6875C832.132 96.7708 828.216 107.521 820.382 114.938C813.257 121.646 803.716 125 791.757 125ZM847.09 111.438V48.8125C847.09 46.6458 848.819 44.8542 852.277 43.4375C855.777 41.9792 859.882 41.25 864.59 41.25C867.257 41.25 869.757 41.5833 872.09 42.25C874.465 42.875 876.277 43.6875 877.527 44.6875C879.236 46.8542 880.798 49.0625 882.215 51.3125C883.632 53.5625 886.819 58.8125 891.777 67.0625C892.236 67.0625 892.652 66.9167 893.027 66.625C893.402 66.3333 893.59 65.8958 893.59 65.3125C893.59 64.6875 893.069 63.5 892.027 61.75L885.277 50.125V46.6875C887.402 44.9375 889.986 43.5833 893.027 42.625C896.069 41.6667 899.215 41.1875 902.465 41.1875C907.757 41.1875 912.027 42.1458 915.277 44.0625C919.069 46.3542 920.965 49.9375 920.965 54.8125V114C920.965 117.583 919.257 120.188 915.84 121.812C912.923 123.271 909.027 124 904.152 124C901.444 124 898.798 123.708 896.215 123.125C893.673 122.542 891.673 121.792 890.215 120.875C887.257 117.083 884.319 112.833 881.402 108.125L875.027 97.5C873.819 97.6667 873.215 98.3125 873.215 99.4375C873.215 100.146 873.819 101.5 875.027 103.5L882.84 116.125V119.438C878.007 122.562 872.548 124.125 866.465 124.125C860.423 124.125 855.673 123.021 852.215 120.812C848.798 118.604 847.09 115.479 847.09 111.438ZM973.547 102.438V118.25C971.631 119.917 969.068 121.312 965.86 122.438C962.693 123.562 958.818 124.125 954.235 124.125C949.693 124.125 945.777 123.104 942.485 121.062C938.86 118.854 937.047 115.708 937.047 111.625V48.125C937.047 44.2917 946.443 42.375 965.235 42.375H1001.92C1003.13 44.5833 1004.03 47.0625 1004.61 49.8125C1005.19 52.5208 1005.48 54.9583 1005.48 57.125C1005.48 66.6667 1001.3 71.4375 992.922 71.4375H971.297C969.714 71.4375 968.922 72.1042 968.922 73.4375V73.875C968.922 74.125 968.964 74.2917 969.047 74.375H996.672C998.797 78 999.86 82.0833 999.86 86.625C999.86 92.2917 998.589 96.7083 996.047 99.875H965.422C965.089 100.208 964.922 100.583 964.922 101C964.922 101.667 965.422 102.062 966.422 102.188C967.464 102.312 968.631 102.375 969.922 102.375C971.214 102.375 972.422 102.396 973.547 102.438Z" fill="#000001"/>
<path d="M142.015 68.3125V112.25C140.098 113.917 137.536 115.312 134.327 116.438C131.119 117.562 127.223 118.125 122.64 118.125C118.057 118.125 114.161 117.104 110.952 115.062C107.327 112.854 105.515 109.729 105.515 105.688V65.4375H90.9525C87.9525 61.1458 86.4525 56.4583 86.4525 51.375C86.4525 47.9167 86.9942 44.9167 88.0775 42.375C89.2025 39.7917 90.5775 37.7917 92.2025 36.375H156.827C158.036 38.25 159.036 40.5208 159.827 43.1875C160.619 45.8542 161.015 48.5 161.015 51.125C161.015 56.0417 159.932 59.6667 157.765 62C155.598 64.2917 152.682 65.4375 149.015 65.4375H130.702C130.577 65.7292 130.515 66.0417 130.515 66.375C130.515 67.125 130.952 67.625 131.827 67.875C132.744 68.1667 134.702 68.3125 137.702 68.3125H142.015ZM251.347 50.75V112.875C246.681 116.375 240.702 118.125 233.41 118.125C227.785 118.125 223.327 116.979 220.035 114.688C216.577 112.354 214.847 108.979 214.847 104.562V92.1875H219.285C220.993 92.1875 222.056 91.9792 222.472 91.5625C222.931 91.1042 223.16 90.375 223.16 89.375H203.535C203.535 90.375 203.722 91.1042 204.097 91.5625C204.472 91.9792 205.368 92.1875 206.785 92.1875H211.535V112.875C208.327 114.958 205.285 116.354 202.41 117.062C199.535 117.771 196.597 118.125 193.597 118.125C187.972 118.125 183.514 116.979 180.222 114.688C176.764 112.354 175.035 108.979 175.035 104.562V42.375C177.202 40.0833 179.868 38.3333 183.035 37.125C186.243 35.875 189.577 35.25 193.035 35.25C198.077 35.25 202.347 36.5 205.847 39C209.639 41.8333 211.535 45.75 211.535 50.75V61.875H219.472C219.472 60.7917 219.264 60.0625 218.847 59.6875C218.472 59.2708 217.847 59.0625 216.972 59.0625H214.847V42.375C217.014 40.0833 219.681 38.3333 222.847 37.125C226.056 35.875 229.389 35.25 232.847 35.25C237.889 35.25 242.16 36.5 245.66 39C249.452 41.8333 251.347 45.75 251.347 50.75ZM295.68 36.375H331.742C332.951 38.375 333.847 40.5625 334.43 42.9375C335.013 45.2708 335.305 47.375 335.305 49.25C335.305 53.4583 334.472 56.625 332.805 58.75C331.18 60.875 328.888 61.9375 325.93 61.9375H300.742C299.201 61.9375 298.43 62.5417 298.43 63.75V64.25C298.43 64.5 298.472 64.6667 298.555 64.75H328.43C329.18 66.0417 329.826 67.6667 330.367 69.625C330.867 71.75 331.117 73.6458 331.117 75.3125C331.117 80.2708 330.201 84.1458 328.367 86.9375H314.805C308.472 86.9375 304.18 87.1875 301.93 87.6875C299.68 88.1458 298.284 88.5417 297.742 88.875C297.201 89.25 296.93 89.7292 296.93 90.3125C296.93 90.8958 297.222 91.3542 297.805 91.6875C299.972 90.9792 302.242 90.4792 304.617 90.1875C307.742 89.8958 311.138 89.75 314.805 89.75H332.367C334.909 93.3333 336.18 97.6458 336.18 102.688C336.18 105.521 335.826 108.229 335.117 110.812C334.409 113.396 333.347 115.479 331.93 117.062H285.117C279.951 117.062 275.805 115.812 272.68 113.312C269.263 110.646 267.555 106.729 267.555 101.562V42.125C267.555 40.125 269.847 38.6667 274.43 37.75C279.013 36.8333 286.097 36.375 295.68 36.375ZM428.908 75.9375C429.241 76.2708 429.762 76.4375 430.47 76.4375C431.178 76.4375 431.783 76.2917 432.283 76C431.199 69.6667 430.47 65.9167 430.095 64.75C429.637 63.5417 428.949 62.9375 428.033 62.9375C427.616 62.9375 427.116 63.0625 426.533 63.3125L428.908 75.9375ZM416.533 94.6875C416.116 95.2708 415.908 95.8125 415.908 96.3125C415.908 97.5208 417.033 98.5417 419.283 99.375C421.574 100.167 424.345 100.667 427.595 100.875C428.137 106.875 428.72 110.292 429.345 111.125C428.553 112.667 426.366 114.229 422.783 115.812C419.199 117.354 415.158 118.125 410.658 118.125C404.699 118.125 399.595 116.854 395.345 114.312C391.095 111.729 388.97 108.417 388.97 104.375C388.97 103.292 389.074 102.333 389.283 101.5L402.595 42C405.928 39.875 409.908 38.2083 414.533 37C419.158 35.7917 423.97 35.1875 428.97 35.1875C436.137 35.1875 442.262 36.3958 447.345 38.8125C453.137 41.5625 456.658 45.5417 457.908 50.75L472.158 109.688C467.824 115.312 460.762 118.125 450.97 118.125C446.22 118.125 442.199 117.271 438.908 115.562C435.616 113.854 433.699 111.417 433.158 108.25L431.783 100.625C434.283 100.583 436.699 100.104 439.033 99.1875C441.366 98.2708 442.533 97.3125 442.533 96.3125C442.533 95.6458 442.262 95.1042 441.72 94.6875C440.137 95.8125 438.199 96.6667 435.908 97.25C433.616 97.8333 431.491 98.125 429.533 98.125C423.908 98.125 419.574 96.9792 416.533 94.6875ZM520.552 75.0625C520.719 75.1875 521.198 75.25 521.99 75.25C522.782 75.25 523.386 74.9375 523.802 74.3125C524.219 73.6875 524.427 72.6667 524.427 71.25V66.5C524.427 65 524.24 63.9375 523.865 63.3125C523.532 62.6458 522.948 62.3125 522.115 62.3125C521.323 62.3125 520.782 62.3958 520.49 62.5625C520.532 62.7708 520.552 63.125 520.552 63.625V75.0625ZM522.115 103.312V112.875C520.282 114.417 517.698 115.688 514.365 116.688C511.032 117.646 507.552 118.125 503.927 118.125C498.761 118.125 494.532 117.125 491.24 115.125C487.49 112.833 485.615 109.521 485.615 105.188V45.8125C485.615 44.4792 486.511 43.1458 488.302 41.8125C490.136 40.4792 492.657 39.2708 495.865 38.1875C502.74 35.8542 510.594 34.6875 519.427 34.6875C531.636 34.6875 541.365 37.7292 548.615 43.8125C555.865 49.8958 559.49 58.0833 559.49 68.375C559.49 78.625 556.219 86.6042 549.677 92.3125C543.386 97.7292 534.657 100.438 523.49 100.438C520.948 100.438 518.219 100.146 515.302 99.5625C512.427 98.9375 510.49 98.3958 509.49 97.9375C509.157 98.2708 508.99 98.7292 508.99 99.3125C508.99 101.438 513.365 102.771 522.115 103.312ZM610.26 47.6875V112.25C608.343 113.917 605.781 115.312 602.573 116.438C599.364 117.562 595.468 118.125 590.885 118.125C586.302 118.125 582.406 117.104 579.198 115.062C575.573 112.854 573.76 109.729 573.76 105.688V41.125C575.677 39.4583 578.239 38.0625 581.448 36.9375C584.656 35.8125 588.531 35.25 593.073 35.25C597.614 35.25 601.552 36.25 604.885 38.25C608.468 40.5417 610.26 43.6875 610.26 47.6875ZM707.8 92.125C708.217 92.125 708.592 92.0208 708.925 91.8125V86.125C711.758 84.2083 715.717 82.6458 720.8 81.4375C725.925 80.2292 730.904 79.625 735.738 79.625C737.946 81.875 739.779 85.25 741.238 89.75C742.738 94.2083 743.529 98.25 743.613 101.875C742.779 103.542 741.363 105.333 739.363 107.25C737.404 109.167 735.029 110.938 732.238 112.562C725.321 116.646 717.383 118.688 708.425 118.688C695.592 118.688 685.488 114.958 678.113 107.5C670.488 99.9583 666.675 89.5208 666.675 76.1875C666.675 62.8125 670.842 52.3125 679.175 44.6875C682.842 41.2708 687.113 38.7083 691.988 37C696.863 35.25 701.988 34.375 707.363 34.375C717.863 34.375 726.467 36.9167 733.175 42C739.883 47.0833 743.238 53.3542 743.238 60.8125C743.238 66.4375 741.508 70.6042 738.05 73.3125C734.592 75.9792 729.904 77.3125 723.988 77.3125C720.738 77.3125 717.467 76.5208 714.175 74.9375C710.883 73.3125 708.925 71.7917 708.3 70.375C708.3 66.9583 708.363 64.2708 708.488 62.3125C708.404 62.2708 708.258 62.25 708.05 62.25H707.613C706.988 62.25 706.488 62.4375 706.113 62.8125C705.779 63.1458 705.467 63.875 705.175 65C704.925 66.125 704.8 69.1875 704.8 74.1875C704.8 86.1458 705.8 92.125 707.8 92.125ZM799.757 73.875C799.757 69.7083 799.57 66.8542 799.195 65.3125C798.82 63.7292 798.132 62.9375 797.132 62.9375C796.507 62.9375 795.945 63.1458 795.445 63.5625C795.528 64.3125 795.653 65.3125 795.82 66.5625C795.987 67.8125 796.07 70.4792 796.07 74.5625V78.625C796.07 81.4583 796.007 83.5208 795.882 84.8125C795.757 86.1042 795.653 87.2083 795.57 88.125C795.528 88.625 795.487 89.125 795.445 89.625C795.945 90.0417 796.507 90.25 797.132 90.25C798.132 90.25 798.82 89.4792 799.195 87.9375C799.57 86.3542 799.757 83.4792 799.757 79.3125V73.875ZM797.257 119C789.841 119 783.028 117.479 776.82 114.438C770.653 111.354 765.674 106.667 761.882 100.375C758.091 94.0417 756.195 86.1458 756.195 76.6875C756.195 62.9792 760.32 52.2708 768.57 44.5625C775.903 37.7708 785.341 34.375 796.882 34.375C809.424 34.375 819.341 38.2708 826.632 46.0625C833.966 53.8125 837.632 64.0208 837.632 76.6875C837.632 90.7708 833.716 101.521 825.882 108.938C818.757 115.646 809.216 119 797.257 119ZM852.59 105.438V42.8125C852.59 40.6458 854.319 38.8542 857.777 37.4375C861.277 35.9792 865.382 35.25 870.09 35.25C872.757 35.25 875.257 35.5833 877.59 36.25C879.965 36.875 881.777 37.6875 883.027 38.6875C884.736 40.8542 886.298 43.0625 887.715 45.3125C889.132 47.5625 892.319 52.8125 897.277 61.0625C897.736 61.0625 898.152 60.9167 898.527 60.625C898.902 60.3333 899.09 59.8958 899.09 59.3125C899.09 58.6875 898.569 57.5 897.527 55.75L890.777 44.125V40.6875C892.902 38.9375 895.486 37.5833 898.527 36.625C901.569 35.6667 904.715 35.1875 907.965 35.1875C913.257 35.1875 917.527 36.1458 920.777 38.0625C924.569 40.3542 926.465 43.9375 926.465 48.8125V108C926.465 111.583 924.757 114.188 921.34 115.812C918.423 117.271 914.527 118 909.652 118C906.944 118 904.298 117.708 901.715 117.125C899.173 116.542 897.173 115.792 895.715 114.875C892.757 111.083 889.819 106.833 886.902 102.125L880.527 91.5C879.319 91.6667 878.715 92.3125 878.715 93.4375C878.715 94.1458 879.319 95.5 880.527 97.5L888.34 110.125V113.438C883.507 116.562 878.048 118.125 871.965 118.125C865.923 118.125 861.173 117.021 857.715 114.812C854.298 112.604 852.59 109.479 852.59 105.438ZM979.047 96.4375V112.25C977.131 113.917 974.568 115.312 971.36 116.438C968.193 117.562 964.318 118.125 959.735 118.125C955.193 118.125 951.277 117.104 947.985 115.062C944.36 112.854 942.547 109.708 942.547 105.625V42.125C942.547 38.2917 951.943 36.375 970.735 36.375H1007.42C1008.63 38.5833 1009.53 41.0625 1010.11 43.8125C1010.69 46.5208 1010.98 48.9583 1010.98 51.125C1010.98 60.6667 1006.8 65.4375 998.422 65.4375H976.797C975.214 65.4375 974.422 66.1042 974.422 67.4375V67.875C974.422 68.125 974.464 68.2917 974.547 68.375H1002.17C1004.3 72 1005.36 76.0833 1005.36 80.625C1005.36 86.2917 1004.09 90.7083 1001.55 93.875H970.922C970.589 94.2083 970.422 94.5833 970.422 95C970.422 95.6667 970.922 96.0625 971.922 96.1875C972.964 96.3125 974.131 96.375 975.422 96.375C976.714 96.375 977.922 96.3958 979.047 96.4375Z" fill="white"/>
<path d="M147.515 62.3125V106.25C145.598 107.917 143.036 109.312 139.827 110.438C136.619 111.562 132.723 112.125 128.14 112.125C123.557 112.125 119.661 111.104 116.452 109.062C112.827 106.854 111.015 103.729 111.015 99.6875V59.4375H96.4525C93.4525 55.1458 91.9525 50.4583 91.9525 45.375C91.9525 41.9167 92.4942 38.9167 93.5775 36.375C94.7025 33.7917 96.0775 31.7917 97.7025 30.375H162.327C163.536 32.25 164.536 34.5208 165.327 37.1875C166.119 39.8542 166.515 42.5 166.515 45.125C166.515 50.0417 165.432 53.6667 163.265 56C161.098 58.2917 158.182 59.4375 154.515 59.4375H136.202C136.077 59.7292 136.015 60.0417 136.015 60.375C136.015 61.125 136.452 61.625 137.327 61.875C138.244 62.1667 140.202 62.3125 143.202 62.3125H147.515ZM256.847 44.75V106.875C252.181 110.375 246.202 112.125 238.91 112.125C233.285 112.125 228.827 110.979 225.535 108.688C222.077 106.354 220.347 102.979 220.347 98.5625V86.1875H224.785C226.493 86.1875 227.556 85.9792 227.972 85.5625C228.431 85.1042 228.66 84.375 228.66 83.375H209.035C209.035 84.375 209.222 85.1042 209.597 85.5625C209.972 85.9792 210.868 86.1875 212.285 86.1875H217.035V106.875C213.827 108.958 210.785 110.354 207.91 111.062C205.035 111.771 202.097 112.125 199.097 112.125C193.472 112.125 189.014 110.979 185.722 108.688C182.264 106.354 180.535 102.979 180.535 98.5625V36.375C182.702 34.0833 185.368 32.3333 188.535 31.125C191.743 29.875 195.077 29.25 198.535 29.25C203.577 29.25 207.847 30.5 211.347 33C215.139 35.8333 217.035 39.75 217.035 44.75V55.875H224.972C224.972 54.7917 224.764 54.0625 224.347 53.6875C223.972 53.2708 223.347 53.0625 222.472 53.0625H220.347V36.375C222.514 34.0833 225.181 32.3333 228.347 31.125C231.556 29.875 234.889 29.25 238.347 29.25C243.389 29.25 247.66 30.5 251.16 33C254.952 35.8333 256.847 39.75 256.847 44.75ZM301.18 30.375H337.242C338.451 32.375 339.347 34.5625 339.93 36.9375C340.513 39.2708 340.805 41.375 340.805 43.25C340.805 47.4583 339.972 50.625 338.305 52.75C336.68 54.875 334.388 55.9375 331.43 55.9375H306.242C304.701 55.9375 303.93 56.5417 303.93 57.75V58.25C303.93 58.5 303.972 58.6667 304.055 58.75H333.93C334.68 60.0417 335.326 61.6667 335.867 63.625C336.367 65.75 336.617 67.6458 336.617 69.3125C336.617 74.2708 335.701 78.1458 333.867 80.9375H320.305C313.972 80.9375 309.68 81.1875 307.43 81.6875C305.18 82.1458 303.784 82.5417 303.242 82.875C302.701 83.25 302.43 83.7292 302.43 84.3125C302.43 84.8958 302.722 85.3542 303.305 85.6875C305.472 84.9792 307.742 84.4792 310.117 84.1875C313.242 83.8958 316.638 83.75 320.305 83.75H337.867C340.409 87.3333 341.68 91.6458 341.68 96.6875C341.68 99.5208 341.326 102.229 340.617 104.812C339.909 107.396 338.847 109.479 337.43 111.062H290.617C285.451 111.062 281.305 109.812 278.18 107.312C274.763 104.646 273.055 100.729 273.055 95.5625V36.125C273.055 34.125 275.347 32.6667 279.93 31.75C284.513 30.8333 291.597 30.375 301.18 30.375ZM434.408 69.9375C434.741 70.2708 435.262 70.4375 435.97 70.4375C436.678 70.4375 437.283 70.2917 437.783 70C436.699 63.6667 435.97 59.9167 435.595 58.75C435.137 57.5417 434.449 56.9375 433.533 56.9375C433.116 56.9375 432.616 57.0625 432.033 57.3125L434.408 69.9375ZM422.033 88.6875C421.616 89.2708 421.408 89.8125 421.408 90.3125C421.408 91.5208 422.533 92.5417 424.783 93.375C427.074 94.1667 429.845 94.6667 433.095 94.875C433.637 100.875 434.22 104.292 434.845 105.125C434.053 106.667 431.866 108.229 428.283 109.812C424.699 111.354 420.658 112.125 416.158 112.125C410.199 112.125 405.095 110.854 400.845 108.312C396.595 105.729 394.47 102.417 394.47 98.375C394.47 97.2917 394.574 96.3333 394.783 95.5L408.095 36C411.428 33.875 415.408 32.2083 420.033 31C424.658 29.7917 429.47 29.1875 434.47 29.1875C441.637 29.1875 447.762 30.3958 452.845 32.8125C458.637 35.5625 462.158 39.5417 463.408 44.75L477.658 103.688C473.324 109.312 466.262 112.125 456.47 112.125C451.72 112.125 447.699 111.271 444.408 109.562C441.116 107.854 439.199 105.417 438.658 102.25L437.283 94.625C439.783 94.5833 442.199 94.1042 444.533 93.1875C446.866 92.2708 448.033 91.3125 448.033 90.3125C448.033 89.6458 447.762 89.1042 447.22 88.6875C445.637 89.8125 443.699 90.6667 441.408 91.25C439.116 91.8333 436.991 92.125 435.033 92.125C429.408 92.125 425.074 90.9792 422.033 88.6875ZM526.052 69.0625C526.219 69.1875 526.698 69.25 527.49 69.25C528.282 69.25 528.886 68.9375 529.302 68.3125C529.719 67.6875 529.927 66.6667 529.927 65.25V60.5C529.927 59 529.74 57.9375 529.365 57.3125C529.032 56.6458 528.448 56.3125 527.615 56.3125C526.823 56.3125 526.282 56.3958 525.99 56.5625C526.032 56.7708 526.052 57.125 526.052 57.625V69.0625ZM527.615 97.3125V106.875C525.782 108.417 523.198 109.688 519.865 110.688C516.532 111.646 513.052 112.125 509.427 112.125C504.261 112.125 500.032 111.125 496.74 109.125C492.99 106.833 491.115 103.521 491.115 99.1875V39.8125C491.115 38.4792 492.011 37.1458 493.802 35.8125C495.636 34.4792 498.157 33.2708 501.365 32.1875C508.24 29.8542 516.094 28.6875 524.927 28.6875C537.136 28.6875 546.865 31.7292 554.115 37.8125C561.365 43.8958 564.99 52.0833 564.99 62.375C564.99 72.625 561.719 80.6042 555.177 86.3125C548.886 91.7292 540.157 94.4375 528.99 94.4375C526.448 94.4375 523.719 94.1458 520.802 93.5625C517.927 92.9375 515.99 92.3958 514.99 91.9375C514.657 92.2708 514.49 92.7292 514.49 93.3125C514.49 95.4375 518.865 96.7708 527.615 97.3125ZM615.76 41.6875V106.25C613.843 107.917 611.281 109.312 608.073 110.438C604.864 111.562 600.968 112.125 596.385 112.125C591.802 112.125 587.906 111.104 584.698 109.062C581.073 106.854 579.26 103.729 579.26 99.6875V35.125C581.177 33.4583 583.739 32.0625 586.948 30.9375C590.156 29.8125 594.031 29.25 598.573 29.25C603.114 29.25 607.052 30.25 610.385 32.25C613.968 34.5417 615.76 37.6875 615.76 41.6875ZM713.3 86.125C713.717 86.125 714.092 86.0208 714.425 85.8125V80.125C717.258 78.2083 721.217 76.6458 726.3 75.4375C731.425 74.2292 736.404 73.625 741.238 73.625C743.446 75.875 745.279 79.25 746.738 83.75C748.238 88.2083 749.029 92.25 749.113 95.875C748.279 97.5417 746.863 99.3333 744.863 101.25C742.904 103.167 740.529 104.938 737.738 106.562C730.821 110.646 722.883 112.688 713.925 112.688C701.092 112.688 690.988 108.958 683.613 101.5C675.988 93.9583 672.175 83.5208 672.175 70.1875C672.175 56.8125 676.342 46.3125 684.675 38.6875C688.342 35.2708 692.613 32.7083 697.488 31C702.363 29.25 707.488 28.375 712.863 28.375C723.363 28.375 731.967 30.9167 738.675 36C745.383 41.0833 748.738 47.3542 748.738 54.8125C748.738 60.4375 747.008 64.6042 743.55 67.3125C740.092 69.9792 735.404 71.3125 729.488 71.3125C726.238 71.3125 722.967 70.5208 719.675 68.9375C716.383 67.3125 714.425 65.7917 713.8 64.375C713.8 60.9583 713.863 58.2708 713.988 56.3125C713.904 56.2708 713.758 56.25 713.55 56.25H713.113C712.488 56.25 711.988 56.4375 711.613 56.8125C711.279 57.1458 710.967 57.875 710.675 59C710.425 60.125 710.3 63.1875 710.3 68.1875C710.3 80.1458 711.3 86.125 713.3 86.125ZM805.257 67.875C805.257 63.7083 805.07 60.8542 804.695 59.3125C804.32 57.7292 803.632 56.9375 802.632 56.9375C802.007 56.9375 801.445 57.1458 800.945 57.5625C801.028 58.3125 801.153 59.3125 801.32 60.5625C801.487 61.8125 801.57 64.4792 801.57 68.5625V72.625C801.57 75.4583 801.507 77.5208 801.382 78.8125C801.257 80.1042 801.153 81.2083 801.07 82.125C801.028 82.625 800.987 83.125 800.945 83.625C801.445 84.0417 802.007 84.25 802.632 84.25C803.632 84.25 804.32 83.4792 804.695 81.9375C805.07 80.3542 805.257 77.4792 805.257 73.3125V67.875ZM802.757 113C795.341 113 788.528 111.479 782.32 108.438C776.153 105.354 771.174 100.667 767.382 94.375C763.591 88.0417 761.695 80.1458 761.695 70.6875C761.695 56.9792 765.82 46.2708 774.07 38.5625C781.403 31.7708 790.841 28.375 802.382 28.375C814.924 28.375 824.841 32.2708 832.132 40.0625C839.466 47.8125 843.132 58.0208 843.132 70.6875C843.132 84.7708 839.216 95.5208 831.382 102.938C824.257 109.646 814.716 113 802.757 113ZM858.09 99.4375V36.8125C858.09 34.6458 859.819 32.8542 863.277 31.4375C866.777 29.9792 870.882 29.25 875.59 29.25C878.257 29.25 880.757 29.5833 883.09 30.25C885.465 30.875 887.277 31.6875 888.527 32.6875C890.236 34.8542 891.798 37.0625 893.215 39.3125C894.632 41.5625 897.819 46.8125 902.777 55.0625C903.236 55.0625 903.652 54.9167 904.027 54.625C904.402 54.3333 904.59 53.8958 904.59 53.3125C904.59 52.6875 904.069 51.5 903.027 49.75L896.277 38.125V34.6875C898.402 32.9375 900.986 31.5833 904.027 30.625C907.069 29.6667 910.215 29.1875 913.465 29.1875C918.757 29.1875 923.027 30.1458 926.277 32.0625C930.069 34.3542 931.965 37.9375 931.965 42.8125V102C931.965 105.583 930.257 108.188 926.84 109.812C923.923 111.271 920.027 112 915.152 112C912.444 112 909.798 111.708 907.215 111.125C904.673 110.542 902.673 109.792 901.215 108.875C898.257 105.083 895.319 100.833 892.402 96.125L886.027 85.5C884.819 85.6667 884.215 86.3125 884.215 87.4375C884.215 88.1458 884.819 89.5 886.027 91.5L893.84 104.125V107.438C889.007 110.562 883.548 112.125 877.465 112.125C871.423 112.125 866.673 111.021 863.215 108.812C859.798 106.604 858.09 103.479 858.09 99.4375ZM984.547 90.4375V106.25C982.631 107.917 980.068 109.312 976.86 110.438C973.693 111.562 969.818 112.125 965.235 112.125C960.693 112.125 956.777 111.104 953.485 109.062C949.86 106.854 948.047 103.708 948.047 99.625V36.125C948.047 32.2917 957.443 30.375 976.235 30.375H1012.92C1014.13 32.5833 1015.03 35.0625 1015.61 37.8125C1016.19 40.5208 1016.48 42.9583 1016.48 45.125C1016.48 54.6667 1012.3 59.4375 1003.92 59.4375H982.297C980.714 59.4375 979.922 60.1042 979.922 61.4375V61.875C979.922 62.125 979.964 62.2917 980.047 62.375H1007.67C1009.8 66 1010.86 70.0833 1010.86 74.625C1010.86 80.2917 1009.59 84.7083 1007.05 87.875H976.422C976.089 88.2083 975.922 88.5833 975.922 89C975.922 89.6667 976.422 90.0625 977.422 90.1875C978.464 90.3125 979.631 90.375 980.922 90.375C982.214 90.375 983.422 90.3958 984.547 90.4375Z" fill="#F3A125"/>
</svg>
