<svg width="359" height="459" viewBox="0 0 359 459" fill="none" xmlns="http://www.w3.org/2000/svg">
<path d="M111.799 216.563L77.6658 183.473C77.6658 183.473 62.1186 164.562 82.7399 147.332C103.361 130.102 127.686 162.528 127.686 162.528L144.59 176.03L157.437 175.013C157.437 175.013 189.21 150.029 201.379 150.354L304.458 134.48L324.4 135.497C324.4 135.497 335.891 139.889 334.195 162.175C332.499 184.462 333.856 181.764 333.856 181.764L349.403 232.762C349.403 232.762 350.421 255.727 339.934 260.797C329.446 265.867 308.5 312.798 308.5 312.798L308.161 432.689C308.161 432.689 301.744 467.474 264.218 452.616L75.2913 451.939L69.6943 244.513L110.301 222.834L111.799 216.549V216.563Z" fill="white"/>
<path d="M273.575 156.427L271.441 165.127C271.441 165.127 229.972 183.346 203.726 168.121C203.726 168.121 209.846 155.905 211.754 155.269C211.754 155.269 240.968 171.609 273.561 156.413L273.575 156.427Z" fill="#E4E4E4"/>
<path d="M273.391 157.006C271.398 168.912 257.519 197.78 289.631 212.326" stroke="#3A3836" stroke-width="2" stroke-linecap="round" stroke-linejoin="round"/>
<path d="M192.814 253.425V201.353C187.924 162.868 202.057 149.437 202.057 149.437" stroke="#3A3836" stroke-width="2" stroke-miterlimit="10"/>
<path d="M208.333 204.502H219.598C220.62 204.502 221.449 203.673 221.449 202.652V184.588C221.449 183.567 220.62 182.738 219.598 182.738H208.333C207.31 182.738 206.481 183.567 206.481 184.588V202.652C206.481 203.673 207.31 204.502 208.333 204.502Z" stroke="#3A3836" stroke-width="2" stroke-miterlimit="10"/>
<path d="M211.754 155.283C211.754 155.283 192.814 178.05 192.814 213.428" stroke="#3A3836" stroke-width="2" stroke-miterlimit="10"/>
<path d="M81.5527 186.778L111.432 215.504C127.601 230.757 147.473 230.023 168.745 223.54L192.829 214.911" stroke="#3A3836" stroke-width="2" stroke-linecap="round" stroke-linejoin="round"/>
<path d="M202.057 149.436C196.559 150.608 190.185 153.235 185.93 155.933L157.818 173.77C151.854 177.569 144.066 176.722 139.006 171.779L114.441 148.758" stroke="#3A3836" stroke-width="2" stroke-linecap="round" stroke-linejoin="round"/>
<path d="M115.275 149.493C115.204 149.422 115.148 149.38 115.077 149.295C111.841 146.329 107.77 144.168 103.191 143.222C89.6081 140.411 76.294 149.14 73.4672 162.74C71.5591 171.934 74.9654 181.001 81.5659 186.778" stroke="#3A3836" stroke-width="2" stroke-linecap="round" stroke-linejoin="round"/>
<path d="M244.417 163.008C284.702 163.008 317.361 130.375 317.361 90.1192C317.361 49.8636 284.702 17.23 244.417 17.23C204.129 17.23 171.472 49.8636 171.472 90.1192C171.472 130.375 204.129 163.008 244.417 163.008Z" fill="white" stroke="#3A3836" stroke-width="2" stroke-linecap="round" stroke-linejoin="round"/>
<path d="M244.417 163.008C284.702 163.008 317.361 130.375 317.361 90.1192C317.361 49.8636 284.702 17.23 244.417 17.23C204.129 17.23 171.472 49.8636 171.472 90.1192C171.472 130.375 204.129 163.008 244.417 163.008Z" stroke="#3A3836" stroke-width="2" stroke-linecap="round" stroke-linejoin="round"/>
<path d="M236.629 21.58C242.132 21.58 246.594 17.1222 246.594 11.6233C246.594 6.1243 242.132 1.6665 236.629 1.6665C231.126 1.6665 226.665 6.1243 226.665 11.6233C226.665 17.1222 231.126 21.58 236.629 21.58Z" fill="#FD8753" stroke="#3A3836" stroke-width="2" stroke-miterlimit="10"/>
<path d="M299.633 109.836C304.534 109.407 308.013 103.459 307.407 96.5513C306.801 89.6437 302.339 84.3917 297.44 84.8209C292.541 85.25 289.06 91.1976 289.666 98.1054C290.273 105.013 294.735 110.265 299.633 109.836Z" stroke="#3A3836" stroke-width="2" stroke-linecap="round" stroke-linejoin="round"/>
<path d="M238.65 22.0601L239.626 29.5877" stroke="#3A3836" stroke-width="2" stroke-linecap="round" stroke-linejoin="round"/>
<path d="M213.619 156.187C225.265 155.071 235.329 151.357 235.329 151.357C255.893 143.815 270.678 127.263 271.526 111.247C272.699 89.0601 269.617 70.8978 214.128 68.9489C200.701 68.4828 189.351 68.8076 173.465 73.1858" stroke="#3A3836" stroke-width="2" stroke-linecap="round" stroke-linejoin="round"/>
<path d="M250.099 322.882V428.042C250.099 436.135 253.378 443.479 258.678 448.775C260.487 450.583 262.565 452.193 264.854 453.478C269.123 455.935 274.098 457.334 279.398 457.334C295.61 457.334 308.712 444.241 308.712 428.042V293.704" stroke="#3A3836" stroke-width="2" stroke-linecap="round" stroke-linejoin="round"/>
<path d="M294.607 143.024L307.511 151.357C320.203 159.577 329.743 171.793 334.634 186.086L347.043 222.664C352.654 239.188 348.004 257.45 335.199 269.299L305.504 296.698C300.797 301.048 294.819 303.194 288.882 303.194C282.183 303.194 275.483 300.44 270.621 295.031C261.604 284.919 262.523 269.426 272.671 260.444L300.811 235.502L282.409 197.257C276.105 164.788 302.832 148.335 302.832 148.335" stroke="#3A3836" stroke-width="2" stroke-linecap="round" stroke-linejoin="round"/>
<path d="M233.958 312.304H345.403C354.336 312.304 360.343 303.152 356.781 294.961L325.263 222.41C319.496 209.135 306.38 200.534 291.893 200.534H180.447C171.514 200.534 165.508 209.685 169.069 217.877L200.588 290.427C206.354 303.703 219.471 312.304 233.958 312.304Z" fill="#D1D8ED"/>
<path d="M319.283 292.306C319.283 292.306 308.768 278.521 295.355 278.521C281.942 278.521 277.744 297.573 249.575 271.248" stroke="white" stroke-width="2" stroke-linecap="round" stroke-linejoin="round"/>
<path d="M207.697 243.948H235.456C237.675 243.948 239.173 241.674 238.296 239.626L230.438 221.549C228.996 218.244 225.731 216.097 222.127 216.097H194.368C192.149 216.097 190.651 218.371 191.528 220.419L199.386 238.496C200.828 241.801 204.093 243.948 207.697 243.948Z" fill="white"/>
<path d="M260.374 252.309H310.253C312.472 252.309 313.97 250.035 313.093 247.987L311.397 243.948C309.956 240.643 306.691 238.497 303.087 238.497H253.208C250.989 238.497 249.491 240.77 250.367 242.818L252.063 246.857C253.505 250.162 256.77 252.309 260.374 252.309Z" fill="white"/>
<path d="M250.791 228.681H300.67C302.889 228.681 304.387 226.407 303.51 224.359L301.814 220.32C300.373 217.015 297.108 214.869 293.504 214.869H243.625C241.406 214.869 239.908 217.142 240.784 219.19L242.48 223.23C243.922 226.534 247.187 228.681 250.791 228.681Z" fill="white"/>
<path d="M66.6697 312.304H178.115C187.048 312.304 193.055 303.152 189.493 294.961L157.975 222.41C152.208 209.135 139.092 200.534 124.604 200.534H13.1589C4.22635 200.534 -1.78052 209.685 1.78121 217.877L33.2997 290.427C39.0663 303.703 52.1825 312.304 66.6697 312.304Z" fill="#FFDD81"/>
<path d="M27.6602 227.904H89.6795" stroke="white" stroke-width="2" stroke-linecap="round" stroke-linejoin="round"/>
<path d="M33.624 238.948H112.265" stroke="white" stroke-width="2" stroke-linecap="round" stroke-linejoin="round"/>
<path d="M333.361 182.725V150.425C333.361 141.852 326.393 134.904 317.8 134.904H301.941" stroke="#3A3836" stroke-width="2" stroke-linecap="round" stroke-linejoin="round"/>
<path d="M74.2588 457.333H213.958V253.41H74.2588V457.333Z" fill="white" stroke="#3A3836" stroke-width="2" stroke-linecap="round" stroke-linejoin="round"/>
<path d="M264.854 303.18L213.718 253.424V457.347H264.854V303.18Z" fill="white" stroke="#3A3836" stroke-width="2" stroke-linecap="round" stroke-linejoin="round"/>
<path d="M74.2588 433.253H264.854" stroke="#3A3836" stroke-width="2" stroke-linecap="round" stroke-linejoin="round"/>
<path d="M313.333 263.381L333.361 298.505H272.133" stroke="white" stroke-width="2" stroke-linecap="round" stroke-linejoin="round"/>
<path d="M51.0518 457.348H84.125" stroke="#3A3836" stroke-width="2" stroke-linecap="round" stroke-linejoin="round"/>
<path d="M255.597 457.348H333.361" stroke="#3A3836" stroke-width="2" stroke-linecap="round" stroke-linejoin="round"/>
</svg>
