<svg width="829" height="630" viewBox="0 0 829 630" fill="none" xmlns="http://www.w3.org/2000/svg">
<g filter="url(#filter0_d_148_1449)">
<rect x="74" y="72" width="681" height="482" rx="8" fill="white"/>
<rect x="74.75" y="72.75" width="679.5" height="480.5" rx="7.25" stroke="url(#paint0_linear_148_1449)" stroke-width="1.5"/>
<g clip-path="url(#clip0_148_1449)">
<g filter="url(#filter1_d_148_1449)">
<path d="M74 80C74 75.5817 77.5817 72 82 72H414.5H747C751.418 72 755 75.5817 755 80V120H74V80Z" fill="#F5F5F5"/>
</g>
<g clip-path="url(#clip1_148_1449)">
<circle cx="97" cy="96" r="8" fill="#D83B3B"/>
<circle cx="121" cy="96" r="8" fill="#E2C423"/>
<circle cx="145" cy="96" r="8" fill="#03CA0B"/>
</g>
<path d="M317.276 101V90.8182H321.293C322.065 90.8182 322.723 90.9657 323.266 91.2607C323.81 91.5523 324.224 91.9583 324.509 92.4787C324.798 92.9957 324.942 93.5923 324.942 94.2685C324.942 94.9446 324.796 95.5412 324.504 96.0582C324.213 96.5753 323.79 96.978 323.237 97.2663C322.686 97.5547 322.02 97.6989 321.238 97.6989H318.678V95.9737H320.89C321.304 95.9737 321.646 95.9025 321.914 95.7599C322.186 95.6141 322.388 95.4136 322.521 95.1584C322.656 94.8999 322.724 94.6032 322.724 94.2685C322.724 93.9304 322.656 93.6354 322.521 93.3835C322.388 93.1283 322.186 92.9311 321.914 92.7919C321.642 92.6494 321.298 92.5781 320.88 92.5781H319.428V101H317.276ZM335.697 95.9091C335.697 97.0194 335.486 97.964 335.065 98.7429C334.648 99.5218 334.077 100.117 333.355 100.528C332.636 100.935 331.827 101.139 330.929 101.139C330.024 101.139 329.212 100.934 328.493 100.523C327.773 100.112 327.205 99.5168 326.787 98.7379C326.37 97.959 326.161 97.0161 326.161 95.9091C326.161 94.7988 326.37 93.8542 326.787 93.0753C327.205 92.2964 327.773 91.7031 328.493 91.2955C329.212 90.8845 330.024 90.679 330.929 90.679C331.827 90.679 332.636 90.8845 333.355 91.2955C334.077 91.7031 334.648 92.2964 335.065 93.0753C335.486 93.8542 335.697 94.7988 335.697 95.9091ZM333.514 95.9091C333.514 95.1899 333.406 94.5833 333.191 94.0895C332.979 93.5956 332.679 93.2211 332.291 92.9659C331.903 92.7107 331.449 92.5831 330.929 92.5831C330.408 92.5831 329.954 92.7107 329.567 92.9659C329.179 93.2211 328.877 93.5956 328.662 94.0895C328.45 94.5833 328.344 95.1899 328.344 95.9091C328.344 96.6283 328.45 97.2348 328.662 97.7287C328.877 98.2225 329.179 98.5971 329.567 98.8523C329.954 99.1075 330.408 99.2351 330.929 99.2351C331.449 99.2351 331.903 99.1075 332.291 98.8523C332.679 98.5971 332.979 98.2225 333.191 97.7287C333.406 97.2348 333.514 96.6283 333.514 95.9091ZM342.815 93.7464C342.775 93.3454 342.604 93.0339 342.303 92.8118C342.001 92.5897 341.592 92.4787 341.075 92.4787C340.723 92.4787 340.427 92.5284 340.185 92.6278C339.943 92.724 339.757 92.8582 339.628 93.0305C339.502 93.2029 339.439 93.3984 339.439 93.6172C339.432 93.7995 339.47 93.9586 339.553 94.0945C339.639 94.2304 339.757 94.348 339.906 94.4474C340.055 94.5436 340.228 94.6281 340.423 94.701C340.619 94.7706 340.828 94.8303 341.05 94.88L341.964 95.0987C342.409 95.1982 342.816 95.3307 343.188 95.4964C343.559 95.6622 343.88 95.866 344.152 96.108C344.424 96.3499 344.634 96.6349 344.783 96.9631C344.936 97.2912 345.014 97.6674 345.017 98.0916C345.014 98.7147 344.855 99.255 344.54 99.7124C344.228 100.166 343.777 100.519 343.188 100.771C342.601 101.02 341.893 101.144 341.065 101.144C340.243 101.144 339.527 101.018 338.917 100.766C338.31 100.514 337.836 100.142 337.495 99.6477C337.157 99.1506 336.98 98.5357 336.963 97.8033H339.046C339.069 98.1446 339.167 98.4297 339.339 98.6584C339.515 98.8838 339.749 99.0545 340.04 99.1705C340.335 99.2831 340.669 99.3395 341.04 99.3395C341.404 99.3395 341.721 99.2865 341.989 99.1804C342.261 99.0743 342.472 98.9268 342.621 98.7379C342.77 98.549 342.844 98.3319 342.844 98.0866C342.844 97.858 342.777 97.6657 342.641 97.5099C342.508 97.3542 342.313 97.2216 342.054 97.1122C341.799 97.0028 341.486 96.9034 341.114 96.8139L340.006 96.5355C339.147 96.3267 338.469 96.0002 337.972 95.5561C337.475 95.112 337.228 94.5137 337.232 93.7614C337.228 93.1449 337.392 92.6063 337.724 92.1456C338.058 91.6849 338.518 91.3253 339.101 91.0668C339.684 90.8082 340.347 90.679 341.089 90.679C341.845 90.679 342.505 90.8082 343.068 91.0668C343.635 91.3253 344.076 91.6849 344.391 92.1456C344.705 92.6063 344.868 93.1399 344.878 93.7464H342.815ZM346.077 92.593V90.8182H354.439V92.593H351.322V101H349.194V92.593H346.077ZM355.817 90.8182H358.471L361.275 97.6591H361.395L364.199 90.8182H366.854V101H364.765V94.3729H364.681L362.046 100.95H360.624L357.989 94.348H357.905V101H355.817V90.8182ZM370.382 101H368.075L371.59 90.8182H374.364L377.874 101H375.567L373.017 93.1449H372.938L370.382 101ZM370.238 96.9979H375.687V98.6783H370.238V96.9979ZM387.616 90.8182V101H385.757L381.327 94.5916H381.252V101H379.1V90.8182H380.989L385.384 97.2216H385.473V90.8182H387.616Z" fill="#FF6C37"/>
<path d="M404.859 94.3828H402.681C402.642 94.1011 402.56 93.8509 402.438 93.6321C402.315 93.41 402.158 93.2211 401.965 93.0653C401.773 92.9096 401.551 92.7902 401.299 92.7074C401.051 92.6245 400.78 92.5831 400.489 92.5831C399.962 92.5831 399.503 92.714 399.112 92.9759C398.721 93.2344 398.417 93.6122 398.202 94.1094C397.986 94.6032 397.879 95.2031 397.879 95.9091C397.879 96.6349 397.986 97.2448 398.202 97.7386C398.421 98.2325 398.726 98.6054 399.117 98.8572C399.508 99.1091 399.96 99.2351 400.474 99.2351C400.762 99.2351 401.029 99.197 401.274 99.1207C401.523 99.0445 401.743 98.9335 401.936 98.7876C402.128 98.6385 402.287 98.4579 402.413 98.2457C402.542 98.0336 402.632 97.7917 402.681 97.5199L404.859 97.5298C404.802 97.9972 404.662 98.4479 404.436 98.8821C404.214 99.313 403.914 99.6991 403.536 100.04C403.162 100.379 402.714 100.647 402.194 100.846C401.677 101.041 401.092 101.139 400.439 101.139C399.531 101.139 398.719 100.934 398.003 100.523C397.29 100.112 396.727 99.5168 396.313 98.7379C395.902 97.959 395.696 97.0161 395.696 95.9091C395.696 94.7988 395.905 93.8542 396.323 93.0753C396.74 92.2964 397.307 91.7031 398.023 91.2955C398.739 90.8845 399.544 90.679 400.439 90.679C401.029 90.679 401.576 90.7618 402.08 90.9276C402.587 91.0933 403.036 91.3352 403.427 91.6534C403.818 91.9683 404.136 92.3544 404.382 92.8118C404.63 93.2692 404.789 93.7929 404.859 94.3828ZM409.813 101.149C409.041 101.149 408.373 100.985 407.809 100.657C407.249 100.326 406.817 99.8648 406.512 99.2749C406.207 98.6816 406.055 97.9938 406.055 97.2116C406.055 96.4228 406.207 95.7334 406.512 95.1435C406.817 94.5502 407.249 94.0895 407.809 93.7614C408.373 93.4299 409.041 93.2642 409.813 93.2642C410.585 93.2642 411.251 93.4299 411.812 93.7614C412.375 94.0895 412.809 94.5502 413.114 95.1435C413.419 95.7334 413.572 96.4228 413.572 97.2116C413.572 97.9938 413.419 98.6816 413.114 99.2749C412.809 99.8648 412.375 100.326 411.812 100.657C411.251 100.985 410.585 101.149 409.813 101.149ZM409.823 99.5085C410.174 99.5085 410.468 99.4091 410.703 99.2102C410.938 99.008 411.116 98.733 411.235 98.3849C411.358 98.0369 411.419 97.6409 411.419 97.1967C411.419 96.7526 411.358 96.3565 411.235 96.0085C411.116 95.6605 410.938 95.3854 410.703 95.1832C410.468 94.9811 410.174 94.88 409.823 94.88C409.468 94.88 409.17 94.9811 408.928 95.1832C408.689 95.3854 408.509 95.6605 408.386 96.0085C408.267 96.3565 408.207 96.7526 408.207 97.1967C408.207 97.6409 408.267 98.0369 408.386 98.3849C408.509 98.733 408.689 99.008 408.928 99.2102C409.17 99.4091 409.468 99.5085 409.823 99.5085ZM414.949 101V93.3636H416.967V94.7109H417.057C417.216 94.2635 417.481 93.9105 417.852 93.652C418.223 93.3935 418.667 93.2642 419.184 93.2642C419.708 93.2642 420.154 93.3951 420.522 93.657C420.89 93.9155 421.135 94.2668 421.258 94.7109H421.337C421.493 94.2734 421.775 93.9238 422.182 93.6619C422.593 93.3968 423.079 93.2642 423.639 93.2642C424.352 93.2642 424.93 93.4912 425.374 93.9453C425.822 94.3961 426.045 95.0357 426.045 95.8643V101H423.932V96.282C423.932 95.8577 423.82 95.5395 423.594 95.3274C423.369 95.1153 423.087 95.0092 422.749 95.0092C422.365 95.0092 422.065 95.1319 421.849 95.3771C421.634 95.6191 421.526 95.9389 421.526 96.3366V101H419.473V96.2372C419.473 95.8627 419.365 95.5644 419.15 95.3423C418.938 95.1203 418.657 95.0092 418.309 95.0092C418.074 95.0092 417.862 95.0689 417.673 95.1882C417.488 95.3042 417.34 95.4683 417.231 95.6804C417.121 95.8892 417.067 96.1345 417.067 96.4162V101H414.949ZM427.718 101V93.3636H429.737V94.7109H429.826C429.985 94.2635 430.25 93.9105 430.622 93.652C430.993 93.3935 431.437 93.2642 431.954 93.2642C432.478 93.2642 432.923 93.3951 433.291 93.657C433.659 93.9155 433.905 94.2668 434.027 94.7109H434.107C434.262 94.2734 434.544 93.9238 434.952 93.6619C435.363 93.3968 435.848 93.2642 436.409 93.2642C437.121 93.2642 437.7 93.4912 438.144 93.9453C438.591 94.3961 438.815 95.0357 438.815 95.8643V101H436.702V96.282C436.702 95.8577 436.589 95.5395 436.364 95.3274C436.138 95.1153 435.857 95.0092 435.519 95.0092C435.134 95.0092 434.834 95.1319 434.619 95.3771C434.403 95.6191 434.296 95.9389 434.296 96.3366V101H432.242V96.2372C432.242 95.8627 432.135 95.5644 431.919 95.3423C431.707 95.1203 431.427 95.0092 431.079 95.0092C430.844 95.0092 430.632 95.0689 430.443 95.1882C430.257 95.3042 430.11 95.4683 430 95.6804C429.891 95.8892 429.836 96.1345 429.836 96.4162V101H427.718ZM445.385 97.7486V93.3636H447.503V101H445.469V99.6129H445.39C445.217 100.06 444.931 100.42 444.53 100.692C444.132 100.964 443.646 101.099 443.073 101.099C442.563 101.099 442.113 100.983 441.726 100.751C441.338 100.519 441.035 100.19 440.816 99.7621C440.6 99.3345 440.491 98.8224 440.488 98.2259V93.3636H442.606V97.848C442.609 98.2988 442.73 98.6551 442.969 98.9169C443.207 99.1787 443.527 99.3097 443.928 99.3097C444.183 99.3097 444.422 99.2517 444.644 99.1357C444.866 99.0163 445.045 98.8407 445.181 98.6087C445.32 98.3767 445.388 98.09 445.385 97.7486ZM451.315 96.5852V101H449.197V93.3636H451.215V94.7109H451.305C451.474 94.2668 451.757 93.9155 452.155 93.657C452.553 93.3951 453.035 93.2642 453.602 93.2642C454.132 93.2642 454.594 93.3802 454.989 93.6122C455.383 93.8442 455.69 94.1757 455.908 94.6065C456.127 95.0341 456.237 95.5445 456.237 96.1378V101H454.119V96.5156C454.122 96.0483 454.003 95.6837 453.761 95.4219C453.519 95.1567 453.186 95.0241 452.761 95.0241C452.476 95.0241 452.224 95.0855 452.006 95.2081C451.79 95.3307 451.621 95.5097 451.499 95.745C451.379 95.977 451.318 96.2571 451.315 96.5852ZM457.906 101V93.3636H460.024V101H457.906ZM458.97 92.3793C458.655 92.3793 458.385 92.2749 458.159 92.0661C457.937 91.8539 457.826 91.6004 457.826 91.3054C457.826 91.0137 457.937 90.7635 458.159 90.5547C458.385 90.3426 458.655 90.2365 458.97 90.2365C459.285 90.2365 459.553 90.3426 459.775 90.5547C460 90.7635 460.113 91.0137 460.113 91.3054C460.113 91.6004 460 91.8539 459.775 92.0661C459.553 92.2749 459.285 92.3793 458.97 92.3793ZM465.782 93.3636V94.9545H461.183V93.3636H465.782ZM462.227 91.5341H464.345V98.6534C464.345 98.849 464.375 99.0014 464.435 99.1108C464.494 99.2169 464.577 99.2914 464.683 99.3345C464.793 99.3776 464.919 99.3991 465.061 99.3991C465.161 99.3991 465.26 99.3909 465.359 99.3743C465.459 99.3544 465.535 99.3395 465.588 99.3295L465.921 100.906C465.815 100.939 465.666 100.977 465.474 101.02C465.281 101.066 465.048 101.094 464.773 101.104C464.262 101.124 463.815 101.056 463.43 100.901C463.049 100.745 462.753 100.503 462.54 100.175C462.328 99.8466 462.224 99.4323 462.227 98.9318V91.5341ZM468.469 103.864C468.201 103.864 467.949 103.842 467.713 103.799C467.481 103.759 467.289 103.708 467.137 103.645L467.614 102.064C467.863 102.14 468.086 102.182 468.285 102.188C468.487 102.195 468.661 102.148 468.807 102.049C468.956 101.95 469.077 101.781 469.17 101.542L469.294 101.219L466.555 93.3636H468.782L470.363 98.9716H470.443L472.039 93.3636H474.281L471.313 101.825C471.17 102.236 470.976 102.594 470.731 102.899C470.489 103.207 470.183 103.444 469.811 103.61C469.44 103.779 468.993 103.864 468.469 103.864ZM478.645 101V90.8182H482.662C483.434 90.8182 484.092 90.9657 484.635 91.2607C485.179 91.5523 485.593 91.9583 485.878 92.4787C486.167 92.9957 486.311 93.5923 486.311 94.2685C486.311 94.9446 486.165 95.5412 485.873 96.0582C485.582 96.5753 485.159 96.978 484.606 97.2663C484.055 97.5547 483.389 97.6989 482.607 97.6989H480.047V95.9737H482.259C482.673 95.9737 483.015 95.9025 483.283 95.7599C483.555 95.6141 483.757 95.4136 483.89 95.1584C484.026 94.8999 484.094 94.6032 484.094 94.2685C484.094 93.9304 484.026 93.6354 483.89 93.3835C483.757 93.1283 483.555 92.9311 483.283 92.7919C483.011 92.6494 482.667 92.5781 482.249 92.5781H480.797V101H478.645ZM492.566 97.7486V93.3636H494.684V101H492.651V99.6129H492.571C492.399 100.06 492.112 100.42 491.711 100.692C491.314 100.964 490.828 101.099 490.255 101.099C489.744 101.099 489.295 100.983 488.907 100.751C488.52 100.519 488.216 100.19 487.998 99.7621C487.782 99.3345 487.673 98.8224 487.669 98.2259V93.3636H489.787V97.848C489.791 98.2988 489.912 98.6551 490.15 98.9169C490.389 99.1787 490.709 99.3097 491.11 99.3097C491.365 99.3097 491.604 99.2517 491.826 99.1357C492.048 99.0163 492.227 98.8407 492.363 98.6087C492.502 98.3767 492.57 98.09 492.566 97.7486ZM498.496 96.5852V101H496.378V93.3636H498.397V94.7109H498.486C498.655 94.2668 498.939 93.9155 499.336 93.657C499.734 93.3951 500.216 93.2642 500.783 93.2642C501.314 93.2642 501.776 93.3802 502.17 93.6122C502.565 93.8442 502.871 94.1757 503.09 94.6065C503.309 95.0341 503.418 95.5445 503.418 96.1378V101H501.3V96.5156C501.304 96.0483 501.184 95.6837 500.942 95.4219C500.7 95.1567 500.367 95.0241 499.943 95.0241C499.658 95.0241 499.406 95.0855 499.187 95.2081C498.972 95.3307 498.803 95.5097 498.68 95.745C498.561 95.977 498.5 96.2571 498.496 96.5852ZM508.567 101.149C507.782 101.149 507.106 100.99 506.539 100.672C505.976 100.35 505.541 99.8963 505.237 99.3097C504.932 98.7197 504.779 98.022 504.779 97.2166C504.779 96.4311 504.932 95.7417 505.237 95.1484C505.541 94.5552 505.971 94.0928 506.524 93.7614C507.081 93.4299 507.734 93.2642 508.483 93.2642C508.987 93.2642 509.456 93.3454 509.89 93.5078C510.327 93.6669 510.709 93.9072 511.033 94.2287C511.362 94.5502 511.617 94.9545 511.799 95.4418C511.981 95.9257 512.072 96.4924 512.072 97.142V97.7237H505.624V96.4112H510.079C510.079 96.1063 510.013 95.8362 509.88 95.6009C509.747 95.3655 509.563 95.1816 509.328 95.049C509.096 94.9131 508.826 94.8452 508.518 94.8452C508.196 94.8452 507.911 94.9197 507.663 95.0689C507.417 95.2147 507.225 95.4119 507.086 95.6605C506.947 95.9058 506.875 96.1792 506.872 96.4808V97.7287C506.872 98.1065 506.942 98.433 507.081 98.7081C507.223 98.9832 507.424 99.1953 507.683 99.3445C507.941 99.4936 508.248 99.5682 508.602 99.5682C508.838 99.5682 509.053 99.535 509.249 99.4688C509.444 99.4025 509.612 99.303 509.751 99.1705C509.89 99.0379 509.996 98.8755 510.069 98.6832L512.028 98.8125C511.928 99.2831 511.724 99.6941 511.416 100.045C511.111 100.393 510.717 100.665 510.233 100.861C509.752 101.053 509.197 101.149 508.567 101.149Z" fill="black"/>
</g>
</g>
<defs>
<filter id="filter0_d_148_1449" x="0" y="0" width="829" height="630" filterUnits="userSpaceOnUse" color-interpolation-filters="sRGB">
<feFlood flood-opacity="0" result="BackgroundImageFix"/>
<feColorMatrix in="SourceAlpha" type="matrix" values="0 0 0 0 0 0 0 0 0 0 0 0 0 0 0 0 0 0 127 0" result="hardAlpha"/>
<feOffset dy="2"/>
<feGaussianBlur stdDeviation="37"/>
<feComposite in2="hardAlpha" operator="out"/>
<feColorMatrix type="matrix" values="0 0 0 0 0 0 0 0 0 0 0 0 0 0 0 0 0 0 0.22 0"/>
<feBlend mode="normal" in2="BackgroundImageFix" result="effect1_dropShadow_148_1449"/>
<feBlend mode="normal" in="SourceGraphic" in2="effect1_dropShadow_148_1449" result="shape"/>
</filter>
<filter id="filter1_d_148_1449" x="74" y="72" width="681" height="49" filterUnits="userSpaceOnUse" color-interpolation-filters="sRGB">
<feFlood flood-opacity="0" result="BackgroundImageFix"/>
<feColorMatrix in="SourceAlpha" type="matrix" values="0 0 0 0 0 0 0 0 0 0 0 0 0 0 0 0 0 0 127 0" result="hardAlpha"/>
<feOffset dy="1"/>
<feComposite in2="hardAlpha" operator="out"/>
<feColorMatrix type="matrix" values="0 0 0 0 0.825 0 0 0 0 0.825 0 0 0 0 0.825 0 0 0 1 0"/>
<feBlend mode="normal" in2="BackgroundImageFix" result="effect1_dropShadow_148_1449"/>
<feBlend mode="normal" in="SourceGraphic" in2="effect1_dropShadow_148_1449" result="shape"/>
</filter>
<linearGradient id="paint0_linear_148_1449" x1="74" y1="79.651" x2="755" y2="546.349" gradientUnits="userSpaceOnUse">
<stop stop-color="#FF6C37" stop-opacity="0.7"/>
<stop offset="1" stop-color="#FBBF24" stop-opacity="0.5"/>
</linearGradient>
<clipPath id="clip0_148_1449">
<rect width="681" height="48" fill="white" transform="translate(74 72)"/>
</clipPath>
<clipPath id="clip1_148_1449">
<rect width="64" height="16" fill="white" transform="translate(89 88)"/>
</clipPath>
</defs>
</svg>
