<svg xmlns="http://www.w3.org/2000/svg" xmlns:xlink="http://www.w3.org/1999/xlink" width="560" zoomAndPan="magnify" viewBox="0 0 420 314.999992" height="420" preserveAspectRatio="xMidYMid meet" version="1.2"><defs><clipPath id="240bebaa87"><path d="M 209.0625 144.488281 L 242.300781 144.488281 L 242.300781 166.898438 L 209.0625 166.898438 Z M 209.0625 144.488281 "/></clipPath><linearGradient x1="262.311962" gradientTransform="matrix(-0.75,0,0,0.75,419.999995,0)" y1="189.308887" x2="255.861769" gradientUnits="userSpaceOnUse" y2="225.869973" id="270235040f"><stop style="stop-color:#ff6d37;stop-opacity:1;" offset="0"/><stop style="stop-color:#ff6d37;stop-opacity:1;" offset="0.0078125"/><stop style="stop-color:#ff6e37;stop-opacity:1;" offset="0.015625"/><stop style="stop-color:#ff6e37;stop-opacity:1;" offset="0.0234375"/><stop style="stop-color:#ff6f37;stop-opacity:1;" offset="0.03125"/><stop style="stop-color:#ff6f37;stop-opacity:1;" offset="0.0390625"/><stop style="stop-color:#ff7037;stop-opacity:1;" offset="0.046875"/><stop style="stop-color:#ff7037;stop-opacity:1;" offset="0.0546875"/><stop style="stop-color:#fe7137;stop-opacity:1;" offset="0.0625"/><stop style="stop-color:#fe7137;stop-opacity:1;" offset="0.0703125"/><stop style="stop-color:#fe7237;stop-opacity:1;" offset="0.078125"/><stop style="stop-color:#fe7237;stop-opacity:1;" offset="0.0859375"/><stop style="stop-color:#fe7337;stop-opacity:1;" offset="0.09375"/><stop style="stop-color:#fe7337;stop-opacity:1;" offset="0.101562"/><stop style="stop-color:#fe7437;stop-opacity:1;" offset="0.109375"/><stop style="stop-color:#fe7438;stop-opacity:1;" offset="0.117188"/><stop style="stop-color:#fe7538;stop-opacity:1;" offset="0.125"/><stop style="stop-color:#fe7638;stop-opacity:1;" offset="0.132812"/><stop style="stop-color:#fe7638;stop-opacity:1;" offset="0.140625"/><stop style="stop-color:#fe7738;stop-opacity:1;" offset="0.148437"/><stop style="stop-color:#fe7738;stop-opacity:1;" offset="0.15625"/><stop style="stop-color:#fd7838;stop-opacity:1;" offset="0.164062"/><stop style="stop-color:#fd7838;stop-opacity:1;" offset="0.171875"/><stop style="stop-color:#fd7938;stop-opacity:1;" offset="0.179687"/><stop style="stop-color:#fd7938;stop-opacity:1;" offset="0.1875"/><stop style="stop-color:#fd7a38;stop-opacity:1;" offset="0.195312"/><stop style="stop-color:#fd7a38;stop-opacity:1;" offset="0.203125"/><stop style="stop-color:#fd7b38;stop-opacity:1;" offset="0.207407"/><stop style="stop-color:#fd7b38;stop-opacity:1;" offset="0.210937"/><stop style="stop-color:#fd7b38;stop-opacity:1;" offset="0.21875"/><stop style="stop-color:#fd7c38;stop-opacity:1;" offset="0.226562"/><stop style="stop-color:#fd7c38;stop-opacity:1;" offset="0.234375"/><stop style="stop-color:#fd7d38;stop-opacity:1;" offset="0.242187"/><stop style="stop-color:#fd7d38;stop-opacity:1;" offset="0.25"/><stop style="stop-color:#fd7e38;stop-opacity:1;" offset="0.257812"/><stop style="stop-color:#fd7e38;stop-opacity:1;" offset="0.265625"/><stop style="stop-color:#fc7f38;stop-opacity:1;" offset="0.273437"/><stop style="stop-color:#fc7f38;stop-opacity:1;" offset="0.28125"/><stop style="stop-color:#fc8038;stop-opacity:1;" offset="0.289062"/><stop style="stop-color:#fc8138;stop-opacity:1;" offset="0.296875"/><stop style="stop-color:#fc8138;stop-opacity:1;" offset="0.304688"/><stop style="stop-color:#fc8238;stop-opacity:1;" offset="0.3125"/><stop style="stop-color:#fc8238;stop-opacity:1;" offset="0.320312"/><stop style="stop-color:#fc8338;stop-opacity:1;" offset="0.328125"/><stop style="stop-color:#fc8338;stop-opacity:1;" offset="0.335937"/><stop style="stop-color:#fc8438;stop-opacity:1;" offset="0.34375"/><stop style="stop-color:#fc8438;stop-opacity:1;" offset="0.351562"/><stop style="stop-color:#fc8538;stop-opacity:1;" offset="0.359375"/><stop style="stop-color:#fc8538;stop-opacity:1;" offset="0.367187"/><stop style="stop-color:#fb8638;stop-opacity:1;" offset="0.375"/><stop style="stop-color:#fb8639;stop-opacity:1;" offset="0.382812"/><stop style="stop-color:#fb8739;stop-opacity:1;" offset="0.390625"/><stop style="stop-color:#fb8739;stop-opacity:1;" offset="0.398437"/><stop style="stop-color:#fb8839;stop-opacity:1;" offset="0.40625"/><stop style="stop-color:#fb8839;stop-opacity:1;" offset="0.414062"/><stop style="stop-color:#fb8939;stop-opacity:1;" offset="0.421875"/><stop style="stop-color:#fb8939;stop-opacity:1;" offset="0.429687"/><stop style="stop-color:#fb8a39;stop-opacity:1;" offset="0.4375"/><stop style="stop-color:#fb8a39;stop-opacity:1;" offset="0.445312"/><stop style="stop-color:#fb8b39;stop-opacity:1;" offset="0.453125"/><stop style="stop-color:#fb8c39;stop-opacity:1;" offset="0.460937"/><stop style="stop-color:#fb8c39;stop-opacity:1;" offset="0.46875"/><stop style="stop-color:#fb8d39;stop-opacity:1;" offset="0.476562"/><stop style="stop-color:#fa8d39;stop-opacity:1;" offset="0.484375"/><stop style="stop-color:#fa8e39;stop-opacity:1;" offset="0.492187"/><stop style="stop-color:#fa8e39;stop-opacity:1;" offset="0.5"/><stop style="stop-color:#fa8f39;stop-opacity:1;" offset="0.507812"/><stop style="stop-color:#fa8f39;stop-opacity:1;" offset="0.515625"/><stop style="stop-color:#fa9039;stop-opacity:1;" offset="0.523438"/><stop style="stop-color:#fa9039;stop-opacity:1;" offset="0.53125"/><stop style="stop-color:#fa9139;stop-opacity:1;" offset="0.546875"/><stop style="stop-color:#fa9239;stop-opacity:1;" offset="0.5625"/><stop style="stop-color:#fa9339;stop-opacity:1;" offset="0.578125"/><stop style="stop-color:#fa9439;stop-opacity:1;" offset="0.59375"/><stop style="stop-color:#fa9539;stop-opacity:1;" offset="0.609375"/><stop style="stop-color:#f99639;stop-opacity:1;" offset="0.625"/><stop style="stop-color:#f99739;stop-opacity:1;" offset="0.640625"/><stop style="stop-color:#f9973a;stop-opacity:1;" offset="0.65625"/><stop style="stop-color:#f9983a;stop-opacity:1;" offset="0.671875"/><stop style="stop-color:#f9993a;stop-opacity:1;" offset="0.6875"/><stop style="stop-color:#f99a3a;stop-opacity:1;" offset="0.703125"/><stop style="stop-color:#f99b3a;stop-opacity:1;" offset="0.71875"/><stop style="stop-color:#f99c3a;stop-opacity:1;" offset="0.734375"/><stop style="stop-color:#f99d3a;stop-opacity:1;" offset="0.75"/><stop style="stop-color:#f99e3a;stop-opacity:1;" offset="0.765625"/><stop style="stop-color:#f89f3a;stop-opacity:1;" offset="0.78125"/><stop style="stop-color:#f8a03a;stop-opacity:1;" offset="0.792593"/><stop style="stop-color:#f8a03a;stop-opacity:1;" offset="0.796875"/><stop style="stop-color:#f8a13a;stop-opacity:1;" offset="0.8125"/><stop style="stop-color:#f8a23a;stop-opacity:1;" offset="0.828125"/><stop style="stop-color:#f8a23a;stop-opacity:1;" offset="0.84375"/><stop style="stop-color:#f8a33a;stop-opacity:1;" offset="0.859375"/><stop style="stop-color:#f8a43a;stop-opacity:1;" offset="0.875"/><stop style="stop-color:#f8a53a;stop-opacity:1;" offset="0.890625"/><stop style="stop-color:#f8a63b;stop-opacity:1;" offset="0.90625"/><stop style="stop-color:#f8a73b;stop-opacity:1;" offset="0.921875"/><stop style="stop-color:#f8a83b;stop-opacity:1;" offset="0.9375"/><stop style="stop-color:#f7a93b;stop-opacity:1;" offset="0.953125"/><stop style="stop-color:#f7aa3b;stop-opacity:1;" offset="0.96875"/><stop style="stop-color:#f7ab3b;stop-opacity:1;" offset="0.984375"/><stop style="stop-color:#f7ac3b;stop-opacity:1;" offset="1"/></linearGradient><clipPath id="63f8ca5a5c"><path d="M 293.25 24 L 392 24 L 392 62 L 293.25 62 Z M 293.25 24 "/></clipPath><clipPath id="00232aa329"><path d="M 393.773438 26.484375 L 295.574219 20.996094 L 293.425781 59.367188 L 391.628906 64.855469 Z M 393.773438 26.484375 "/></clipPath></defs><g id="452f5032e8"><path style=" stroke:none;fill-rule:nonzero;fill:#ffffff;fill-opacity:1;" d="M 339.390625 200.953125 L 340.042969 269.773438 C 340.042969 269.773438 340.746094 285.382812 334.957031 286.273438 C 334.957031 286.273438 331.539062 294.074219 317.511719 287.632812 C 317.511719 287.632812 309.539062 285.246094 310.351562 264.871094 L 309 236.675781 L 306.140625 235.453125 L 301.125 235.453125 L 299.691406 239.496094 L 296.316406 274.589844 C 296.316406 274.589844 294.066406 289.175781 279.816406 287.917969 C 279.816406 287.917969 268.132812 289.15625 267.613281 267.253906 L 271.492188 208.425781 C 271.492188 208.425781 258.628906 207.886719 259.238281 192.78125 C 259.238281 192.78125 261.578125 183.675781 274.175781 183.78125 L 273.390625 178.738281 C 273.390625 178.738281 246.089844 181.648438 223.539062 166.933594 L 241.703125 167.46875 L 242.339844 150.914062 C 242.339844 150.914062 254.519531 157.335938 271.066406 150.007812 C 271.066406 150.007812 246.472656 132.847656 258.953125 103.640625 C 258.953125 103.640625 267.203125 77.003906 302.804688 82.640625 C 302.804688 82.640625 334.550781 88.230469 330.621094 127.042969 L 326.4375 137.894531 L 340.109375 137.015625 C 340.109375 137.015625 344.675781 136.734375 347.476562 152.765625 C 350.273438 168.800781 351.976562 189.316406 351.976562 189.316406 C 351.976562 189.316406 356.59375 200.085938 339.390625 200.953125 Z M 339.390625 200.953125 "/><path style=" stroke:none;fill-rule:nonzero;fill:#ffffff;fill-opacity:1;" d="M 243.800781 275.488281 L 243.800781 235.738281 L 203.828125 228.113281 L 227.015625 223.207031 L 227.015625 204.277344 L 185.625 195.75 L 207 191.535156 L 207 177.285156 L 167.355469 170.8125 L 167.355469 159.976562 L 157.238281 159.976562 L 152.40625 151.125 L 126.996094 152.851562 L 125.339844 153.023438 L 123.089844 145.566406 L 77.039062 150.113281 L 73.933594 159.976562 L 61.371094 161.308594 L 48.621094 172.164062 L 46.125 177.9375 L 46.125 184.019531 L 75.375 248.191406 C 75.375 248.191406 77.078125 257.011719 89.496094 256.628906 L 95.859375 256.078125 L 97.671875 273.421875 L 100.777344 274.734375 L 100.621094 282.300781 L 95.796875 280.101562 L 96.96875 286.851562 L 123.546875 299.421875 C 123.546875 299.421875 128.167969 301.835938 129.367188 295.140625 L 128.691406 285.734375 L 155.4375 297.808594 Z M 243.800781 275.488281 "/><path style=" stroke:none;fill-rule:nonzero;fill:#a2ecc2;fill-opacity:1;" d="M 382.816406 271.222656 C 382.816406 271.222656 390.089844 241.65625 376.335938 240.359375 C 366.328125 239.414062 370.140625 271.222656 370.140625 271.222656 Z M 382.816406 271.222656 "/><path style=" stroke:none;fill-rule:nonzero;fill:#a2ecc2;fill-opacity:1;" d="M 372.75 271.222656 C 372.75 271.222656 377.40625 229.734375 364.011719 218.25 C 350.617188 206.765625 356.640625 271.359375 356.640625 271.359375 Z M 372.75 271.222656 "/><path style=" stroke:none;fill-rule:nonzero;fill:#a2ecc2;fill-opacity:1;" d="M 357 271.222656 C 357 271.222656 361.6875 240.128906 348.285156 231.40625 C 334.882812 222.683594 340.921875 270.921875 340.921875 270.921875 Z M 357 271.222656 "/><path style=" stroke:none;fill-rule:nonzero;fill:#e5e5e5;fill-opacity:1;" d="M 338.460938 198.40625 C 338.460938 198.40625 328.199219 202.558594 321.824219 195.742188 L 325.351562 194.640625 L 338.460938 193.5 Z M 338.460938 198.40625 "/><path style=" stroke:none;fill-rule:nonzero;fill:#e5e5e5;fill-opacity:1;" d="M 305.40625 155.363281 C 305.40625 155.363281 289.792969 165.726562 273.351562 160.304688 L 274.582031 152.714844 C 274.582031 152.714844 289.925781 160.792969 305.40625 155.363281 Z M 305.40625 155.363281 "/><path style=" stroke:none;fill-rule:nonzero;fill:#ffde83;fill-opacity:1;" d="M 47.113281 186.164062 L 61.402344 217.5 L 8.25 218.339844 C 8.433594 214.925781 9.308594 211.703125 10.875 208.664062 C 12.332031 205.808594 14.375 203.460938 17.003906 201.621094 C 19.433594 199.917969 22.132812 199.023438 25.101562 198.9375 C 28.039062 198.886719 30.738281 199.667969 33.195312 201.277344 C 34.097656 198.746094 35.328125 196.382812 36.882812 194.191406 C 38.4375 192 40.261719 190.058594 42.351562 188.371094 C 43.46875 187.492188 44.652344 186.722656 45.90625 186.058594 Z M 47.113281 186.164062 "/><path style=" stroke:none;fill-rule:nonzero;fill:#e4e4e4;fill-opacity:1;" d="M 242.820312 283.265625 C 242.820312 289.027344 268.636719 293.691406 300.449219 293.691406 C 332.265625 293.691406 358.078125 289.027344 358.078125 283.265625 C 358.078125 280.394531 350.300781 277.808594 339.921875 275.730469 C 339.921875 275.730469 337.996094 283.816406 334.957031 286.304688 C 324.503906 294.886719 321.128906 288.710938 314.773438 285.226562 C 311.773438 283.566406 311.085938 273.121094 309.660156 273.039062 C 306.582031 272.804688 303.5 272.742188 300.414062 272.851562 C 297.414062 272.851562 299.578125 273.03125 296.746094 272.941406 C 295.425781 272.941406 294.496094 281.835938 292.050781 283.816406 C 290.308594 285.226562 284.714844 288.21875 280.15625 287.953125 C 276.328125 287.730469 274.066406 285.039062 272.160156 283.746094 C 270.824219 282.863281 268.824219 274.417969 267.34375 274.582031 C 251.121094 276.425781 242.820312 279.53125 242.820312 283.265625 Z M 242.820312 283.265625 "/><path style=" stroke:none;fill-rule:nonzero;fill:#e5e5e5;fill-opacity:1;" d="M 160.5 201.886719 L 152.566406 210.171875 C 151.035156 209.613281 149.457031 209.273438 147.832031 209.148438 C 146.207031 209.023438 144.597656 209.121094 143 209.441406 C 141.402344 209.761719 139.875 210.292969 138.425781 211.035156 C 136.972656 211.773438 135.648438 212.695312 134.453125 213.800781 L 95.332031 203.527344 L 133.703125 200.527344 L 146.550781 203.527344 Z M 160.5 201.886719 "/><path style=" stroke:none;fill-rule:nonzero;fill:#e5e5e5;fill-opacity:1;" d="M 172.035156 252.441406 L 172.035156 235.109375 L 154.5 238.539062 L 129.75 231.675781 L 104.144531 236.691406 L 94.746094 238.539062 L 101.585938 240.511719 L 104.144531 236.691406 L 130.5 243.996094 C 130.5 243.996094 135.75 242.398438 135.089844 250.199219 L 138.945312 251.316406 L 142.921875 245.398438 L 162.359375 245.398438 L 167.371094 253.5 Z M 172.035156 252.441406 "/><path style=" stroke:none;fill-rule:nonzero;fill:#e5e5e5;fill-opacity:1;" d="M 193.703125 210.71875 L 227.015625 204.277344 L 184.265625 195.742188 L 163.613281 200.144531 L 193.207031 205.777344 L 189.898438 210.921875 Z M 193.703125 210.71875 "/><path style=" stroke:none;fill-rule:nonzero;fill:#e5e5e5;fill-opacity:1;" d="M 243.316406 236.78125 L 205.621094 228.488281 L 198.058594 229.328125 L 207.75 235.734375 L 207.75 243.996094 Z M 243.316406 236.78125 "/><path style="fill:none;stroke-width:2;stroke-linecap:round;stroke-linejoin:round;stroke:#3a3836;stroke-opacity:1;stroke-miterlimit:4;" d="M 398.911455 388.661484 L 432.270832 373.468775 L 430.937498 381.947942 L 397.27083 397.682318 Z M 398.911455 388.661484 " transform="matrix(-0.75,0,0,0.75,419.999977,0)"/><path style="fill:none;stroke-width:2;stroke-linecap:round;stroke-linejoin:round;stroke:#3a3836;stroke-opacity:1;stroke-miterlimit:4;" d="M 219.338526 159.161469 C 219.338526 160.817719 219.260401 162.468761 219.098943 164.114594 C 218.932276 165.765636 218.692693 167.401053 218.369776 169.026053 C 218.046859 170.651053 217.645817 172.25522 217.161442 173.838553 C 216.682276 175.427095 216.124984 176.984387 215.489567 178.510429 C 214.854151 180.041679 214.151026 181.536471 213.369776 183.000012 C 212.588525 184.458346 211.739567 185.880221 210.817692 187.255221 C 209.895817 188.630221 208.911442 189.963554 207.859358 191.239596 C 206.812483 192.520846 205.6979 193.744805 204.526025 194.91668 C 203.359358 196.088555 202.130191 197.19793 200.848941 198.250013 C 199.5729 199.302097 198.244775 200.286472 196.864566 201.208347 C 195.489566 202.125014 194.067691 202.97918 192.609357 203.76043 C 191.145816 204.54168 189.651024 205.244805 188.119774 205.880222 C 186.593732 206.515639 185.03644 207.072931 183.447899 207.552097 C 181.864565 208.031264 180.260398 208.437514 178.635398 208.760431 C 177.010398 209.083347 175.374981 209.322931 173.729148 209.484389 C 172.078106 209.651056 170.427064 209.729181 168.770814 209.729181 C 167.114564 209.729181 165.463522 209.651056 163.812481 209.484389 C 162.166647 209.322931 160.53123 209.083347 158.90623 208.760431 C 157.28123 208.437514 155.677063 208.031264 154.088522 207.552097 C 152.505188 207.072931 150.947896 206.515639 149.416646 205.880222 C 147.885396 205.244805 146.390604 204.54168 144.932271 203.76043 C 143.468729 202.97918 142.052062 202.125014 140.677062 201.208347 C 139.296854 200.286472 137.968729 199.302097 136.687479 198.250013 C 135.406229 197.19793 134.18227 196.088555 133.010395 194.91668 C 131.83852 193.744805 130.729145 192.520846 129.677062 191.239596 C 128.630187 189.963554 127.640603 188.630221 126.723936 187.255221 C 125.802061 185.880221 124.953103 184.458346 124.171853 183.000012 C 123.390603 181.536471 122.682269 180.041679 122.046853 178.510429 C 121.416644 176.984387 120.859353 175.427095 120.374978 173.838553 C 119.895811 172.25522 119.494769 170.651053 119.171853 169.026053 C 118.848936 167.401053 118.604144 165.765636 118.442686 164.114594 C 118.281227 162.468761 118.197894 160.817719 118.197894 159.161469 C 118.197894 157.505219 118.281227 155.848969 118.442686 154.203135 C 118.604144 152.557302 118.848936 150.916677 119.171853 149.296885 C 119.494769 147.671885 119.895811 146.067718 120.374978 144.479176 C 120.859353 142.895843 121.416644 141.338551 122.046853 139.807301 C 122.682269 138.276051 123.390603 136.781259 124.171853 135.322926 C 124.953103 133.859384 125.802061 132.442717 126.723936 131.062509 C 127.640603 129.687509 128.630187 128.359384 129.677062 127.078134 C 130.729145 125.796883 131.83852 124.572925 133.010395 123.40105 C 134.18227 122.229175 135.406229 121.1198 136.687479 120.067716 C 137.968729 119.015633 139.296854 118.031258 140.677062 117.114591 C 142.052062 116.192716 143.468729 115.343758 144.932271 114.562508 C 146.390604 113.781258 147.885396 113.072924 149.416646 112.437508 C 150.947896 111.807299 152.505188 111.250007 154.088522 110.765632 C 155.677063 110.286466 157.28123 109.885424 158.90623 109.562507 C 160.53123 109.239591 162.166647 108.994799 163.812481 108.833341 C 165.463522 108.671882 167.114564 108.588549 168.770814 108.588549 C 170.427064 108.588549 172.078106 108.671882 173.729148 108.833341 C 175.374981 108.994799 177.010398 109.239591 178.635398 109.562507 C 180.260398 109.885424 181.864565 110.286466 183.447899 110.765632 C 185.03644 111.250007 186.593732 111.807299 188.119774 112.437508 C 189.651024 113.072924 191.145816 113.781258 192.609357 114.562508 C 194.067691 115.343758 195.489566 116.192716 196.864566 117.114591 C 198.244775 118.031258 199.5729 119.015633 200.848941 120.067716 C 202.130191 121.1198 203.359358 122.229175 204.526025 123.40105 C 205.6979 124.572925 206.812483 125.796883 207.859358 127.078134 C 208.911442 128.359384 209.895817 129.687509 210.817692 131.062509 C 211.739567 132.442717 212.588525 133.859384 213.369776 135.322926 C 214.151026 136.781259 214.854151 138.276051 215.489567 139.807301 C 216.124984 141.338551 216.682276 142.895843 217.161442 144.479176 C 217.645817 146.067718 218.046859 147.671885 218.369776 149.296885 C 218.692693 150.916677 218.932276 152.557302 219.098943 154.203135 C 219.260401 155.848969 219.338526 157.505219 219.338526 159.161469 Z M 219.338526 159.161469 " transform="matrix(-0.75,0,0,0.75,419.999977,0)"/><path style="fill:none;stroke-width:2;stroke-linecap:round;stroke-linejoin:round;stroke:#3a3836;stroke-opacity:1;stroke-miterlimit:4;" d="M 125.718728 185.697929 C 107.619768 207.437514 106.95831 293.697936 106.95831 293.697936 L 106.95831 367.281275 C 106.95831 368.552108 107.08331 369.807316 107.33331 371.052108 C 107.578102 372.2969 107.947893 373.510442 108.432268 374.682317 C 108.916644 375.854192 109.515602 376.968775 110.218727 378.026067 C 110.92706 379.07815 111.729144 380.057317 112.624977 380.953151 C 113.520811 381.854192 114.499977 382.656276 115.557269 383.359401 C 116.609352 384.067734 117.723936 384.661484 118.901019 385.145859 C 120.072894 385.635443 121.281228 386.000026 122.526019 386.250026 C 123.770811 386.494818 125.031228 386.619818 126.302061 386.619818 C 127.567686 386.619818 128.828103 386.494818 130.072895 386.250026 C 131.317687 386.000026 132.52602 385.635443 133.703104 385.145859 C 134.874979 384.661484 135.989562 384.067734 137.046854 383.359401 C 138.098937 382.656276 139.078104 381.854192 139.973937 380.953151 C 140.874979 380.057317 141.677062 379.07815 142.380187 378.026067 C 143.088521 376.968775 143.682271 375.854192 144.166646 374.682317 C 144.656229 373.510442 145.020813 372.2969 145.270813 371.052108 C 145.515604 369.807316 145.640604 368.552108 145.640604 367.281275 L 147.640604 317.020855 C 147.708313 313.020854 154.109355 313.270854 156.21873 313.270854 C 156.734355 313.270854 157.229147 313.364604 157.703105 313.552104 C 158.182272 313.744813 158.604147 314.015646 158.979147 314.364604 C 159.348939 314.718771 159.640605 315.130229 159.859355 315.593771 C 160.072897 316.057313 160.192689 316.546896 160.21873 317.062521 L 164.499981 363.479191 C 165.999981 375.9219 173.56769 383.921901 184.84894 384.062526 C 196.302066 384.187526 203.22915 372.479192 203.249983 361.062524 L 198.078108 277.947935 " transform="matrix(-0.75,0,0,0.75,419.999977,0)"/><path style="fill:none;stroke-width:2;stroke-linecap:round;stroke-linejoin:round;stroke:#3a3836;stroke-opacity:1;stroke-miterlimit:4;" d="M 198.630191 200.000013 C 200.177066 200.984388 201.8229 201.76043 203.567692 202.328139 C 210.567692 204.802097 225.208318 207.328139 247.947903 198.911472 C 248.807278 198.588555 249.687486 198.35418 250.588528 198.203138 C 251.494778 198.052097 252.401028 197.994805 253.317695 198.020847 C 254.234362 198.052097 255.135403 198.16668 256.031237 198.375013 C 256.921862 198.583347 257.786445 198.875013 258.619779 199.250013 C 259.453112 199.625013 260.244779 200.078138 260.98957 200.609388 C 261.73957 201.140638 262.42707 201.739597 263.052071 202.401055 C 263.682279 203.067722 264.239571 203.79168 264.729154 204.562514 C 265.213529 205.338555 265.624987 206.156264 265.947904 207.010431 C 266.249987 207.796889 266.473946 208.604181 266.630196 209.432306 C 266.781237 210.260431 266.859362 211.098972 266.859362 211.942723 C 266.864571 212.781264 266.791654 213.619806 266.640612 214.447931 C 266.494779 215.276056 266.270821 216.088556 265.979154 216.875015 C 265.682279 217.666681 265.317696 218.42189 264.885404 219.145848 C 264.458321 219.869806 263.963529 220.54689 263.411446 221.182306 C 262.854154 221.817723 262.249987 222.395848 261.588529 222.92189 C 260.932279 223.447932 260.234362 223.911473 259.48957 224.312515 C 249.098945 229.848974 227.208318 241.078141 197.062483 238.312516 " transform="matrix(-0.75,0,0,0.75,419.999977,0)"/><path style="fill:none;stroke-width:2;stroke-linecap:round;stroke-linejoin:round;stroke:#3a3836;stroke-opacity:1;stroke-miterlimit:4;" d="M 194.479149 203.29168 C 194.479149 203.29168 198.567691 220.000015 195.317691 243.859391 " transform="matrix(-0.75,0,0,0.75,419.999977,0)"/><path style="fill:none;stroke-width:2;stroke-linecap:round;stroke-linejoin:round;stroke:#3a3836;stroke-opacity:1;stroke-miterlimit:4;" d="M 196.999983 238.281266 C 196.999983 238.281266 208.281234 220.10939 203.552067 202.281264 " transform="matrix(-0.75,0,0,0.75,419.999977,0)"/><path style="fill:none;stroke-width:2;stroke-linecap:round;stroke-linejoin:round;stroke:#3a3836;stroke-opacity:1;stroke-miterlimit:4;" d="M 121.390603 192.750013 C 121.390603 192.750013 142.588521 207.291681 141.161437 225.947932 C 141.161437 225.947932 154.598938 243.281266 198.828108 245.250016 C 199.869775 245.296891 200.895816 245.442725 201.906233 245.687516 C 202.91665 245.932308 203.895817 246.27085 204.843733 246.697933 C 205.79165 247.130225 206.687483 247.64585 207.536442 248.250017 C 208.3854 248.854183 209.16665 249.531267 209.8854 250.281267 C 210.60415 251.036475 211.244775 251.848975 211.807275 252.723975 C 212.369775 253.598975 212.843734 254.52085 213.229151 255.484392 C 213.619776 256.453142 213.911442 257.447934 214.104151 258.468767 C 214.302067 259.489601 214.401026 260.520851 214.401026 261.562518 C 214.401026 262.635434 214.296859 263.697934 214.088526 264.750018 C 213.874984 265.802101 213.567692 266.822935 213.156234 267.812518 C 212.744775 268.802101 212.244775 269.74481 211.645817 270.635435 C 211.052067 271.531268 210.374984 272.354185 209.614567 273.114602 C 208.85415 273.875018 208.031234 274.552102 207.140608 275.145852 C 206.244775 275.74481 205.302067 276.24481 204.312483 276.656269 C 203.3229 277.067727 202.302066 277.375019 201.249983 277.58856 C 200.1979 277.796894 199.1354 277.90106 198.062483 277.90106 C 179.812482 277.90106 150.729146 275.687518 134.630187 263.067726 C 134.630187 263.067726 123.369769 257.791684 109.968727 243.859391 " transform="matrix(-0.75,0,0,0.75,419.999977,0)"/><path style="fill:none;stroke-width:2;stroke-linecap:round;stroke-linejoin:round;stroke:#3a3836;stroke-opacity:1;stroke-miterlimit:4;" d="M 146.937479 204.79168 C 146.937479 204.79168 153.041646 215.671889 147.359354 231.270849 " transform="matrix(-0.75,0,0,0.75,419.999977,0)"/><path style="fill:none;stroke-width:2;stroke-linecap:round;stroke-linejoin:round;stroke:#3a3836;stroke-opacity:1;stroke-miterlimit:4;" d="M 108.718727 257.000017 C 108.718727 257.000017 111.041644 261.000018 128.291645 259.291684 " transform="matrix(-0.75,0,0,0.75,419.999977,0)"/><path style="fill:none;stroke-width:2;stroke-linecap:round;stroke-linejoin:round;stroke:#3a3836;stroke-opacity:1;stroke-miterlimit:4;" d="M 124.802061 183.802096 L 116.291644 182.458346 C 109.48956 181.359387 104.510393 180.119804 100.23956 191.458346 C 95.510393 204.000014 92.380184 226.239599 89.802059 253.619809 C 88.619767 266.208351 96.187476 267.239601 103.73956 267.671893 L 107.479143 267.937518 " transform="matrix(-0.75,0,0,0.75,419.999977,0)"/><path style="fill:none;stroke-width:2;stroke-linecap:round;stroke-linejoin:round;stroke:#3a3836;stroke-opacity:1;stroke-miterlimit:4;" d="M 234.932277 367.317733 L 352.749993 397.119818 L 352.749993 341.437523 L 234.932277 315.567729 Z M 234.932277 367.317733 " transform="matrix(-0.75,0,0,0.75,419.999977,0)"/><path style="fill:none;stroke-width:2;stroke-linecap:round;stroke-linejoin:round;stroke:#3a3836;stroke-opacity:1;stroke-miterlimit:4;" d="M 388.411454 382.041692 L 352.749993 397.119818 " transform="matrix(-0.75,0,0,0.75,419.999977,0)"/><path style="fill:none;stroke-width:2;stroke-linecap:round;stroke-linejoin:round;stroke:#3a3836;stroke-opacity:1;stroke-miterlimit:4;" d="M 424.58854 320.682313 L 433.708332 318.052105 L 430.708332 364.161483 L 425.630206 366.312525 " transform="matrix(-0.75,0,0,0.75,419.999977,0)"/><path style="fill:none;stroke-width:2;stroke-linecap:round;stroke-linejoin:round;stroke:#3a3836;stroke-opacity:1;stroke-miterlimit:4;" d="M 288.229156 304.140645 L 234.932277 315.567729 " transform="matrix(-0.75,0,0,0.75,419.999977,0)"/><path style="fill:none;stroke-width:2;stroke-linecap:round;stroke-linejoin:round;stroke:#3a3836;stroke-opacity:1;stroke-miterlimit:4;" d="M 257.312487 272.36981 L 353.97916 291.067728 L 353.97916 318.052105 L 257.312487 297.598978 Z M 257.312487 272.36981 " transform="matrix(-0.75,0,0,0.75,419.999977,0)"/><path style="fill:none;stroke-width:2;stroke-linecap:round;stroke-linejoin:round;stroke:#3a3836;stroke-opacity:1;stroke-miterlimit:4;" d="M 353.97916 291.067728 L 434.708332 272.36981 L 430.708332 295.890645 L 353.97916 318.052105 " transform="matrix(-0.75,0,0,0.75,419.999977,0)"/><path style="fill:none;stroke-width:2;stroke-linecap:round;stroke-linejoin:round;stroke:#3a3836;stroke-opacity:1;stroke-miterlimit:4;" d="M 283.979155 236.359391 L 283.979155 255.380225 L 364.578119 271.36981 L 364.578119 250.317725 Z M 283.979155 236.359391 " transform="matrix(-0.75,0,0,0.75,419.999977,0)"/><path style="fill:none;stroke-width:2;stroke-linecap:round;stroke-linejoin:round;stroke:#3a3836;stroke-opacity:1;stroke-miterlimit:4;" d="M 364.578119 250.317725 L 440.828124 235.000016 L 437.828124 253.869809 L 364.578119 271.36981 " transform="matrix(-0.75,0,0,0.75,419.999977,0)"/><path style="fill:none;stroke-width:2;stroke-linecap:round;stroke-linejoin:round;stroke:#3a3836;stroke-opacity:1;stroke-miterlimit:4;" d="M 257.312487 272.36981 L 311.619782 261.859393 " transform="matrix(-0.75,0,0,0.75,419.999977,0)"/><path style="fill:none;stroke-width:2;stroke-linecap:round;stroke-linejoin:round;stroke:#3a3836;stroke-opacity:1;stroke-miterlimit:4;" d="M 434.708332 272.36981 L 381.708328 267.328143 " transform="matrix(-0.75,0,0,0.75,419.999977,0)"/><path style="fill:none;stroke-width:2;stroke-linecap:round;stroke-linejoin:round;stroke:#3a3836;stroke-opacity:1;stroke-miterlimit:4;" d="M 282.999989 325.328147 L 282.999989 314.312521 L 315.609366 321.151063 L 315.609366 333.291689 " transform="matrix(-0.75,0,0,0.75,419.999977,0)"/><path style="fill:none;stroke-width:2;stroke-linecap:round;stroke-linejoin:round;stroke:#3a3836;stroke-opacity:1;stroke-miterlimit:4;" d="M 315.609366 321.151063 L 330.619783 313.479188 L 330.619783 336.588564 " transform="matrix(-0.75,0,0,0.75,419.999977,0)"/><path style="fill:none;stroke-width:2;stroke-linecap:round;stroke-linejoin:round;stroke:#3a3836;stroke-opacity:1;stroke-miterlimit:4;" d="M 282.999989 314.312521 L 295.921864 305.770854 " transform="matrix(-0.75,0,0,0.75,419.999977,0)"/><path style="fill:none;stroke-width:2;stroke-linecap:round;stroke-linejoin:round;stroke:#3a3836;stroke-opacity:1;stroke-miterlimit:4;" d="M 336.838534 213.302098 L 371.109369 213.302098 L 371.109369 242.151058 L 336.838534 242.151058 Z M 336.838534 213.302098 " transform="matrix(-0.75,0,0,0.75,419.999977,0)"/><path style="fill:none;stroke-width:2;stroke-linecap:round;stroke-linejoin:round;stroke:#3a3836;stroke-opacity:1;stroke-miterlimit:4;" d="M 411.609372 225.541682 C 411.609372 226.630224 411.505205 227.713557 411.291664 228.781265 C 411.078122 229.854182 410.760414 230.89064 410.343747 231.901057 C 409.92708 232.906266 409.416664 233.864599 408.807289 234.776057 C 408.203122 235.682307 407.515622 236.520849 406.73958 237.291683 C 405.968747 238.062516 405.130205 238.755224 404.223955 239.359391 C 403.317705 239.963558 402.359372 240.479183 401.348955 240.895849 C 400.343746 241.312516 399.30208 241.630225 398.234371 241.838558 C 397.161455 242.0521 396.083329 242.161475 394.989579 242.161475 C 393.901038 242.161475 392.817704 242.0521 391.749996 241.838558 C 390.677079 241.630225 389.635412 241.312516 388.630204 240.895849 C 387.619787 240.479183 386.661454 239.963558 385.755204 239.359391 C 384.848954 238.755224 384.010412 238.062516 383.239579 237.291683 C 382.468745 236.520849 381.776037 235.682307 381.17187 234.776057 C 380.562495 233.864599 380.052078 232.906266 379.635412 231.901057 C 379.218745 230.89064 378.901037 229.854182 378.687495 228.781265 C 378.473953 227.713557 378.369787 226.630224 378.369787 225.541682 C 378.369787 224.447932 378.473953 223.369807 378.687495 222.29689 C 378.901037 221.229182 379.218745 220.187515 379.635412 219.182306 C 380.052078 218.17189 380.562495 217.213556 381.17187 216.307306 C 381.776037 215.401056 382.468745 214.557306 383.239579 213.786473 C 384.010412 213.015639 384.848954 212.328139 385.755204 211.718764 C 386.661454 211.114597 387.619787 210.604181 388.630204 210.187514 C 389.635412 209.765639 390.677079 209.453139 391.749996 209.239597 C 392.817704 209.026056 393.901038 208.921889 394.989579 208.921889 C 396.083329 208.921889 397.161455 209.026056 398.234371 209.239597 C 399.30208 209.453139 400.343746 209.765639 401.348955 210.187514 C 402.359372 210.604181 403.317705 211.114597 404.223955 211.718764 C 405.130205 212.328139 405.968747 213.015639 406.73958 213.786473 C 407.515622 214.557306 408.203122 215.401056 408.807289 216.307306 C 409.416664 217.213556 409.92708 218.17189 410.343747 219.182306 C 410.760414 220.187515 411.078122 221.229182 411.291664 222.29689 C 411.505205 223.369807 411.609372 224.447932 411.609372 225.541682 Z M 411.609372 225.541682 " transform="matrix(-0.75,0,0,0.75,419.999977,0)"/><path style="fill:none;stroke-width:2;stroke-linecap:round;stroke-linejoin:round;stroke:#3a3836;stroke-opacity:1;stroke-miterlimit:4;" d="M 410.95833 232.171891 L 440.828124 235.000016 " transform="matrix(-0.75,0,0,0.75,419.999977,0)"/><path style="fill:none;stroke-width:2;stroke-linecap:round;stroke-linejoin:round;stroke:#3a3836;stroke-opacity:1;stroke-miterlimit:4;" d="M 384.999995 325.000022 L 420.999998 315.541688 C 420.999998 315.541688 429.36979 315.541688 424.911456 376.541692 " transform="matrix(-0.75,0,0,0.75,419.999977,0)"/><path style="fill:none;stroke-width:2;stroke-linecap:round;stroke-linejoin:round;stroke:#3a3836;stroke-opacity:1;stroke-miterlimit:4;" d="M 395.541663 398.479193 L 430.937498 382.000026 L 432.828124 373.260442 L 398.911455 388.708359 L 397.999996 394.812526 C 397.906246 395.437527 397.70833 396.026068 397.406246 396.58336 C 397.098955 397.135443 396.708329 397.619818 396.229163 398.036485 C 395.749996 398.447943 395.213538 398.765652 394.619788 398.98961 C 394.026038 399.20836 393.411454 399.317735 392.781246 399.317735 C 392.416663 399.322943 392.052079 399.281277 391.697912 399.20836 C 391.338537 399.135443 390.994787 399.026068 390.656246 398.880235 C 390.322912 398.734402 390.005204 398.55211 389.708329 398.343777 C 389.411454 398.130235 389.140621 397.890652 388.890621 397.619818 C 388.645829 397.354193 388.427079 397.062527 388.239579 396.750027 C 388.052079 396.437527 387.901037 396.104193 387.781246 395.760443 C 387.661454 395.416693 387.578121 395.062526 387.531246 394.697943 C 387.489579 394.338568 387.479162 393.973985 387.510412 393.609401 C 389.947912 363.661483 392.562496 324.859397 384.848954 325.078147 C 384.848954 325.078147 380.499995 324.760438 379.848953 333.651064 " transform="matrix(-0.75,0,0,0.75,419.999977,0)"/><path style="fill-rule:nonzero;fill:#fd8753;fill-opacity:1;stroke-width:2;stroke-linecap:round;stroke-linejoin:round;stroke:#3a3836;stroke-opacity:1;stroke-miterlimit:4;" d="M 388.781246 331.031272 L 352.749993 341.437523 L 336.838534 337.947939 L 344.901034 326.38023 L 369.338536 326.38023 L 376.182286 334.671897 " transform="matrix(-0.75,0,0,0.75,419.999977,0)"/><g clip-rule="nonzero" clip-path="url(#240bebaa87)"><path style=" stroke:none;fill-rule:nonzero;fill:url(#linear0);" d="M 242.300781 144.488281 L 242.300781 166.898438 L 209.0625 166.898438 L 209.0625 144.488281 Z M 242.300781 144.488281 "/></g><path style="fill:none;stroke-width:2;stroke-linecap:round;stroke-linejoin:round;stroke:#3a3836;stroke-opacity:1;stroke-miterlimit:4;" d="M 236.932277 192.651055 L 281.249988 192.651055 L 281.249988 222.531265 L 236.932277 222.531265 Z M 236.932277 192.651055 " transform="matrix(-0.75,0,0,0.75,419.999977,0)"/><path style=" stroke:none;fill-rule:nonzero;fill:#3a3836;fill-opacity:1;" d="M 185.625 110.101562 L 185.625 122.03125 C 185.625 122.316406 185.597656 122.601562 185.542969 122.882812 C 185.484375 123.160156 185.402344 123.433594 185.292969 123.695312 C 185.183594 123.960938 185.050781 124.210938 184.890625 124.449219 C 184.734375 124.6875 184.554688 124.90625 184.351562 125.109375 C 184.148438 125.308594 183.929688 125.492188 183.691406 125.648438 C 183.453125 125.808594 183.203125 125.941406 182.941406 126.050781 C 182.675781 126.160156 182.402344 126.242188 182.125 126.300781 C 181.84375 126.355469 181.5625 126.382812 181.273438 126.382812 L 158.535156 126.382812 L 156.113281 134.257812 L 153.113281 134.257812 L 153.113281 110.101562 C 153.113281 109.8125 153.140625 109.53125 153.195312 109.25 C 153.25 108.972656 153.335938 108.699219 153.445312 108.433594 C 153.554688 108.171875 153.6875 107.921875 153.84375 107.683594 C 154.003906 107.445312 154.183594 107.226562 154.386719 107.023438 C 154.589844 106.820312 154.808594 106.640625 155.046875 106.484375 C 155.285156 106.324219 155.535156 106.191406 155.796875 106.082031 C 156.0625 105.972656 156.332031 105.890625 156.613281 105.832031 C 156.894531 105.777344 157.175781 105.75 157.460938 105.75 L 181.273438 105.75 C 181.5625 105.75 181.84375 105.777344 182.125 105.832031 C 182.402344 105.890625 182.675781 105.972656 182.941406 106.082031 C 183.203125 106.191406 183.453125 106.324219 183.691406 106.484375 C 183.929688 106.640625 184.148438 106.820312 184.351562 107.023438 C 184.554688 107.226562 184.734375 107.445312 184.890625 107.683594 C 185.050781 107.921875 185.183594 108.171875 185.292969 108.433594 C 185.402344 108.699219 185.484375 108.972656 185.542969 109.25 C 185.597656 109.53125 185.625 109.8125 185.625 110.101562 Z M 185.625 110.101562 "/><path style="fill-rule:nonzero;fill:#ffffff;fill-opacity:1;stroke-width:2;stroke-linecap:round;stroke-linejoin:round;stroke:#3a3836;stroke-opacity:1;stroke-miterlimit:4;" d="M 308.49999 147.770843 L 308.49999 163.671886 C 308.49999 164.052094 308.536449 164.427094 308.609365 164.802094 C 308.68749 165.177094 308.796865 165.536469 308.942699 165.890636 C 309.088532 166.239594 309.265615 166.578136 309.479157 166.890636 C 309.68749 167.208345 309.927074 167.500011 310.197907 167.770845 C 310.46874 168.041678 310.760407 168.281261 311.078115 168.494803 C 311.395824 168.703136 311.729157 168.88022 312.078115 169.026053 C 312.432282 169.171886 312.796866 169.28647 313.166657 169.359386 C 313.541657 169.432303 313.916657 169.468761 314.302074 169.468761 L 344.619784 169.468761 L 351.848951 178.010429 L 351.848951 147.770843 C 351.848951 147.390635 351.812493 147.010427 351.739576 146.640635 C 351.66666 146.265635 351.552076 145.901051 351.406243 145.552093 C 351.26041 145.197926 351.083326 144.864593 350.874993 144.546885 C 350.661451 144.229176 350.421868 143.93751 350.151035 143.666676 C 349.880201 143.401051 349.588535 143.161468 349.270826 142.947926 C 348.953118 142.734385 348.619785 142.557301 348.270826 142.411468 C 347.91666 142.265635 347.557285 142.15626 347.182285 142.083343 C 346.807284 142.005218 346.432284 141.96876 346.052076 141.96876 L 314.302074 141.96876 C 313.916657 141.96876 313.541657 142.005218 313.166657 142.078135 C 312.791657 142.15626 312.432282 142.265635 312.078115 142.40626 C 311.729157 142.552093 311.390615 142.734385 311.072907 142.942718 C 310.760407 143.15626 310.463532 143.395843 310.197907 143.666676 C 309.927074 143.93751 309.68749 144.229176 309.473949 144.546885 C 309.260407 144.864593 309.083324 145.197926 308.93749 145.546885 C 308.791657 145.901051 308.682282 146.265635 308.609365 146.635427 C 308.536449 147.010427 308.49999 147.390635 308.49999 147.770843 Z M 308.49999 147.770843 " transform="matrix(-0.75,0,0,0.75,419.999977,0)"/><path style="fill:none;stroke-width:2;stroke-linecap:round;stroke-linejoin:round;stroke:#3a3836;stroke-opacity:1;stroke-miterlimit:4;" d="M 317.317699 151.28126 L 341.312492 151.28126 " transform="matrix(-0.75,0,0,0.75,419.999977,0)"/><path style="fill:none;stroke-width:2;stroke-linecap:round;stroke-linejoin:round;stroke:#3a3836;stroke-opacity:1;stroke-miterlimit:4;" d="M 317.317699 158.281261 L 331.312492 158.281261 " transform="matrix(-0.75,0,0,0.75,419.999977,0)"/><path style="fill:none;stroke-width:2;stroke-linecap:round;stroke-linejoin:round;stroke:#3a3836;stroke-opacity:1;stroke-miterlimit:4;" d="M 283.979155 236.359391 L 336.838534 227.729182 " transform="matrix(-0.75,0,0,0.75,419.999977,0)"/><path style="fill:none;stroke-width:2;stroke-linecap:round;stroke-linejoin:round;stroke:#3a3836;stroke-opacity:1;stroke-miterlimit:4;" d="M 371.109369 225.541682 L 378.369787 225.541682 " transform="matrix(-0.75,0,0,0.75,419.999977,0)"/><path style="fill:none;stroke-width:2;stroke-linecap:round;stroke-linejoin:round;stroke:#3a3836;stroke-opacity:1;stroke-miterlimit:4;" d="M 348.44791 223.010432 L 343.520826 227.937515 L 348.098951 232.520849 " transform="matrix(-0.75,0,0,0.75,419.999977,0)"/><path style="fill:none;stroke-width:2;stroke-linecap:round;stroke-linejoin:round;stroke:#3a3836;stroke-opacity:1;stroke-miterlimit:4;" d="M 358.401035 232.520849 L 363.328119 227.588557 L 358.749994 223.010432 " transform="matrix(-0.75,0,0,0.75,419.999977,0)"/><path style="fill:none;stroke-width:2;stroke-linecap:round;stroke-linejoin:round;stroke:#3a3836;stroke-opacity:1;stroke-miterlimit:4;" d="M 354.348952 223.250015 L 352.499993 232.281266 " transform="matrix(-0.75,0,0,0.75,419.999977,0)"/><path style="fill-rule:nonzero;fill:#d1dafa;fill-opacity:1;stroke-width:2;stroke-linecap:round;stroke-linejoin:round;stroke:#3a3836;stroke-opacity:1;stroke-miterlimit:4;" d="M 364.578119 288.619811 L 344.218743 267.328143 L 302.791657 274.052102 L 309.630199 282.489602 L 353.97916 291.067728 Z M 364.578119 288.619811 " transform="matrix(-0.75,0,0,0.75,419.999977,0)"/><path style="fill:none;stroke-width:2;stroke-linecap:round;stroke-linejoin:round;stroke:#3a3836;stroke-opacity:1;stroke-miterlimit:4;" d="M 302.791657 274.052102 L 302.791657 280.229185 " transform="matrix(-0.75,0,0,0.75,419.999977,0)"/><path style="fill:none;stroke-width:2;stroke-linecap:round;stroke-linejoin:round;stroke:#3a3836;stroke-opacity:1;stroke-miterlimit:4;" d="M 379.880203 285.067727 C 370.161453 274.718768 356.22916 279.890644 356.22916 279.890644 L 364.578119 287.552103 Z M 379.880203 285.067727 " transform="matrix(-0.75,0,0,0.75,419.999977,0)"/><path style="fill:none;stroke-width:2;stroke-linecap:round;stroke-linejoin:round;stroke:#3a3836;stroke-opacity:1;stroke-miterlimit:4;" d="M 397.27083 338.901064 L 418.260414 333.291689 " transform="matrix(-0.75,0,0,0.75,419.999977,0)"/><path style="fill:none;stroke-width:2;stroke-linecap:round;stroke-linejoin:round;stroke:#3a3836;stroke-opacity:1;stroke-miterlimit:4;" d="M 405.651038 345.932315 L 418.260414 342.29169 " transform="matrix(-0.75,0,0,0.75,419.999977,0)"/><path style="fill:none;stroke-width:2;stroke-linecap:round;stroke-linejoin:round;stroke:#3a3836;stroke-opacity:1;stroke-miterlimit:4;" d="M 406.651038 353.932315 L 419.260414 350.29169 " transform="matrix(-0.75,0,0,0.75,419.999977,0)"/><path style="fill:none;stroke-width:2;stroke-linecap:round;stroke-linejoin:round;stroke:#3a3836;stroke-opacity:1;stroke-miterlimit:4;" d="M 406.651038 362.932316 L 419.260414 359.291691 " transform="matrix(-0.75,0,0,0.75,419.999977,0)"/><path style="fill-rule:nonzero;fill:#ffffff;fill-opacity:1;stroke-width:2;stroke-linecap:butt;stroke-linejoin:miter;stroke:#3a3836;stroke-opacity:1;stroke-miterlimit:4;" d="M 276.65103 200.29168 C 276.65103 200.687513 276.572905 201.07293 276.421863 201.437514 C 276.270821 201.807305 276.052071 202.130222 275.770821 202.411472 C 275.489571 202.692722 275.166655 202.911472 274.796863 203.062514 C 274.43228 203.213555 274.046863 203.29168 273.65103 203.29168 C 273.249988 203.29168 272.86978 203.213555 272.499988 203.062514 C 272.135404 202.911472 271.812488 202.692722 271.531238 202.411472 C 271.244779 202.130222 271.031238 201.807305 270.880196 201.437514 C 270.723946 201.07293 270.651029 200.687513 270.651029 200.29168 C 270.651029 199.890638 270.723946 199.51043 270.880196 199.140638 C 271.031238 198.776055 271.244779 198.44793 271.531238 198.16668 C 271.812488 197.88543 272.135404 197.671888 272.499988 197.520847 C 272.86978 197.364597 273.249988 197.29168 273.65103 197.29168 C 274.046863 197.29168 274.43228 197.364597 274.796863 197.520847 C 275.166655 197.671888 275.489571 197.88543 275.770821 198.16668 C 276.052071 198.44793 276.270821 198.776055 276.421863 199.140638 C 276.572905 199.51043 276.65103 199.890638 276.65103 200.29168 Z M 276.65103 200.29168 " transform="matrix(-0.75,0,0,0.75,419.999977,0)"/><path style="fill:none;stroke-width:2;stroke-linecap:round;stroke-linejoin:round;stroke:#3a3836;stroke-opacity:1;stroke-miterlimit:4;" d="M 249.249986 210.338556 L 249.249986 222.541682 " transform="matrix(-0.75,0,0,0.75,419.999977,0)"/><path style="fill:none;stroke-width:2;stroke-linecap:round;stroke-linejoin:round;stroke:#3a3836;stroke-opacity:1;stroke-miterlimit:4;" d="M 255.380195 210.338556 L 255.380195 222.541682 " transform="matrix(-0.75,0,0,0.75,419.999977,0)"/><path style="fill:none;stroke-width:2;stroke-linecap:round;stroke-linejoin:round;stroke:#3a3836;stroke-opacity:1;stroke-miterlimit:4;" d="M 243.119778 210.338556 L 243.119778 222.541682 " transform="matrix(-0.75,0,0,0.75,419.999977,0)"/><path style=" stroke:none;fill-rule:nonzero;fill:#3a3836;fill-opacity:1;" d="M 123.878906 163.246094 C 123.878906 163.5 123.925781 163.75 124.023438 163.984375 C 124.121094 164.222656 124.261719 164.433594 124.445312 164.613281 C 124.625 164.792969 124.835938 164.933594 125.070312 165.03125 C 125.308594 165.132812 125.554688 165.179688 125.8125 165.179688 C 126.070312 165.179688 126.316406 165.132812 126.554688 165.03125 C 126.789062 164.933594 127 164.792969 127.179688 164.613281 C 127.363281 164.433594 127.503906 164.222656 127.601562 163.984375 C 127.699219 163.75 127.746094 163.5 127.746094 163.246094 C 127.746094 162.988281 127.699219 162.742188 127.601562 162.503906 C 127.503906 162.265625 127.363281 162.058594 127.179688 161.875 C 127 161.695312 126.789062 161.554688 126.554688 161.457031 C 126.316406 161.359375 126.070312 161.308594 125.8125 161.308594 C 125.554688 161.308594 125.308594 161.359375 125.070312 161.457031 C 124.835938 161.554688 124.625 161.695312 124.445312 161.875 C 124.261719 162.058594 124.121094 162.265625 124.023438 162.503906 C 123.925781 162.742188 123.878906 162.988281 123.878906 163.246094 Z M 123.878906 163.246094 "/><path style=" stroke:none;fill-rule:nonzero;fill:#3a3836;fill-opacity:1;" d="M 123.878906 175.996094 C 123.878906 176.25 123.925781 176.5 124.023438 176.734375 C 124.121094 176.972656 124.261719 177.183594 124.445312 177.363281 C 124.625 177.542969 124.835938 177.683594 125.070312 177.78125 C 125.308594 177.882812 125.554688 177.929688 125.8125 177.929688 C 126.070312 177.929688 126.316406 177.882812 126.554688 177.78125 C 126.789062 177.683594 127 177.542969 127.179688 177.363281 C 127.363281 177.183594 127.503906 176.972656 127.601562 176.734375 C 127.699219 176.5 127.746094 176.25 127.746094 175.996094 C 127.746094 175.738281 127.699219 175.492188 127.601562 175.253906 C 127.503906 175.015625 127.363281 174.808594 127.179688 174.625 C 127 174.445312 126.789062 174.304688 126.554688 174.207031 C 126.316406 174.109375 126.070312 174.058594 125.8125 174.058594 C 125.554688 174.058594 125.308594 174.109375 125.070312 174.207031 C 124.835938 174.304688 124.625 174.445312 124.445312 174.625 C 124.261719 174.808594 124.121094 175.015625 124.023438 175.253906 C 123.925781 175.492188 123.878906 175.738281 123.878906 175.996094 Z M 123.878906 175.996094 "/><path style=" stroke:none;fill-rule:nonzero;fill:#3a3836;fill-opacity:1;" d="M 117.21875 163.246094 C 117.21875 163.5 117.265625 163.75 117.363281 163.984375 C 117.464844 164.222656 117.601562 164.433594 117.785156 164.613281 C 117.964844 164.792969 118.175781 164.933594 118.410156 165.03125 C 118.648438 165.132812 118.894531 165.179688 119.152344 165.179688 C 119.410156 165.179688 119.65625 165.132812 119.894531 165.03125 C 120.128906 164.933594 120.339844 164.792969 120.519531 164.613281 C 120.703125 164.433594 120.84375 164.222656 120.941406 163.984375 C 121.039062 163.75 121.085938 163.5 121.085938 163.246094 C 121.085938 162.988281 121.039062 162.742188 120.941406 162.503906 C 120.84375 162.265625 120.703125 162.058594 120.519531 161.875 C 120.339844 161.695312 120.128906 161.554688 119.894531 161.457031 C 119.65625 161.359375 119.410156 161.308594 119.152344 161.308594 C 118.894531 161.308594 118.648438 161.359375 118.410156 161.457031 C 118.175781 161.554688 117.964844 161.695312 117.785156 161.875 C 117.601562 162.058594 117.464844 162.265625 117.363281 162.503906 C 117.265625 162.742188 117.21875 162.988281 117.21875 163.246094 Z M 117.21875 163.246094 "/><path style="fill:none;stroke-width:2;stroke-linecap:round;stroke-linejoin:round;stroke:#3a3836;stroke-opacity:1;stroke-miterlimit:4;" d="M 392.249996 218.380223 L 392.249996 234.229182 " transform="matrix(-0.75,0,0,0.75,419.999977,0)"/><path style="fill:none;stroke-width:2;stroke-linecap:round;stroke-linejoin:round;stroke:#3a3836;stroke-opacity:1;stroke-miterlimit:4;" d="M 392.249996 227.541682 L 395.729163 227.541682 C 396.083329 227.541682 396.437496 227.505224 396.781246 227.437515 C 397.130205 227.364599 397.468746 227.26564 397.796871 227.130224 C 398.124996 226.994807 398.437496 226.82814 398.729163 226.630224 C 399.026038 226.432307 399.296871 226.208349 399.546871 225.958348 C 399.796871 225.708348 400.02083 225.432307 400.218746 225.14064 C 400.416663 224.843765 400.58333 224.536473 400.718746 224.208348 C 400.854163 223.880223 400.95833 223.541682 401.026038 223.192723 C 401.093746 222.843765 401.130205 222.494807 401.130205 222.14064 L 401.130205 219.39064 " transform="matrix(-0.75,0,0,0.75,419.999977,0)"/><path style="fill:none;stroke-width:2;stroke-linecap:round;stroke-linejoin:round;stroke:#3a3836;stroke-opacity:1;stroke-miterlimit:4;" d="M 350.328118 213.302098 L 354.531243 204.020847 C 354.776035 203.473972 355.10416 202.97918 355.51041 202.536472 C 355.911452 202.088555 356.374993 201.718764 356.895827 201.421889 C 357.41666 201.119805 357.968744 200.911472 358.552077 200.786472 C 359.140619 200.661472 359.734369 200.630222 360.328119 200.687513 L 475.16146 212.479181 C 475.614585 212.526056 476.057293 212.625014 476.489585 212.781264 C 476.921877 212.932306 477.328127 213.135431 477.713543 213.385431 C 478.093752 213.635431 478.44271 213.927098 478.75521 214.260431 C 479.06771 214.593764 479.338543 214.963556 479.562502 215.359389 C 479.78646 215.760431 479.963543 216.177098 480.088543 216.619806 C 480.213543 217.062515 480.281252 217.510431 480.296877 217.968765 C 480.312502 218.427098 480.276043 218.880223 480.182293 219.32814 C 480.088543 219.776056 479.947918 220.208348 479.750002 220.619806 L 433.749999 318.052105 L 386.999996 308.901062 " transform="matrix(-0.75,0,0,0.75,419.999977,0)"/><path style="fill:none;stroke-width:2;stroke-linecap:round;stroke-linejoin:round;stroke:#3a3836;stroke-opacity:1;stroke-miterlimit:4;" d="M 432.86979 342.000023 L 440.671874 342.140648 C 441.645833 342.218773 442.619791 342.223981 443.593749 342.156273 C 444.567708 342.083356 445.531249 341.937523 446.484374 341.718773 C 447.4375 341.494815 448.364583 341.203148 449.270833 340.838565 C 450.177083 340.473981 451.052083 340.041689 451.890625 339.536481 C 452.729167 339.036481 453.526042 338.473981 454.276042 337.848981 C 455.026042 337.223981 455.729167 336.541689 456.375 335.807314 C 457.020834 335.078147 457.604167 334.296897 458.130209 333.473981 C 458.651042 332.645856 459.109375 331.786481 459.5 330.890647 L 497.182295 248.187517 C 497.562503 247.312517 497.875003 246.406267 498.119795 245.479183 C 498.359378 244.5521 498.531253 243.609391 498.625003 242.656266 C 498.718753 241.703141 498.739586 240.744808 498.682295 239.786474 C 498.625003 238.828141 498.494795 237.880224 498.29167 236.947933 C 498.088545 236.010432 497.807295 235.093766 497.458336 234.197932 C 497.114586 233.307307 496.69792 232.442724 496.213545 231.614599 C 495.729169 230.786474 495.182294 230.005224 494.572919 229.260432 C 493.968753 228.520849 493.307294 227.82814 492.588544 227.187515 L 478.13021 213.671889 " transform="matrix(-0.75,0,0,0.75,419.999977,0)"/><path style="fill:none;stroke-width:2;stroke-linecap:round;stroke-linejoin:round;stroke:#3a3836;stroke-opacity:1;stroke-miterlimit:4;" d="M 216.578109 149.640635 C 208.546859 147.890635 200.41665 147.161468 192.197899 147.43751 C 172.291648 148.052093 163.781231 155.541677 160.302064 160.588552 C 158.619772 163.020844 158.239564 168.000011 158.510397 170.937511 C 159.380189 180.182304 160.020814 202.270847 200.838525 201.937514 " transform="matrix(-0.75,0,0,0.75,419.999977,0)"/><path style=" stroke:none;fill-rule:nonzero;fill:#ff6c37;fill-opacity:0.4941;" d="M 286.214844 76.117188 C 285.964844 76.367188 285.691406 76.589844 285.398438 76.789062 C 285.105469 76.984375 284.792969 77.148438 284.46875 77.285156 C 284.140625 77.421875 283.804688 77.523438 283.457031 77.59375 C 283.109375 77.660156 282.761719 77.695312 282.40625 77.695312 C 282.054688 77.695312 281.703125 77.660156 281.355469 77.59375 C 281.007812 77.523438 280.671875 77.421875 280.347656 77.285156 C 280.019531 77.152344 279.707031 76.984375 279.414062 76.789062 C 279.121094 76.59375 278.847656 76.371094 278.597656 76.121094 C 278.347656 75.871094 278.125 75.597656 277.929688 75.304688 C 277.730469 75.007812 277.566406 74.699219 277.429688 74.371094 C 277.296875 74.046875 277.191406 73.707031 277.125 73.363281 C 277.054688 73.015625 277.019531 72.664062 277.019531 72.3125 C 277.019531 71.957031 277.054688 71.605469 277.125 71.261719 C 277.191406 70.914062 277.296875 70.578125 277.429688 70.25 C 277.566406 69.921875 277.730469 69.613281 277.929688 69.320312 C 278.125 69.023438 278.347656 68.753906 278.597656 68.503906 C 278.847656 68.253906 279.121094 68.03125 279.414062 67.832031 C 279.707031 67.636719 280.019531 67.472656 280.347656 67.335938 C 280.671875 67.199219 281.007812 67.097656 281.355469 67.03125 C 281.703125 66.960938 282.054688 66.925781 282.40625 66.925781 C 282.761719 66.925781 283.109375 66.960938 283.457031 67.03125 C 283.804688 67.097656 284.140625 67.203125 284.46875 67.335938 C 284.792969 67.472656 285.105469 67.636719 285.398438 67.835938 C 285.691406 68.03125 285.964844 68.253906 286.214844 68.503906 C 286.464844 68.753906 286.6875 69.027344 286.886719 69.320312 C 287.082031 69.613281 287.246094 69.925781 287.382812 70.25 C 287.519531 70.578125 287.621094 70.914062 287.691406 71.261719 C 287.757812 71.609375 287.792969 71.957031 287.792969 72.3125 C 287.792969 72.664062 287.757812 73.015625 287.691406 73.363281 C 287.621094 73.707031 287.519531 74.046875 287.382812 74.371094 C 287.246094 74.699219 287.082031 75.007812 286.886719 75.300781 C 286.6875 75.597656 286.464844 75.867188 286.214844 76.117188 Z M 286.214844 76.117188 "/><path style="fill-rule:nonzero;fill:#fd8753;fill-opacity:1;stroke-width:2;stroke-linecap:butt;stroke-linejoin:miter;stroke:#3a3836;stroke-opacity:1;stroke-miterlimit:10;" d="M 178.38019 101.48959 C 178.713523 101.822923 179.078107 102.119799 179.468732 102.385424 C 179.859357 102.64584 180.276023 102.86459 180.708315 103.046882 C 181.145815 103.229174 181.593732 103.36459 182.057273 103.45834 C 182.520815 103.546882 182.984357 103.593757 183.458315 103.593757 C 183.927065 103.593757 184.395815 103.546882 184.859357 103.45834 C 185.322899 103.36459 185.770815 103.229174 186.203107 103.046882 C 186.640607 102.869799 187.057274 102.64584 187.447899 102.385424 C 187.838524 102.125007 188.203107 101.828132 188.536441 101.494798 C 188.869774 101.161465 189.166649 100.796882 189.427066 100.406257 C 189.692691 100.010423 189.911441 99.598965 190.093732 99.161465 C 190.270816 98.729173 190.411441 98.276048 190.499982 97.817715 C 190.593732 97.354173 190.640607 96.885423 190.640607 96.416673 C 190.640607 95.942715 190.593732 95.473965 190.499982 95.015631 C 190.411441 94.55209 190.270816 94.104173 190.093732 93.666673 C 189.911441 93.229173 189.692691 92.817715 189.427066 92.42709 C 189.166649 92.031256 188.869774 91.671881 188.536441 91.338548 C 188.203107 91.005214 187.838524 90.708339 187.447899 90.442714 C 187.057274 90.182298 186.640607 89.963548 186.203107 89.781256 C 185.770815 89.598964 185.322899 89.463548 184.859357 89.375006 C 184.395815 89.281256 183.927065 89.234381 183.458315 89.234381 C 182.984357 89.234381 182.520815 89.281256 182.057273 89.375006 C 181.593732 89.463548 181.145815 89.604173 180.708315 89.781256 C 180.276023 89.963548 179.859357 90.182298 179.468732 90.447923 C 179.078107 90.708339 178.713523 91.005214 178.38019 91.338548 C 178.046856 91.671881 177.749981 92.036465 177.484356 92.42709 C 177.22394 92.817715 177.00519 93.234381 176.822898 93.666673 C 176.640606 94.104173 176.50519 94.55209 176.41144 95.015631 C 176.322898 95.479173 176.276023 95.942715 176.276023 96.416673 C 176.276023 96.885423 176.322898 97.354173 176.41144 97.817715 C 176.50519 98.276048 176.640606 98.729173 176.822898 99.161465 C 177.00519 99.598965 177.22394 100.010423 177.484356 100.401048 C 177.749981 100.796882 178.046856 101.156257 178.38019 101.48959 Z M 178.38019 101.48959 " transform="matrix(-0.75,0,0,0.75,419.999977,0)"/><path style="fill:none;stroke-width:2;stroke-linecap:round;stroke-linejoin:round;stroke:#3a3836;stroke-opacity:1;stroke-miterlimit:4;" d="M 182.062482 103.500007 L 180.479148 109.791674 " transform="matrix(-0.75,0,0,0.75,419.999977,0)"/><path style="fill:none;stroke-width:2;stroke-linecap:round;stroke-linejoin:round;stroke:#3a3836;stroke-opacity:1;stroke-miterlimit:4;" d="M 137.40102 166.81772 C 137.895812 166.81772 138.390604 166.770845 138.880187 166.671886 C 139.364562 166.578136 139.838521 166.432303 140.302062 166.244803 C 140.760396 166.052094 141.197896 165.817719 141.609354 165.541678 C 142.026021 165.265636 142.406229 164.953136 142.760396 164.598969 C 143.109354 164.250011 143.427063 163.864594 143.703104 163.453136 C 143.979146 163.036469 144.213521 162.598969 144.401021 162.140636 C 144.593729 161.682303 144.739563 161.208344 144.833313 160.718761 C 144.932271 160.229177 144.979146 159.739594 144.979146 159.239594 C 144.979146 158.744802 144.932271 158.250011 144.833313 157.760427 C 144.739563 157.270844 144.593729 156.796886 144.401021 156.338552 C 144.213521 155.880219 143.979146 155.442719 143.703104 155.03126 C 143.427063 154.614594 143.109354 154.234385 142.760396 153.880219 C 142.406229 153.526052 142.026021 153.213552 141.609354 152.93751 C 141.197896 152.661469 140.760396 152.427094 140.302062 152.234385 C 139.838521 152.046885 139.364562 151.901052 138.880187 151.807302 C 138.390604 151.708344 137.895812 151.661469 137.40102 151.661469 C 136.90102 151.661469 136.411437 151.708344 135.921854 151.807302 C 135.43227 151.901052 134.958312 152.046885 134.499979 152.234385 C 134.041645 152.427094 133.604145 152.661469 133.187478 152.93751 C 132.77602 153.213552 132.390603 153.526052 132.041645 153.880219 C 131.687478 154.234385 131.374978 154.614594 131.098937 155.03126 C 130.822895 155.442719 130.58852 155.880219 130.395812 156.338552 C 130.208312 156.796886 130.062478 157.270844 129.96352 157.760427 C 129.86977 158.250011 129.817687 158.744802 129.817687 159.239594 C 129.817687 159.739594 129.86977 160.229177 129.96352 160.718761 C 130.062478 161.208344 130.208312 161.682303 130.395812 162.140636 C 130.58852 162.598969 130.822895 163.036469 131.098937 163.453136 C 131.374978 163.864594 131.687478 164.250011 132.041645 164.598969 C 132.390603 164.953136 132.77602 165.265636 133.187478 165.541678 C 133.604145 165.817719 134.041645 166.052094 134.499979 166.244803 C 134.958312 166.432303 135.43227 166.578136 135.921854 166.671886 C 136.411437 166.770845 136.90102 166.81772 137.40102 166.81772 Z M 137.40102 166.81772 " transform="matrix(-0.75,0,0,0.75,419.999977,0)"/><path style="fill-rule:nonzero;fill:#ffffff;fill-opacity:1;stroke-width:2;stroke-linecap:round;stroke-linejoin:round;stroke:#3a3836;stroke-opacity:1;stroke-miterlimit:4;" d="M 267.510404 261.859393 L 275.531238 259.348976 " transform="matrix(-0.75,0,0,0.75,419.999977,0)"/><path style="fill-rule:nonzero;fill:#ffffff;fill-opacity:1;stroke-width:2;stroke-linecap:round;stroke-linejoin:round;stroke:#3a3836;stroke-opacity:1;stroke-miterlimit:4;" d="M 271.520821 260.989601 L 276.921863 275.937519 " transform="matrix(-0.75,0,0,0.75,419.999977,0)"/><path style="fill:none;stroke-width:2;stroke-linecap:round;stroke-linejoin:round;stroke:#3a3836;stroke-opacity:1;stroke-miterlimit:4;" d="M 179.697898 217.937515 L 188.218732 217.937515 C 188.468732 217.937515 188.682274 218.026056 188.854149 218.20314 C 189.031232 218.380223 189.119774 218.593765 189.119774 218.838556 L 189.119774 227.651057 C 189.119774 227.901057 189.031232 228.10939 188.854149 228.286474 C 188.682274 228.463557 188.468732 228.552099 188.218732 228.552099 L 179.697898 228.552099 C 179.453107 228.552099 179.239565 228.463557 179.062482 228.286474 C 178.885398 228.10939 178.802065 227.901057 178.802065 227.651057 L 178.802065 218.838556 C 178.802065 218.593765 178.885398 218.380223 179.062482 218.20314 C 179.239565 218.026056 179.453107 217.937515 179.697898 217.937515 Z M 179.697898 217.937515 " transform="matrix(-0.75,0,0,0.75,419.999977,0)"/><path style="fill:none;stroke-width:2;stroke-linecap:round;stroke-linejoin:round;stroke:#3a3836;stroke-opacity:1;stroke-miterlimit:4;" d="M 392.859371 202.911472 L 395.838538 194.088555 L 457.239584 200.161472 L 454.078125 208.911472 " transform="matrix(-0.75,0,0,0.75,419.999977,0)"/><path style=" stroke:none;fill-rule:nonzero;fill:#3a3836;fill-opacity:1;" d="M 135.089844 250.199219 L 128.691406 247.835938 C 128.691406 247.835938 129.441406 242.355469 133.371094 244.351562 Z M 135.089844 250.199219 "/><path style=" stroke:none;fill-rule:nonzero;fill:#3a3836;fill-opacity:1;" d="M 94.671875 118.613281 C 94.671875 119.140625 94.699219 119.671875 94.75 120.199219 C 94.800781 120.722656 94.878906 121.246094 94.984375 121.765625 C 95.085938 122.285156 95.214844 122.800781 95.367188 123.304688 C 95.523438 123.8125 95.699219 124.3125 95.902344 124.800781 C 96.105469 125.289062 96.332031 125.769531 96.582031 126.234375 C 96.832031 126.703125 97.101562 127.15625 97.398438 127.597656 C 97.691406 128.035156 98.007812 128.460938 98.34375 128.871094 C 98.679688 129.28125 99.035156 129.671875 99.410156 130.046875 C 99.78125 130.421875 100.175781 130.777344 100.585938 131.113281 C 100.992188 131.449219 101.417969 131.761719 101.859375 132.058594 C 102.300781 132.351562 102.753906 132.625 103.21875 132.875 C 103.6875 133.121094 104.164062 133.347656 104.65625 133.550781 C 105.144531 133.753906 105.640625 133.933594 106.148438 134.085938 C 106.65625 134.238281 107.167969 134.367188 107.6875 134.472656 C 108.207031 134.574219 108.730469 134.652344 109.257812 134.703125 C 109.785156 134.757812 110.3125 134.78125 110.84375 134.78125 C 111.371094 134.78125 111.898438 134.757812 112.425781 134.703125 C 112.953125 134.652344 113.476562 134.574219 113.996094 134.472656 C 114.515625 134.367188 115.03125 134.238281 115.535156 134.085938 C 116.042969 133.933594 116.542969 133.753906 117.03125 133.550781 C 117.519531 133.347656 117.996094 133.121094 118.464844 132.875 C 118.933594 132.625 119.386719 132.351562 119.824219 132.058594 C 120.265625 131.761719 120.691406 131.449219 121.101562 131.113281 C 121.511719 130.777344 121.902344 130.421875 122.277344 130.046875 C 122.652344 129.671875 123.007812 129.28125 123.34375 128.871094 C 123.679688 128.460938 123.992188 128.035156 124.289062 127.597656 C 124.582031 127.15625 124.855469 126.703125 125.101562 126.234375 C 125.351562 125.769531 125.578125 125.289062 125.78125 124.800781 C 125.984375 124.3125 126.164062 123.8125 126.316406 123.304688 C 126.46875 122.800781 126.597656 122.285156 126.703125 121.765625 C 126.804688 121.246094 126.882812 120.722656 126.933594 120.199219 C 126.988281 119.671875 127.011719 119.140625 127.011719 118.613281 C 127.011719 118.082031 126.988281 117.554688 126.933594 117.027344 C 126.882812 116.5 126.804688 115.976562 126.703125 115.457031 C 126.597656 114.9375 126.46875 114.425781 126.316406 113.917969 C 126.164062 113.410156 125.984375 112.914062 125.78125 112.425781 C 125.578125 111.933594 125.351562 111.457031 125.101562 110.988281 C 124.855469 110.523438 124.582031 110.070312 124.289062 109.628906 C 123.992188 109.1875 123.679688 108.765625 123.34375 108.355469 C 123.007812 107.945312 122.652344 107.554688 122.277344 107.179688 C 121.902344 106.804688 121.511719 106.449219 121.101562 106.113281 C 120.691406 105.777344 120.265625 105.460938 119.824219 105.167969 C 119.386719 104.875 118.933594 104.601562 118.464844 104.351562 C 117.996094 104.101562 117.519531 103.875 117.03125 103.671875 C 116.542969 103.46875 116.042969 103.292969 115.535156 103.140625 C 115.03125 102.984375 114.515625 102.855469 113.996094 102.753906 C 113.476562 102.648438 112.953125 102.574219 112.425781 102.519531 C 111.898438 102.46875 111.371094 102.441406 110.84375 102.441406 C 110.3125 102.441406 109.785156 102.46875 109.257812 102.519531 C 108.730469 102.574219 108.207031 102.648438 107.6875 102.753906 C 107.167969 102.855469 106.65625 102.984375 106.148438 103.140625 C 105.640625 103.292969 105.144531 103.46875 104.65625 103.671875 C 104.164062 103.875 103.6875 104.101562 103.21875 104.351562 C 102.753906 104.601562 102.300781 104.875 101.859375 105.167969 C 101.417969 105.460938 100.992188 105.777344 100.585938 106.113281 C 100.175781 106.449219 99.78125 106.804688 99.410156 107.179688 C 99.035156 107.554688 98.679688 107.945312 98.34375 108.355469 C 98.007812 108.765625 97.691406 109.1875 97.398438 109.628906 C 97.101562 110.070312 96.832031 110.523438 96.582031 110.988281 C 96.332031 111.457031 96.105469 111.933594 95.902344 112.425781 C 95.699219 112.914062 95.523438 113.410156 95.367188 113.917969 C 95.214844 114.425781 95.085938 114.9375 94.984375 115.457031 C 94.878906 115.976562 94.800781 116.5 94.75 117.027344 C 94.699219 117.554688 94.671875 118.082031 94.671875 118.613281 Z M 94.671875 118.613281 "/><path style="fill-rule:nonzero;fill:#ffffff;fill-opacity:1;stroke-width:2;stroke-linecap:round;stroke-linejoin:round;stroke:#3a3836;stroke-opacity:1;stroke-miterlimit:4;" d="M 429.770832 157.151052 C 429.770832 157.854177 429.734373 158.562511 429.666665 159.265636 C 429.598957 159.963552 429.49479 160.661469 429.354165 161.354177 C 429.218748 162.046886 429.046873 162.734386 428.843748 163.406261 C 428.635415 164.083344 428.40104 164.750011 428.130207 165.401053 C 427.859373 166.052094 427.55729 166.69272 427.223957 167.312511 C 426.890623 167.937511 426.531248 168.541678 426.135415 169.13022 C 425.74479 169.713553 425.322915 170.281261 424.874998 170.828136 C 424.427081 171.375011 423.953123 171.895845 423.453123 172.395845 C 422.958331 172.895845 422.43229 173.369803 421.885415 173.81772 C 421.343748 174.265637 420.776039 174.682303 420.187498 175.078137 C 419.598956 175.468762 418.994789 175.833345 418.374998 176.166678 C 417.749998 176.494804 417.114581 176.796887 416.458331 177.06772 C 415.807289 177.338554 415.145831 177.578137 414.468747 177.781262 C 413.791664 177.984387 413.109372 178.156262 412.416664 178.296887 C 411.723956 178.432304 411.026039 178.53647 410.322914 178.604179 C 409.619789 178.677095 408.916664 178.708345 408.20833 178.708345 C 407.505205 178.708345 406.796872 178.677095 406.098955 178.604179 C 405.39583 178.53647 404.697913 178.432304 404.005205 178.296887 C 403.312497 178.156262 402.624997 177.984387 401.953122 177.781262 C 401.276038 177.578137 400.609371 177.338554 399.95833 177.06772 C 399.307288 176.796887 398.671871 176.494804 398.046871 176.166678 C 397.421871 175.833345 396.817705 175.468762 396.234371 175.078137 C 395.645829 174.682303 395.078121 174.265637 394.531246 173.81772 C 393.984371 173.369803 393.463538 172.895845 392.963538 172.395845 C 392.463538 171.895845 391.989579 171.375011 391.541662 170.828136 C 391.093746 170.281261 390.677079 169.713553 390.281246 169.13022 C 389.890621 168.541678 389.526037 167.937511 389.197912 167.312511 C 388.864579 166.69272 388.562496 166.052094 388.291662 165.401053 C 388.020829 164.750011 387.781246 164.083344 387.578121 163.406261 C 387.374996 162.734386 387.203121 162.046886 387.062496 161.354177 C 386.927079 160.661469 386.822912 159.963552 386.755204 159.265636 C 386.682287 158.562511 386.651037 157.854177 386.651037 157.151052 C 386.651037 156.442719 386.682287 155.739594 386.755204 155.036469 C 386.822912 154.333344 386.927079 153.635427 387.062496 152.942719 C 387.203121 152.25001 387.374996 151.567718 387.578121 150.890635 C 387.781246 150.213552 388.020829 149.552093 388.291662 148.901052 C 388.562496 148.244802 388.864579 147.609385 389.197912 146.984385 C 389.526037 146.364593 389.890621 145.760426 390.281246 145.171885 C 390.677079 144.583343 391.093746 144.020843 391.541662 143.473968 C 391.989579 142.927093 392.463538 142.40626 392.963538 141.90626 C 393.463538 141.406259 393.984371 140.932301 394.531246 140.484384 C 395.078121 140.036468 395.645829 139.614593 396.234371 139.223968 C 396.817705 138.833343 397.421871 138.468759 398.046871 138.135426 C 398.671871 137.802093 399.307288 137.500009 399.95833 137.229176 C 400.609371 136.958343 401.276038 136.723968 401.953122 136.520842 C 402.624997 136.312509 403.312497 136.140634 404.005205 136.005217 C 404.697913 135.864592 405.39583 135.765634 406.098955 135.692717 C 406.796872 135.625009 407.505205 135.588551 408.20833 135.588551 C 408.916664 135.588551 409.619789 135.625009 410.322914 135.692717 C 411.026039 135.765634 411.723956 135.864592 412.416664 136.005217 C 413.109372 136.140634 413.791664 136.312509 414.468747 136.520842 C 415.145831 136.723968 415.807289 136.958343 416.458331 137.229176 C 417.114581 137.500009 417.749998 137.802093 418.374998 138.135426 C 418.994789 138.468759 419.598956 138.833343 420.187498 139.223968 C 420.776039 139.614593 421.343748 140.036468 421.885415 140.484384 C 422.43229 140.932301 422.958331 141.406259 423.453123 141.90626 C 423.953123 142.40626 424.427081 142.927093 424.874998 143.473968 C 425.322915 144.020843 425.74479 144.583343 426.135415 145.171885 C 426.531248 145.760426 426.890623 146.364593 427.223957 146.984385 C 427.55729 147.609385 427.859373 148.244802 428.130207 148.901052 C 428.40104 149.552093 428.635415 150.213552 428.843748 150.890635 C 429.046873 151.567718 429.218748 152.25001 429.354165 152.942719 C 429.49479 153.635427 429.598957 154.333344 429.666665 155.036469 C 429.734373 155.739594 429.770832 156.442719 429.770832 157.151052 Z M 429.770832 157.151052 " transform="matrix(-0.75,0,0,0.75,419.999977,0)"/><path style=" stroke:none;fill-rule:nonzero;fill:#3a3836;fill-opacity:1;" d="M 119.167969 114.050781 L 119.167969 109.425781 C 119.164062 109.238281 119.128906 109.058594 119.054688 108.882812 C 118.984375 108.710938 118.882812 108.558594 118.75 108.425781 C 118.617188 108.292969 118.464844 108.1875 118.289062 108.113281 C 118.117188 108.042969 117.9375 108.003906 117.75 108 C 117.554688 107.992188 117.367188 108.023438 117.183594 108.089844 C 117 108.160156 116.839844 108.261719 116.699219 108.394531 C 116.558594 108.527344 116.445312 108.6875 116.371094 108.863281 C 116.292969 109.042969 116.25 109.230469 116.25 109.425781 L 116.25 114.050781 "/><path style=" stroke:none;fill-rule:nonzero;fill:#3a3836;fill-opacity:1;" d="M 111.667969 114.050781 L 111.667969 109.425781 C 111.664062 109.238281 111.628906 109.058594 111.554688 108.882812 C 111.484375 108.710938 111.382812 108.558594 111.25 108.425781 C 111.117188 108.292969 110.964844 108.1875 110.789062 108.113281 C 110.617188 108.042969 110.4375 108.003906 110.25 108 C 110.054688 107.992188 109.867188 108.023438 109.683594 108.089844 C 109.5 108.160156 109.339844 108.261719 109.199219 108.394531 C 109.058594 108.527344 108.945312 108.6875 108.871094 108.863281 C 108.792969 109.042969 108.75 109.230469 108.75 109.425781 L 108.75 114.050781 "/><path style="fill-rule:nonzero;fill:#ffffff;fill-opacity:1;stroke-width:2;stroke-linecap:round;stroke-linejoin:round;stroke:#3a3836;stroke-opacity:1;stroke-miterlimit:4;" d="M 398.531246 152.067719 L 417.890623 152.067719 L 417.890623 158.750011 C 417.890623 159.385427 417.828123 160.015636 417.703123 160.640636 C 417.578123 161.260427 417.395831 161.864594 417.151039 162.453136 C 416.911456 163.041678 416.609372 163.598969 416.260414 164.130219 C 415.906247 164.656261 415.505206 165.145844 415.057289 165.593761 C 414.604164 166.041678 414.114581 166.447928 413.588539 166.796886 C 413.057289 167.151053 412.499997 167.447928 411.916664 167.69272 C 411.328122 167.937511 410.723955 168.119803 410.098955 168.244803 C 409.473955 168.369803 408.843747 168.432303 408.20833 168.432303 C 407.572914 168.432303 406.942705 168.369803 406.322913 168.244803 C 405.697913 168.119803 405.093747 167.937511 404.505205 167.69272 C 403.916663 167.447928 403.359372 167.151053 402.83333 166.796886 C 402.30208 166.447928 401.812497 166.041678 401.36458 165.593761 C 400.916663 165.145844 400.515621 164.656261 400.161455 164.130219 C 399.807288 163.598969 399.510413 163.041678 399.265621 162.453136 C 399.026038 161.864594 398.838538 161.260427 398.713538 160.640636 C 398.593746 160.015636 398.531246 159.385427 398.531246 158.750011 Z M 398.531246 152.067719 " transform="matrix(-0.75,0,0,0.75,419.999977,0)"/><path style="fill:none;stroke-width:2;stroke-linecap:round;stroke-linejoin:round;stroke:#3a3836;stroke-opacity:1;stroke-miterlimit:4;" d="M 460.8125 210.598972 L 457.239584 200.151055 " transform="matrix(-0.75,0,0,0.75,419.999977,0)"/><path style="fill-rule:nonzero;fill:#ffffff;fill-opacity:1;stroke-width:2;stroke-linecap:butt;stroke-linejoin:miter;stroke:#3a3836;stroke-opacity:1;stroke-miterlimit:10;" d="M 276.499988 121.911467 L 283.499989 124.187508 L 276.499988 126.468758 L 274.218738 133.468759 L 271.937488 126.468758 L 264.937487 124.187508 L 271.937488 121.911467 L 274.218738 114.911466 Z M 276.499988 121.911467 " transform="matrix(-0.75,0,0,0.75,419.999977,0)"/><path style="fill-rule:nonzero;fill:#ffffff;fill-opacity:1;stroke-width:2;stroke-linecap:butt;stroke-linejoin:miter;stroke:#3a3836;stroke-opacity:1;stroke-miterlimit:10;" d="M 403.411455 84.348964 L 410.411455 86.630214 L 403.411455 88.911464 L 401.130205 95.911465 L 398.838538 88.911464 L 391.838538 86.630214 L 398.838538 84.348964 L 401.130205 77.348964 Z M 403.411455 84.348964 " transform="matrix(-0.75,0,0,0.75,419.999977,0)"/><path style=" stroke:none;fill-rule:nonzero;fill:#75716f;fill-opacity:1;" d="M 69.832031 125.339844 L 67.328125 126.148438 L 69.832031 126.96875 L 70.640625 129.472656 L 71.460938 126.96875 L 73.964844 126.148438 L 71.460938 125.339844 L 70.640625 122.835938 Z M 69.832031 125.339844 "/><g clip-rule="nonzero" clip-path="url(#63f8ca5a5c)"><g clip-rule="nonzero" clip-path="url(#00232aa329)"><path style=" stroke:none;fill-rule:nonzero;fill:#ffde83;fill-opacity:1;" d="M 293.886719 58.875 C 294.074219 55.460938 294.949219 52.238281 296.519531 49.199219 C 297.976562 46.347656 300.015625 44 302.640625 42.15625 C 305.074219 40.453125 307.777344 39.558594 310.746094 39.472656 C 313.683594 39.417969 316.378906 40.199219 318.832031 41.8125 C 319.738281 39.28125 320.96875 36.917969 322.523438 34.726562 C 324.082031 32.535156 325.90625 30.59375 327.996094 28.90625 C 329.898438 27.371094 332 26.195312 334.300781 25.371094 C 336.601562 24.550781 338.972656 24.128906 341.414062 24.113281 C 343.835938 24.144531 346.175781 24.582031 348.445312 25.421875 C 350.710938 26.265625 352.769531 27.46875 354.621094 29.023438 C 356.644531 30.734375 358.386719 32.695312 359.855469 34.902344 C 361.320312 37.105469 362.453125 39.472656 363.246094 42 C 364.621094 40.910156 366.128906 40.058594 367.769531 39.445312 C 369.414062 38.832031 371.109375 38.488281 372.863281 38.414062 C 374.589844 38.375 376.277344 38.609375 377.925781 39.121094 C 379.574219 39.628906 381.097656 40.390625 382.5 41.398438 C 385.589844 43.648438 387.871094 46.53125 389.347656 50.054688 C 390.957031 53.828125 391.636719 57.765625 391.386719 61.859375 Z M 293.886719 58.875 "/></g></g><path style="fill:none;stroke-width:2;stroke-linecap:butt;stroke-linejoin:miter;stroke:#3a3836;stroke-opacity:1;stroke-miterlimit:4;" d="M 430.708332 364.161483 L 495.088544 364.161483 " transform="matrix(-0.75,0,0,0.75,419.999977,0)"/><path style="fill:none;stroke-width:2;stroke-linecap:butt;stroke-linejoin:miter;stroke:#3a3836;stroke-opacity:1;stroke-miterlimit:4;" d="M 501.270837 364.161483 L 515.411462 364.161483 " transform="matrix(-0.75,0,0,0.75,419.999977,0)"/><path style="fill:none;stroke-width:2;stroke-linecap:butt;stroke-linejoin:miter;stroke:#3a3836;stroke-opacity:1;stroke-miterlimit:4;" d="M 234.567694 364.109399 L 203.182275 364.109399 " transform="matrix(-0.75,0,0,0.75,419.999977,0)"/><path style="fill:none;stroke-width:2;stroke-linecap:butt;stroke-linejoin:miter;stroke:#3a3836;stroke-opacity:1;stroke-miterlimit:4;" d="M 106.609352 360.682316 L 67.651016 360.682316 " transform="matrix(-0.75,0,0,0.75,419.999977,0)"/><path style="fill:none;stroke-width:2;stroke-linecap:butt;stroke-linejoin:miter;stroke:#3a3836;stroke-opacity:1;stroke-miterlimit:4;" d="M 70.979141 360.682316 L 74.130183 320.479188 " transform="matrix(-0.75,0,0,0.75,419.999977,0)"/><path style="fill:none;stroke-width:2;stroke-linecap:butt;stroke-linejoin:miter;stroke:#3a3836;stroke-opacity:1;stroke-miterlimit:4;" d="M 72.562474 345.630232 L 93.958309 332.281272 L 95.958309 322.208355 " transform="matrix(-0.75,0,0,0.75,419.999977,0)"/><path style="fill:none;stroke-width:2;stroke-linecap:butt;stroke-linejoin:miter;stroke:#3a3836;stroke-opacity:1;stroke-miterlimit:4;" d="M 75.130183 313.937521 L 75.531225 307.130229 " transform="matrix(-0.75,0,0,0.75,419.999977,0)"/></g></svg>
