<svg width="1059" height="266" viewBox="0 0 1059 266" fill="none" xmlns="http://www.w3.org/2000/svg">
<path d="M242.805 41.0625C242.972 41.1875 243.451 41.25 244.242 41.25C245.034 41.25 245.638 40.9375 246.055 40.3125C246.472 39.6875 246.68 38.6667 246.68 37.25V32.5C246.68 31 246.492 29.9375 246.117 29.3125C245.784 28.6458 245.201 28.3125 244.367 28.3125C243.576 28.3125 243.034 28.3958 242.742 28.5625C242.784 28.7708 242.805 29.125 242.805 29.625V41.0625ZM244.367 69.3125V78.875C242.534 80.4167 239.951 81.6875 236.617 82.6875C233.284 83.6458 229.805 84.125 226.18 84.125C221.013 84.125 216.784 83.125 213.492 81.125C209.742 78.8333 207.867 75.5208 207.867 71.1875V11.8125C207.867 10.4792 208.763 9.14583 210.555 7.8125C212.388 6.47917 214.909 5.27083 218.117 4.1875C224.992 1.85417 232.847 0.6875 241.68 0.6875C253.888 0.6875 263.617 3.72917 270.867 9.8125C278.117 15.8958 281.742 24.0833 281.742 34.375C281.742 44.625 278.472 52.6042 271.93 58.3125C265.638 63.7292 256.909 66.4375 245.742 66.4375C243.201 66.4375 240.472 66.1458 237.555 65.5625C234.68 64.9375 232.742 64.3958 231.742 63.9375C231.409 64.2708 231.242 64.7292 231.242 65.3125C231.242 67.4375 235.617 68.7708 244.367 69.3125ZM339.575 39.875C339.575 35.7083 339.388 32.8542 339.013 31.3125C338.638 29.7292 337.95 28.9375 336.95 28.9375C336.325 28.9375 335.763 29.1458 335.263 29.5625C335.346 30.3125 335.471 31.3125 335.638 32.5625C335.804 33.8125 335.888 36.4792 335.888 40.5625V44.625C335.888 47.4583 335.825 49.5208 335.7 50.8125C335.575 52.1042 335.471 53.2083 335.388 54.125C335.346 54.625 335.304 55.125 335.263 55.625C335.763 56.0417 336.325 56.25 336.95 56.25C337.95 56.25 338.638 55.4792 339.013 53.9375C339.388 52.3542 339.575 49.4792 339.575 45.3125V39.875ZM337.075 85C329.658 85 322.846 83.4792 316.638 80.4375C310.471 77.3542 305.492 72.6667 301.7 66.375C297.908 60.0417 296.013 52.1458 296.013 42.6875C296.013 28.9792 300.138 18.2708 308.388 10.5625C315.721 3.77083 325.158 0.375 336.7 0.375C349.242 0.375 359.158 4.27083 366.45 12.0625C373.783 19.8125 377.45 30.0208 377.45 42.6875C377.45 56.7708 373.533 67.5208 365.7 74.9375C358.575 81.6458 349.033 85 337.075 85ZM426.658 60.25C428.033 60 428.72 59.3125 428.72 58.1875C428.72 57.0208 428.345 55.7292 427.595 54.3125C426.887 52.8542 425.824 51.4792 424.408 50.1875C420.699 46.8542 415.678 45.1875 409.345 45.1875C406.22 45.1875 403.303 45.7083 400.595 46.75C397.72 45.2917 395.428 42.9792 393.72 39.8125C392.012 36.6458 391.158 33.2292 391.158 29.5625C391.158 19.9792 395.158 12.5833 403.158 7.375C410.033 2.91667 418.512 0.6875 428.595 0.6875C436.095 0.6875 442.408 1.5 447.533 3.125C452.658 4.70833 456.845 6.75 460.095 9.25C461.053 12 461.533 14.8542 461.533 17.8125C461.533 20.7708 461.137 23.4583 460.345 25.875C459.553 28.2917 458.408 30.2292 456.908 31.6875C455.491 30.6458 452.928 29.5833 449.22 28.5C445.512 27.4167 442.137 26.875 439.095 26.875C436.053 26.875 434.012 27.0625 432.97 27.4375C431.97 27.8125 431.47 28.3958 431.47 29.1875C431.47 29.5625 431.533 29.9167 431.658 30.25C433.116 29.875 434.991 29.6875 437.283 29.6875C445.408 29.6875 452.033 31.6042 457.158 35.4375C463.199 40.0208 466.22 46.8958 466.22 56.0625C466.22 64.1458 462.949 70.8542 456.408 76.1875C449.324 81.8958 439.803 84.75 427.845 84.75C421.262 84.75 415.553 84.25 410.72 83.25C405.887 82.2917 401.178 80.5833 396.595 78.125C393.47 73.5833 391.908 68.9792 391.908 64.3125C391.908 59.6042 393.512 55.7083 396.72 52.625C399.928 49.5417 403.866 48 408.533 48C413.241 48 417.074 48.9583 420.033 50.875C423.033 52.7917 425.241 55.9167 426.658 60.25ZM531.427 34.3125V78.25C529.511 79.9167 526.948 81.3125 523.74 82.4375C520.532 83.5625 516.636 84.125 512.052 84.125C507.469 84.125 503.573 83.1042 500.365 81.0625C496.74 78.8542 494.927 75.7292 494.927 71.6875V31.4375H480.365C477.365 27.1458 475.865 22.4583 475.865 17.375C475.865 13.9167 476.407 10.9167 477.49 8.375C478.615 5.79167 479.99 3.79167 481.615 2.375H546.24C547.448 4.25 548.448 6.52083 549.24 9.1875C550.032 11.8542 550.427 14.5 550.427 17.125C550.427 22.0417 549.344 25.6667 547.177 28C545.011 30.2917 542.094 31.4375 538.427 31.4375H520.115C519.99 31.7292 519.927 32.0417 519.927 32.375C519.927 33.125 520.365 33.625 521.24 33.875C522.157 34.1667 524.115 34.3125 527.115 34.3125H531.427ZM631.948 84.125C626.239 84.125 621.76 83.1875 618.51 81.3125C615.01 79.3542 613.114 76.5833 612.823 73L612.26 67.125C616.093 66.2083 619.323 63.8333 621.948 60C622.656 58.9167 623.01 57.9792 623.01 57.1875C623.01 56.1042 622.468 55.5625 621.385 55.5625H621.198C621.156 55.6042 621.073 55.625 620.948 55.625C618.031 61.75 613.302 64.8125 606.76 64.8125C603.427 64.8125 600.573 64.0833 598.198 62.625C595.864 61.1667 593.718 58.6458 591.76 55.0625H591.385C590.26 55.0625 589.698 55.5417 589.698 56.5C589.698 57.1667 589.948 57.9167 590.448 58.75C592.114 61.5417 594.198 63.7292 596.698 65.3125C598.656 66.6458 600.718 67.4375 602.885 67.6875L602.385 79.5C599.885 81.125 597.239 82.2917 594.448 83C591.698 83.75 587.76 84.125 582.635 84.125C577.552 84.125 573.01 83.125 569.01 81.125C564.093 78.6667 561.635 75.25 561.635 70.875C561.635 65.4167 562.718 51.9375 564.885 30.4375C566.052 19.2292 566.989 11.3958 567.698 6.9375C571.989 3.10417 578.323 1.1875 586.698 1.1875C592.781 1.1875 597.823 2.3125 601.823 4.5625L605.26 16.0625L603.073 25.25C602.906 25.875 602.823 26.4792 602.823 27.0625C602.823 28.5208 603.656 29.2708 605.323 29.3125L611.26 4.625C612.968 3.70833 615.198 2.91667 617.948 2.25C620.698 1.54167 623.698 1.1875 626.948 1.1875C633.031 1.1875 637.531 2.22917 640.448 4.3125C643.406 6.35417 645.156 9.8125 645.698 14.6875C645.823 15.6042 646.01 17.125 646.26 19.25C650.052 51.8333 651.948 71.0208 651.948 76.8125C647.323 81.6875 640.656 84.125 631.948 84.125ZM706.03 41.9375C706.363 42.2708 706.884 42.4375 707.593 42.4375C708.301 42.4375 708.905 42.2917 709.405 42C708.322 35.6667 707.593 31.9167 707.218 30.75C706.759 29.5417 706.072 28.9375 705.155 28.9375C704.738 28.9375 704.238 29.0625 703.655 29.3125L706.03 41.9375ZM693.655 60.6875C693.238 61.2708 693.03 61.8125 693.03 62.3125C693.03 63.5208 694.155 64.5417 696.405 65.375C698.697 66.1667 701.468 66.6667 704.718 66.875C705.259 72.875 705.843 76.2917 706.468 77.125C705.676 78.6667 703.488 80.2292 699.905 81.8125C696.322 83.3542 692.28 84.125 687.78 84.125C681.822 84.125 676.718 82.8542 672.468 80.3125C668.218 77.7292 666.093 74.4167 666.093 70.375C666.093 69.2917 666.197 68.3333 666.405 67.5L679.718 8C683.051 5.875 687.03 4.20833 691.655 3C696.28 1.79167 701.093 1.1875 706.093 1.1875C713.259 1.1875 719.384 2.39583 724.468 4.8125C730.259 7.5625 733.78 11.5417 735.03 16.75L749.28 75.6875C744.947 81.3125 737.884 84.125 728.093 84.125C723.343 84.125 719.322 83.2708 716.03 81.5625C712.738 79.8542 710.822 77.4167 710.28 74.25L708.905 66.625C711.405 66.5833 713.822 66.1042 716.155 65.1875C718.488 64.2708 719.655 63.3125 719.655 62.3125C719.655 61.6458 719.384 61.1042 718.843 60.6875C717.259 61.8125 715.322 62.6667 713.03 63.25C710.738 63.8333 708.613 64.125 706.655 64.125C701.03 64.125 696.697 62.9792 693.655 60.6875ZM762.737 71.4375V8.8125C762.737 6.64583 764.467 4.85417 767.925 3.4375C771.425 1.97917 775.529 1.25 780.237 1.25C782.904 1.25 785.404 1.58333 787.737 2.25C790.112 2.875 791.925 3.6875 793.175 4.6875C794.883 6.85417 796.446 9.0625 797.862 11.3125C799.279 13.5625 802.467 18.8125 807.425 27.0625C807.883 27.0625 808.3 26.9167 808.675 26.625C809.05 26.3333 809.237 25.8958 809.237 25.3125C809.237 24.6875 808.717 23.5 807.675 21.75L800.925 10.125V6.6875C803.05 4.9375 805.633 3.58333 808.675 2.625C811.717 1.66667 814.862 1.1875 818.112 1.1875C823.404 1.1875 827.675 2.14583 830.925 4.0625C834.717 6.35417 836.612 9.9375 836.612 14.8125V74C836.612 77.5833 834.904 80.1875 831.487 81.8125C828.571 83.2708 824.675 84 819.8 84C817.092 84 814.446 83.7083 811.862 83.125C809.321 82.5417 807.321 81.7917 805.862 80.875C802.904 77.0833 799.967 72.8333 797.05 68.125L790.675 57.5C789.467 57.6667 788.862 58.3125 788.862 59.4375C788.862 60.1458 789.467 61.5 790.675 63.5L798.487 76.125V79.4375C793.654 82.5625 788.196 84.125 782.112 84.125C776.071 84.125 771.321 83.0208 767.862 80.8125C764.446 78.6042 762.737 75.4792 762.737 71.4375ZM41.8175 218.125C42.2342 218.125 42.6092 218.021 42.9425 217.812V212.125C45.7758 210.208 49.7342 208.646 54.8175 207.438C59.9425 206.229 64.9217 205.625 69.755 205.625C71.9633 207.875 73.7967 211.25 75.255 215.75C76.755 220.208 77.5467 224.25 77.63 227.875C76.7967 229.542 75.38 231.333 73.38 233.25C71.4217 235.167 69.0467 236.938 66.255 238.562C59.3383 242.646 51.4008 244.688 42.4425 244.688C29.6092 244.688 19.505 240.958 12.13 233.5C4.505 225.958 0.692505 215.521 0.692505 202.188C0.692505 188.812 4.85917 178.312 13.1925 170.688C16.8592 167.271 21.13 164.708 26.005 163C30.88 161.25 36.005 160.375 41.38 160.375C51.88 160.375 60.4842 162.917 67.1925 168C73.9008 173.083 77.255 179.354 77.255 186.812C77.255 192.438 75.5258 196.604 72.0675 199.312C68.6092 201.979 63.9217 203.312 58.005 203.312C54.755 203.312 51.4842 202.521 48.1925 200.938C44.9008 199.312 42.9425 197.792 42.3175 196.375C42.3175 192.958 42.38 190.271 42.505 188.312C42.4217 188.271 42.2758 188.25 42.0675 188.25H41.63C41.005 188.25 40.505 188.438 40.13 188.812C39.7967 189.146 39.4842 189.875 39.1925 191C38.9425 192.125 38.8175 195.188 38.8175 200.188C38.8175 212.146 39.8175 218.125 41.8175 218.125ZM123.713 208.188V219.125C124.004 219.417 124.483 219.562 125.15 219.562C125.817 219.562 126.296 219.333 126.588 218.875C126.879 218.417 127.025 217.625 127.025 216.5V207.562C127.025 203.562 126.858 200.917 126.525 199.625C126.192 198.292 125.567 197.625 124.65 197.625C124.067 197.625 123.567 197.833 123.15 198.25C123.525 202.375 123.713 205.688 123.713 208.188ZM100.338 235.875C93.5042 229.292 90.0875 220.375 90.0875 209.125C90.0875 197.833 93.2958 188.938 99.7125 182.438C106.171 175.896 114.629 172.625 125.088 172.625C135.546 172.625 144.004 176.021 150.463 182.812C156.879 189.604 160.088 198.458 160.088 209.375C160.088 220.25 156.983 228.896 150.775 235.312C144.608 241.729 136.213 244.938 125.588 244.938C114.963 244.938 106.546 241.917 100.338 235.875ZM276.92 212.062C276.92 215.104 277.253 217.583 277.92 219.5C278.587 221.417 279.753 222.896 281.42 223.938C281.462 224.146 281.483 224.5 281.483 225V225.938C281.483 231.646 279.816 236.104 276.483 239.312C273.149 242.521 268.837 244.125 263.545 244.125C258.295 244.125 254.066 242.688 250.858 239.812C247.066 236.479 245.17 231.375 245.17 224.5V204.75C245.17 201.958 244.253 200.562 242.42 200.562C241.712 200.562 241.149 200.729 240.733 201.062L241.858 210.375V224.5C241.858 230.167 242.795 234.458 244.67 237.375C242.67 239.5 240.17 241.167 237.17 242.375C234.212 243.542 231.191 244.125 228.108 244.125C223.108 244.125 219.233 242.917 216.483 240.5C213.149 237.583 211.483 232.979 211.483 226.688V204.75C211.483 201.958 210.566 200.562 208.733 200.562C208.024 200.562 207.462 200.729 207.045 201.062L208.17 210.375V226.938C208.17 231.604 208.795 235.208 210.045 237.75C205.962 241.958 200.233 244.062 192.858 244.062C188.483 244.062 184.795 242.958 181.795 240.75C178.337 238.208 176.608 234.792 176.608 230.5V200.625C174.149 197.167 172.92 192.917 172.92 187.875C172.92 182.792 174.149 178.396 176.608 174.688H191.67C194.628 174.688 197.149 175.792 199.233 178C197.399 179.708 196.483 181.125 196.483 182.25C196.483 183.542 197.212 184.188 198.67 184.188C200.503 181.021 203.024 178.5 206.233 176.625C209.983 174.5 214.378 173.438 219.42 173.438C223.253 173.438 226.608 174.25 229.483 175.875C232.399 177.5 234.566 179.375 235.983 181.5C237.941 178.833 240.483 176.833 243.608 175.5C246.774 174.125 250.066 173.438 253.483 173.438C261.024 173.438 266.878 175.771 271.045 180.438C275.128 185.104 277.17 191.5 277.17 199.625L276.92 212.062ZM396.69 212.062C396.69 215.104 397.023 217.583 397.69 219.5C398.357 221.417 399.523 222.896 401.19 223.938C401.232 224.146 401.253 224.5 401.253 225V225.938C401.253 231.646 399.586 236.104 396.253 239.312C392.919 242.521 388.607 244.125 383.315 244.125C378.065 244.125 373.836 242.688 370.628 239.812C366.836 236.479 364.94 231.375 364.94 224.5V204.75C364.94 201.958 364.023 200.562 362.19 200.562C361.482 200.562 360.919 200.729 360.503 201.062L361.628 210.375V224.5C361.628 230.167 362.565 234.458 364.44 237.375C362.44 239.5 359.94 241.167 356.94 242.375C353.982 243.542 350.961 244.125 347.878 244.125C342.878 244.125 339.003 242.917 336.253 240.5C332.919 237.583 331.253 232.979 331.253 226.688V204.75C331.253 201.958 330.336 200.562 328.503 200.562C327.794 200.562 327.232 200.729 326.815 201.062L327.94 210.375V226.938C327.94 231.604 328.565 235.208 329.815 237.75C325.732 241.958 320.003 244.062 312.628 244.062C308.253 244.062 304.565 242.958 301.565 240.75C298.107 238.208 296.378 234.792 296.378 230.5V200.625C293.919 197.167 292.69 192.917 292.69 187.875C292.69 182.792 293.919 178.396 296.378 174.688H311.44C314.398 174.688 316.919 175.792 319.003 178C317.169 179.708 316.253 181.125 316.253 182.25C316.253 183.542 316.982 184.188 318.44 184.188C320.273 181.021 322.794 178.5 326.003 176.625C329.753 174.5 334.148 173.438 339.19 173.438C343.023 173.438 346.378 174.25 349.253 175.875C352.169 177.5 354.336 179.375 355.753 181.5C357.711 178.833 360.253 176.833 363.378 175.5C366.544 174.125 369.836 173.438 373.253 173.438C380.794 173.438 386.648 175.771 390.815 180.438C394.898 185.104 396.94 191.5 396.94 199.625L396.69 212.062ZM448.273 215.75C448.773 215.75 449.314 215.542 449.898 215.125C449.481 213.75 449.273 211.604 449.273 208.688V177.812C453.689 175.146 459.002 173.812 465.21 173.812C468.71 173.812 471.773 174.292 474.398 175.25C477.064 176.167 479.106 177.396 480.523 178.938V211.5C480.523 217.708 482.023 221.75 485.023 223.625C485.064 223.833 485.085 224.229 485.085 224.812V225.938C485.085 232.021 483.481 236.625 480.273 239.75C477.356 242.667 473.335 244.125 468.21 244.125C465.002 244.125 462.085 243.396 459.46 241.938C456.877 240.479 454.939 238.354 453.648 235.562C452.231 235.562 451.523 236.25 451.523 237.625C451.523 238.583 452.002 239.542 452.96 240.5C451.627 241.583 450.023 242.458 448.148 243.125C446.273 243.792 443.502 244.125 439.835 244.125C436.21 244.125 432.668 243.375 429.21 241.875C424.918 240.042 421.627 237.229 419.335 233.438C416.543 228.938 415.148 223.229 415.148 216.312V200.625C413.023 196.917 411.96 192.833 411.96 188.375C411.96 186.083 412.252 183.708 412.835 181.25C413.418 178.792 414.356 176.604 415.648 174.688H429.398C434.564 174.688 438.606 175.917 441.523 178.375C444.481 180.792 445.96 184.479 445.96 189.438V209.688C445.96 213.729 446.731 215.75 448.273 215.75ZM565.543 212.062C565.543 215.062 565.876 217.479 566.543 219.312C567.209 221.146 568.376 222.583 570.043 223.625C570.084 223.833 570.105 224.229 570.105 224.812V225.938C570.105 231.688 568.438 236.167 565.105 239.375C561.813 242.542 557.543 244.125 552.293 244.125C547.084 244.125 542.855 242.646 539.605 239.688C535.813 236.312 533.918 231.188 533.918 224.312C533.918 221.396 534.043 218.833 534.293 216.625C534.584 214.375 534.772 212.771 534.855 211.812C534.98 210.854 535.105 209.958 535.23 209.125C535.355 208.292 535.418 207.062 535.418 205.438C535.418 203.812 535.188 202.646 534.73 201.938C534.313 201.229 533.709 200.875 532.918 200.875C532.168 200.875 531.501 201.042 530.918 201.375L531.73 211.562C530.98 215.771 530.605 220.229 530.605 224.938C530.605 229.646 531.668 233.938 533.793 237.812C529.709 242.021 523.98 244.125 516.605 244.125C512.397 244.125 508.751 243.021 505.668 240.812C502.084 238.312 500.293 235 500.293 230.875V200.625C497.834 197.167 496.605 192.917 496.605 187.875C496.605 182.792 497.834 178.396 500.293 174.688H511.418C514.376 174.688 516.897 175.792 518.98 178C517.147 179.708 516.23 181.125 516.23 182.25C516.23 183.542 516.959 184.188 518.418 184.188C520.251 181.021 523.043 178.396 526.793 176.312C530.584 174.229 534.876 173.188 539.668 173.188C546.876 173.188 552.73 174.958 557.23 178.5C562.897 182.958 565.73 189.875 565.73 199.25L565.543 212.062ZM615.938 186.75V211.5C615.938 217.708 617.438 221.75 620.438 223.625C620.479 223.833 620.5 224.229 620.5 224.812V225.938C620.5 232.062 618.833 236.667 615.5 239.75C612.417 242.667 608.292 244.125 603.125 244.125C598 244.125 593.771 242.667 590.438 239.75C586.229 236.042 584.125 230.625 584.125 223.5V182.875C584.875 182.333 585.688 181.896 586.562 181.562C587.438 181.229 588.354 180.812 589.312 180.312C587.521 179.396 585.896 177.812 584.438 175.562C582.979 173.271 582.25 170.604 582.25 167.562C582.25 162.312 583.979 158.021 587.438 154.688C590.896 151.354 595.125 149.688 600.125 149.688C605.167 149.688 609.375 151.396 612.75 154.812C616.167 158.188 617.875 162.438 617.875 167.562C617.875 171.688 616.583 175.312 614 178.438C611.417 181.521 608.271 183.458 604.562 184.25C604.562 185.833 605.167 186.625 606.375 186.625C608.5 186.625 610.667 185.792 612.875 184.125C614.542 185.417 615.562 186.292 615.938 186.75ZM640.208 203.5H644.083C646.166 203.5 647.208 202.812 647.208 201.438C647.208 201.271 647.166 201.021 647.083 200.688H633.083C632.166 197.771 631.708 194.521 631.708 190.938C631.708 187.312 631.978 184.375 632.52 182.125C634.895 180.625 638.166 178.333 642.333 175.25C643.499 172.417 645.02 167.917 646.895 161.75C647.145 160.917 647.437 160.104 647.77 159.312C651.02 158.479 654.728 158.062 658.895 158.062C663.062 158.062 667.166 158.5 671.208 159.375V174.688H689.958C692.374 178.354 693.583 182.667 693.583 187.625C693.583 189.875 693.27 192.188 692.645 194.562C692.02 196.938 691.124 198.958 689.958 200.625H673.083V210.062C673.083 215.396 675.312 218.062 679.77 218.062H682.458C683.333 221.229 683.77 223.979 683.77 226.312C683.77 232.062 681.958 236.479 678.333 239.562C674.749 242.604 669.52 244.125 662.645 244.125C655.812 244.125 650.353 242.229 646.27 238.438C642.228 234.604 640.208 228.979 640.208 221.562V203.5ZM728.603 211.438V212.875C728.603 213.542 728.623 214.021 728.665 214.312C729.082 214.521 729.54 214.625 730.04 214.625C731.248 214.625 731.853 213.708 731.853 211.875C731.853 205.75 732.186 199.396 732.853 192.812C733.561 186.188 734.311 181.083 735.103 177.5C738.478 175.042 742.978 173.812 748.603 173.812C754.228 173.812 758.561 174.917 761.603 177.125C764.686 179.292 766.228 181.917 766.228 185C766.228 186.292 765.457 191.625 763.915 201C762.207 210.542 760.019 220.583 757.353 231.125C756.811 233.25 755.832 236.229 754.415 240.062C753.04 243.896 751.561 247.083 749.978 249.625C745.019 257.5 738.894 262.375 731.603 264.25C728.186 265.125 724.748 265.562 721.29 265.562C714.582 265.562 709.394 263.896 705.728 260.562C702.353 257.562 700.665 253.833 700.665 249.375C700.665 244.958 701.978 240.792 704.603 236.875C705.228 236.708 706.373 236.625 708.04 236.625C709.707 236.625 711.79 236.833 714.29 237.25C721.207 238.542 724.728 239.188 724.853 239.188C725.144 239.229 725.457 239.292 725.79 239.375C726.165 239.417 726.644 239.438 727.228 239.438C727.811 239.438 728.311 239.271 728.728 238.938C729.144 238.604 729.353 237.938 729.353 236.938L714.603 234.125C710.978 232.625 707.832 229.479 705.165 224.688C701.873 218.771 699.644 210.75 698.478 200.625C695.728 197.042 694.353 192.75 694.353 187.75C694.353 182.75 695.603 178.396 698.103 174.688H714.165C719.54 174.688 723.561 176.229 726.228 179.312C728.186 181.604 729.436 184.958 729.978 189.375C729.061 196.625 728.603 203.979 728.603 211.438ZM857.33 199.875C857.33 195.708 857.143 192.854 856.768 191.312C856.393 189.729 855.705 188.938 854.705 188.938C854.08 188.938 853.518 189.146 853.018 189.562C853.101 190.312 853.226 191.312 853.393 192.562C853.559 193.812 853.643 196.479 853.643 200.562V204.625C853.643 207.458 853.58 209.521 853.455 210.812C853.33 212.104 853.226 213.208 853.143 214.125C853.101 214.625 853.059 215.125 853.018 215.625C853.518 216.042 854.08 216.25 854.705 216.25C855.705 216.25 856.393 215.479 856.768 213.938C857.143 212.354 857.33 209.479 857.33 205.312V199.875ZM834.018 243.062C829.393 243.062 825.809 241.833 823.268 239.375C820.768 236.917 819.518 233.208 819.518 228.25V172C819.518 168.833 822.684 166.167 829.018 164C835.393 161.792 842.497 160.688 850.33 160.688C864.122 160.688 874.893 164.021 882.643 170.688C890.976 177.854 895.143 188.542 895.143 202.75C895.143 215.542 891.101 225.458 883.018 232.5C874.976 239.542 863.913 243.062 849.83 243.062H834.018ZM972.6 212.062C972.6 215.062 972.933 217.479 973.6 219.312C974.267 221.146 975.433 222.583 977.1 223.625C977.142 223.833 977.163 224.229 977.163 224.812V225.938C977.163 231.854 975.371 236.458 971.788 239.75C968.621 242.667 964.704 244.125 960.038 244.125C956.871 244.125 953.975 243.375 951.35 241.875C948.725 240.375 946.85 238.208 945.725 235.375C944.308 235.375 943.6 236.062 943.6 237.438C943.6 238.604 944.329 239.917 945.788 241.375C943.079 243.208 938.996 244.125 933.538 244.125C925.829 244.125 919.663 242.042 915.038 237.875C910.454 233.667 908.163 227.812 908.163 220.312C908.163 212.771 910.6 206.938 915.475 202.812C919.933 199.104 925.704 197.25 932.788 197.25C935.204 197.25 937.538 197.417 939.788 197.75C941.288 198.042 942.1 198.208 942.225 198.25C942.35 197.833 942.413 197.479 942.413 197.188C942.413 196.104 941.496 195.375 939.663 195C937.829 194.625 935.433 194.438 932.475 194.438C926.183 194.438 920.808 195.708 916.35 198.25C914.308 194.792 913.288 190.417 913.288 185.125C913.288 182.125 913.663 179.896 914.413 178.438C917.413 177.062 921.225 175.854 925.85 174.812C930.475 173.729 935.35 173.188 940.475 173.188C951.058 173.188 959.058 175.5 964.475 180.125C969.892 184.75 972.6 191.312 972.6 199.812V212.062ZM940.163 215.125C938.413 215.125 937.538 215.917 937.538 217.5C937.538 219 938.558 219.75 940.6 219.75C942.017 219.75 943.058 219.417 943.725 218.75C944.392 218.042 944.725 216.833 944.725 215.125C944.725 215.125 943.204 215.125 940.163 215.125ZM1020.81 211.438V212.875C1020.81 213.542 1020.83 214.021 1020.87 214.312C1021.29 214.521 1021.74 214.625 1022.24 214.625C1023.45 214.625 1024.06 213.708 1024.06 211.875C1024.06 205.75 1024.39 199.396 1025.06 192.812C1025.77 186.188 1026.52 181.083 1027.31 177.5C1030.68 175.042 1035.18 173.812 1040.81 173.812C1046.43 173.812 1050.77 174.917 1053.81 177.125C1056.89 179.292 1058.43 181.917 1058.43 185C1058.43 186.292 1057.66 191.625 1056.12 201C1054.41 210.542 1052.22 220.583 1049.56 231.125C1049.02 233.25 1048.04 236.229 1046.62 240.062C1045.24 243.896 1043.77 247.083 1042.18 249.625C1037.22 257.5 1031.1 262.375 1023.81 264.25C1020.39 265.125 1016.95 265.562 1013.49 265.562C1006.79 265.562 1001.6 263.896 997.932 260.562C994.557 257.562 992.87 253.833 992.87 249.375C992.87 244.958 994.182 240.792 996.807 236.875C997.432 236.708 998.578 236.625 1000.24 236.625C1001.91 236.625 1003.99 236.833 1006.49 237.25C1013.41 238.542 1016.93 239.188 1017.06 239.188C1017.35 239.229 1017.66 239.292 1017.99 239.375C1018.37 239.417 1018.85 239.438 1019.43 239.438C1020.02 239.438 1020.52 239.271 1020.93 238.938C1021.35 238.604 1021.56 237.938 1021.56 236.938L1006.81 234.125C1003.18 232.625 1000.04 229.479 997.37 224.688C994.078 218.771 991.849 210.75 990.682 200.625C987.932 197.042 986.557 192.75 986.557 187.75C986.557 182.75 987.807 178.396 990.307 174.688H1006.37C1011.74 174.688 1015.77 176.229 1018.43 179.312C1020.39 181.604 1021.64 184.958 1022.18 189.375C1021.27 196.625 1020.81 203.979 1020.81 211.438Z" fill="#F3A125"/>
</svg>
