<svg width="610" height="454" viewBox="0 0 610 454" fill="none" xmlns="http://www.w3.org/2000/svg">
<path d="M335.961 269.836C336.31 265.439 340.152 262.153 344.55 262.492L583.702 280.904C588.107 281.243 591.403 285.089 591.064 289.494L586.843 344.322C586.504 348.731 582.651 352.029 578.242 351.684L338.992 332.958C334.584 332.613 331.292 328.758 331.641 324.35L335.961 269.836Z" fill="#FF6C37"/>
<g filter="url(#filter0_f_148_1344)">
<path d="M354.165 301.748L393.062 267.355L407.333 283.577L363.29 322.323L354.165 301.748Z" fill="black"/>
</g>
<path d="M434.796 284.476L434.275 304.053L453.518 300.411L434.738 305.965L444.148 323.14L433.063 306.995L419.636 321.253L431.565 305.721L413.857 297.357L432.314 303.902L434.796 284.476Z" fill="black"/>
<rect x="472.439" y="272.299" width="1.30704" height="71.2338" transform="rotate(4.40242 472.439 272.299)" fill="black"/>
<rect x="398.158" y="266.58" width="1.30704" height="71.2338" transform="rotate(4.40242 398.158 266.58)" fill="black"/>
<path d="M318.218 261.307C317.636 258.495 318.606 255.586 320.759 253.686L545.405 55.5046C548.722 52.5788 553.783 52.8991 556.704 56.2196L593.461 98.0004C596.379 101.318 596.056 106.373 592.738 109.291L344.226 327.918C339.619 331.97 332.353 329.542 331.108 323.534L318.218 261.307Z" fill="#FF6C37"/>
<path d="M371.089 261.848L365.438 255.424L367.847 253.305C368.341 252.871 368.836 252.599 369.332 252.489C369.831 252.377 370.307 252.406 370.762 252.577C371.217 252.745 371.624 253.032 371.983 253.44C372.345 253.852 372.58 254.294 372.688 254.767C372.796 255.239 372.761 255.717 372.584 256.199C372.406 256.678 372.069 257.136 371.573 257.572L369.976 258.977L369.135 258.02L370.575 256.754C370.863 256.5 371.055 256.242 371.151 255.98C371.247 255.717 371.261 255.46 371.195 255.207C371.13 254.952 370.997 254.711 370.797 254.483C370.596 254.255 370.375 254.094 370.132 253.999C369.892 253.903 369.636 253.889 369.365 253.956C369.095 254.02 368.814 254.179 368.524 254.435L367.457 255.373L372.253 260.824L371.089 261.848ZM379.688 248.587C380.296 249.279 380.688 249.986 380.863 250.707C381.038 251.425 381.018 252.11 380.803 252.764C380.589 253.415 380.201 253.988 379.639 254.483C379.076 254.978 378.457 255.29 377.782 255.421C377.107 255.547 376.424 255.479 375.732 255.215C375.041 254.948 374.392 254.47 373.785 253.78C373.176 253.087 372.784 252.383 372.609 251.665C372.434 250.943 372.453 250.257 372.667 249.606C372.882 248.952 373.271 248.378 373.834 247.884C374.396 247.389 375.014 247.077 375.687 246.949C376.362 246.818 377.046 246.887 377.737 247.154C378.429 247.417 379.079 247.895 379.688 248.587ZM378.518 249.616C378.089 249.129 377.651 248.785 377.204 248.585C376.758 248.381 376.325 248.31 375.907 248.374C375.486 248.436 375.102 248.621 374.752 248.928C374.403 249.235 374.171 249.593 374.056 250.002C373.939 250.409 373.953 250.848 374.096 251.319C374.24 251.786 374.526 252.263 374.955 252.75C375.383 253.238 375.821 253.583 376.268 253.787C376.715 253.988 377.148 254.057 377.569 253.995C377.987 253.931 378.371 253.746 378.72 253.438C379.069 253.131 379.302 252.774 379.419 252.367C379.534 251.958 379.52 251.52 379.376 251.053C379.232 250.582 378.946 250.103 378.518 249.616ZM383.007 243.102C382.736 242.854 382.425 242.749 382.074 242.788C381.724 242.825 381.377 242.995 381.032 243.299C380.789 243.512 380.613 243.732 380.504 243.957C380.395 244.183 380.35 244.399 380.368 244.606C380.386 244.812 380.465 244.997 380.605 245.16C380.723 245.293 380.855 245.383 381.002 245.428C381.151 245.471 381.309 245.48 381.477 245.455C381.642 245.428 381.81 245.381 381.98 245.313C382.15 245.245 382.315 245.168 382.474 245.084L383.209 244.705C383.501 244.548 383.802 244.419 384.11 244.318C384.42 244.216 384.729 244.16 385.035 244.15C385.344 244.138 385.641 244.19 385.928 244.305C386.215 244.42 386.48 244.616 386.725 244.894C387.056 245.271 387.251 245.687 387.311 246.142C387.369 246.596 387.287 247.063 387.065 247.544C386.843 248.021 386.474 248.486 385.96 248.939C385.46 249.378 384.958 249.683 384.454 249.852C383.952 250.019 383.467 250.045 382.999 249.93C382.533 249.814 382.104 249.549 381.712 249.137L382.857 248.13C383.07 248.339 383.303 248.465 383.555 248.507C383.807 248.548 384.062 248.52 384.321 248.422C384.582 248.323 384.833 248.166 385.076 247.953C385.329 247.73 385.518 247.498 385.642 247.255C385.766 247.008 385.823 246.769 385.812 246.538C385.799 246.304 385.713 246.094 385.553 245.908C385.404 245.743 385.233 245.648 385.042 245.624C384.848 245.598 384.632 245.625 384.394 245.704C384.156 245.78 383.897 245.889 383.615 246.033L382.719 246.488C382.07 246.817 381.471 246.979 380.921 246.974C380.371 246.964 379.894 246.729 379.489 246.269C379.156 245.891 378.967 245.469 378.922 245.005C378.879 244.538 378.966 244.07 379.183 243.601C379.399 243.129 379.732 242.695 380.181 242.3C380.637 241.899 381.106 241.627 381.589 241.484C382.072 241.338 382.535 241.318 382.978 241.425C383.419 241.53 383.802 241.761 384.126 242.117L383.007 243.102ZM384.274 240.585L383.416 239.61L388.541 235.102L389.399 236.077L387.414 237.824L392.206 243.272L391.052 244.287L386.259 238.839L384.274 240.585ZM389.529 234.232L390.953 232.98L396.954 235.957L397.03 235.891L394.842 229.559L396.266 228.306L401.917 234.729L400.8 235.712L396.918 231.299L396.859 231.351L398.949 237.307L398.114 238.041L392.465 235.199L392.406 235.251L396.296 239.674L395.18 240.656L389.529 234.232ZM404.009 232.889L402.767 233.982L399.377 225.569L400.814 224.305L408.729 228.737L407.487 229.829L401.28 226.232L401.229 226.276L404.009 232.889ZM401.834 230.335L405.221 227.355L406.044 228.289L402.656 231.269L401.834 230.335ZM409.203 216.925L414.854 223.349L413.819 224.259L406.943 222.546L406.89 222.593L410.739 226.969L409.575 227.992L403.925 221.569L404.966 220.653L411.841 222.372L411.898 222.322L408.046 217.943L409.203 216.925ZM422.258 209.286L421.085 210.318C420.882 210.155 420.67 210.039 420.45 209.969C420.227 209.898 420.003 209.869 419.778 209.882C419.552 209.895 419.33 209.951 419.113 210.05C418.896 210.144 418.689 210.278 418.492 210.451C418.143 210.758 417.911 211.118 417.796 211.531C417.678 211.942 417.692 212.383 417.835 212.854C417.977 213.323 418.26 213.798 418.685 214.282C419.117 214.773 419.558 215.12 420.007 215.322C420.456 215.521 420.889 215.588 421.308 215.524C421.727 215.456 422.109 215.269 422.457 214.964C422.649 214.795 422.807 214.611 422.93 214.414C423.053 214.213 423.138 214.003 423.183 213.785C423.231 213.565 423.236 213.342 423.2 213.114C423.165 212.885 423.083 212.661 422.953 212.441L424.131 211.416C424.356 211.76 424.513 212.13 424.602 212.526C424.693 212.921 424.711 213.323 424.658 213.734C424.602 214.143 424.468 214.543 424.255 214.934C424.041 215.323 423.742 215.686 423.36 216.022C422.795 216.519 422.176 216.831 421.503 216.96C420.83 217.089 420.149 217.018 419.459 216.749C418.77 216.48 418.122 216.001 417.515 215.311C416.906 214.619 416.514 213.914 416.339 213.196C416.162 212.476 416.181 211.791 416.394 211.139C416.607 210.488 416.994 209.916 417.555 209.423C417.912 209.109 418.289 208.866 418.684 208.696C419.08 208.526 419.484 208.433 419.895 208.416C420.305 208.396 420.71 208.459 421.112 208.603C421.513 208.743 421.895 208.971 422.258 209.286ZM429.201 210.894C428.731 211.308 428.232 211.563 427.705 211.66C427.178 211.756 426.656 211.702 426.138 211.498C425.622 211.291 425.146 210.939 424.708 210.441C424.27 209.943 423.981 209.425 423.839 208.885C423.701 208.343 423.712 207.817 423.875 207.307C424.038 206.796 424.355 206.334 424.825 205.92C425.296 205.506 425.795 205.251 426.322 205.154C426.849 205.058 427.371 205.114 427.889 205.323C428.408 205.53 428.887 205.882 429.325 206.38C429.762 206.877 430.05 207.396 430.187 207.936C430.326 208.473 430.314 208.997 430.151 209.508C429.989 210.018 429.672 210.481 429.201 210.894ZM428.408 209.979C428.663 209.755 428.814 209.497 428.863 209.206C428.909 208.913 428.869 208.611 428.743 208.299C428.619 207.985 428.428 207.682 428.171 207.389C427.911 207.094 427.634 206.865 427.339 206.702C427.043 206.536 426.748 206.456 426.451 206.465C426.155 206.474 425.879 206.59 425.624 206.815C425.362 207.045 425.207 207.307 425.159 207.602C425.112 207.895 425.152 208.199 425.278 208.515C425.404 208.827 425.597 209.131 425.856 209.425C426.114 209.718 426.389 209.947 426.682 210.112C426.978 210.275 427.274 210.352 427.57 210.343C427.867 210.331 428.146 210.209 428.408 209.979ZM432.391 207.922L428.153 203.104L429.238 202.15L429.958 202.968L430.015 202.919C429.872 202.554 429.849 202.193 429.945 201.834C430.039 201.473 430.247 201.151 430.569 200.867C430.895 200.58 431.24 200.418 431.604 200.38C431.968 200.338 432.315 200.413 432.646 200.604L432.696 200.56C432.567 200.198 432.56 199.827 432.673 199.445C432.786 199.06 433.018 198.713 433.367 198.406C433.81 198.016 434.295 197.838 434.822 197.872C435.348 197.906 435.848 198.191 436.321 198.729L439.166 201.962L438.027 202.964L435.337 199.906C435.074 199.607 434.802 199.458 434.522 199.46C434.24 199.46 433.984 199.561 433.754 199.763C433.48 200.004 433.341 200.278 433.337 200.586C433.333 200.889 433.451 201.177 433.69 201.449L436.333 204.454L435.22 205.433L432.488 202.328C432.269 202.079 432.019 201.947 431.738 201.931C431.459 201.913 431.199 202.01 430.959 202.221C430.796 202.365 430.684 202.537 430.624 202.739C430.562 202.938 430.557 203.148 430.61 203.368C430.661 203.587 430.774 203.795 430.949 203.994L433.526 206.923L432.391 207.922ZM440.317 200.949L436.079 196.131L437.165 195.177L437.885 195.995L437.941 195.946C437.799 195.581 437.776 195.22 437.872 194.861C437.966 194.5 438.174 194.178 438.496 193.894C438.822 193.607 439.167 193.445 439.53 193.407C439.894 193.365 440.242 193.44 440.573 193.631L440.623 193.587C440.494 193.225 440.486 192.854 440.6 192.472C440.713 192.087 440.944 191.74 441.294 191.433C441.737 191.043 442.222 190.865 442.748 190.899C443.275 190.933 443.775 191.218 444.248 191.756L447.092 194.989L445.954 195.991L443.264 192.933C443.001 192.634 442.729 192.485 442.449 192.487C442.166 192.487 441.91 192.588 441.68 192.79C441.406 193.031 441.267 193.305 441.264 193.613C441.26 193.916 441.378 194.204 441.617 194.476L444.26 197.481L443.147 198.46L440.415 195.355C440.196 195.106 439.946 194.974 439.665 194.958C439.386 194.94 439.126 195.037 438.886 195.248C438.723 195.392 438.611 195.564 438.551 195.766C438.489 195.965 438.484 196.175 438.537 196.395C438.588 196.614 438.701 196.822 438.876 197.021L441.453 199.95L440.317 200.949ZM449.532 189.249L447.077 186.457L448.212 185.458L452.45 190.276L451.349 191.244L450.596 190.388L450.546 190.432C450.674 190.798 450.69 191.176 450.592 191.566C450.496 191.954 450.267 192.308 449.905 192.626C449.589 192.904 449.249 193.079 448.883 193.153C448.517 193.222 448.148 193.182 447.775 193.031C447.4 192.879 447.043 192.611 446.704 192.226L444.006 189.158L445.141 188.16L447.685 191.051C447.954 191.357 448.251 191.526 448.576 191.558C448.902 191.591 449.201 191.488 449.472 191.249C449.64 191.102 449.766 190.918 449.851 190.699C449.936 190.479 449.958 190.245 449.917 189.995C449.876 189.742 449.748 189.493 449.532 189.249ZM452.27 185.427L454.753 188.25L453.618 189.249L449.38 184.431L450.465 183.477L451.185 184.295L451.241 184.246C451.115 183.878 451.103 183.509 451.206 183.136C451.311 182.762 451.543 182.417 451.903 182.101C452.235 181.808 452.587 181.624 452.959 181.55C453.333 181.473 453.707 181.51 454.08 181.66C454.455 181.808 454.811 182.076 455.147 182.462L457.846 185.53L456.71 186.528L454.166 183.637C453.883 183.315 453.578 183.136 453.25 183.101C452.925 183.065 452.616 183.175 452.324 183.433C452.125 183.608 451.987 183.807 451.909 184.031C451.832 184.251 451.821 184.481 451.877 184.721C451.935 184.96 452.066 185.195 452.27 185.427ZM459 184.514L454.762 179.697L455.897 178.698L460.135 183.516L459 184.514ZM454.731 178.511C454.551 178.669 454.344 178.746 454.11 178.74C453.873 178.733 453.681 178.645 453.532 178.475C453.381 178.304 453.318 178.102 453.343 177.868C453.366 177.633 453.467 177.436 453.647 177.278C453.829 177.118 454.037 177.043 454.271 177.052C454.506 177.057 454.698 177.145 454.849 177.317C454.998 177.486 455.061 177.688 455.038 177.924C455.015 178.155 454.913 178.351 454.731 178.511ZM459.47 175.555L460.243 176.433L457.474 178.869L456.701 177.991L459.47 175.555ZM456.369 176.235L457.505 175.236L461.483 179.759C461.618 179.912 461.744 180.009 461.861 180.05C461.979 180.087 462.09 180.086 462.193 180.047C462.296 180.009 462.395 179.948 462.489 179.865C462.56 179.802 462.62 179.74 462.67 179.678C462.721 179.614 462.759 179.565 462.783 179.529L463.755 180.248C463.713 180.322 463.646 180.422 463.555 180.546C463.467 180.669 463.343 180.803 463.186 180.949C462.909 181.207 462.615 181.39 462.305 181.496C461.992 181.6 461.681 181.611 461.37 181.528C461.062 181.443 460.776 181.249 460.514 180.946L456.369 176.235ZM466.953 180.723C466.798 180.859 466.644 180.972 466.49 181.063C466.34 181.154 466.213 181.218 466.108 181.255L465.593 180.138C465.801 180.041 465.968 179.935 466.096 179.818C466.224 179.702 466.302 179.561 466.331 179.395C466.363 179.23 466.334 179.026 466.242 178.783L466.111 178.437L460.037 175.056L461.242 173.996L465.553 176.658L465.603 176.614L463.516 171.996L464.723 170.934L467.546 178.032C467.68 178.366 467.753 178.689 467.765 179.002C467.778 179.316 467.719 179.616 467.589 179.902C467.462 180.188 467.25 180.462 466.953 180.723ZM471.988 173.089L466.337 166.665L468.746 164.546C469.24 164.112 469.735 163.84 470.231 163.73C470.73 163.618 471.206 163.647 471.661 163.818C472.116 163.986 472.523 164.273 472.881 164.681C473.244 165.093 473.479 165.535 473.587 166.008C473.695 166.48 473.66 166.957 473.483 167.439C473.305 167.919 472.967 168.377 472.472 168.813L470.875 170.218L470.034 169.261L471.473 167.995C471.762 167.741 471.954 167.483 472.05 167.22C472.146 166.958 472.16 166.701 472.093 166.448C472.029 166.193 471.896 165.952 471.696 165.724C471.495 165.496 471.274 165.335 471.031 165.24C470.791 165.144 470.535 165.13 470.264 165.197C469.994 165.261 469.713 165.42 469.423 165.676L468.356 166.614L473.152 172.065L471.988 173.089ZM478.91 163.405L476.454 160.614L477.59 159.615L481.828 164.433L480.727 165.401L479.974 164.545L479.924 164.589C480.052 164.955 480.067 165.332 479.969 165.723C479.873 166.111 479.645 166.465 479.283 166.783C478.967 167.061 478.626 167.236 478.261 167.309C477.895 167.379 477.526 167.338 477.153 167.188C476.777 167.036 476.421 166.767 476.082 166.383L473.384 163.315L474.519 162.316L477.063 165.208C477.332 165.514 477.629 165.682 477.954 165.715C478.28 165.748 478.578 165.645 478.85 165.405C479.017 165.258 479.144 165.075 479.229 164.856C479.314 164.636 479.336 164.402 479.294 164.152C479.253 163.899 479.125 163.65 478.91 163.405ZM481.648 159.584L484.131 162.407L482.995 163.406L478.757 158.588L479.843 157.634L480.563 158.452L480.619 158.402C480.493 158.035 480.481 157.665 480.584 157.293C480.689 156.919 480.921 156.574 481.28 156.257C481.613 155.965 481.965 155.781 482.337 155.706C482.711 155.63 483.084 155.666 483.458 155.817C483.833 155.965 484.189 156.232 484.525 156.619L487.223 159.687L486.088 160.685L483.544 157.793C483.261 157.471 482.956 157.293 482.628 157.258C482.303 157.222 481.994 157.332 481.701 157.59C481.503 157.764 481.365 157.964 481.287 158.188C481.21 158.408 481.199 158.638 481.255 158.878C481.313 159.117 481.443 159.352 481.648 159.584ZM490.593 156.889C490.11 157.314 489.605 157.581 489.077 157.689C488.549 157.793 488.029 157.743 487.515 157.539C486.999 157.332 486.52 156.977 486.076 156.473C485.641 155.977 485.352 155.459 485.211 154.92C485.07 154.376 485.078 153.849 485.235 153.341C485.39 152.83 485.698 152.372 486.158 151.967C486.455 151.706 486.777 151.507 487.125 151.372C487.474 151.232 487.836 151.173 488.214 151.193C488.594 151.211 488.977 151.323 489.365 151.527C489.75 151.729 490.129 152.042 490.501 152.464L490.807 152.812L486.858 156.286L486.185 155.521L489.045 153.004C488.852 152.789 488.635 152.637 488.394 152.548C488.151 152.458 487.904 152.436 487.652 152.483C487.402 152.528 487.169 152.646 486.951 152.838C486.719 153.042 486.565 153.278 486.489 153.545C486.411 153.81 486.402 154.077 486.464 154.346C486.526 154.61 486.651 154.851 486.838 155.068L487.426 155.736C487.672 156.016 487.935 156.212 488.214 156.322C488.491 156.431 488.769 156.458 489.047 156.402C489.323 156.345 489.584 156.208 489.831 155.991C489.996 155.845 490.125 155.691 490.219 155.527C490.31 155.361 490.365 155.189 490.382 155.011C490.399 154.832 490.373 154.653 490.304 154.473L491.469 153.66C491.648 153.999 491.736 154.356 491.732 154.73C491.728 155.101 491.631 155.472 491.442 155.842C491.25 156.211 490.968 156.56 490.593 156.889Z" fill="black"/>
<path d="M79.7852 255.744L562.09 45.0548C566.138 43.2861 570.854 45.1345 572.623 49.1834L594.814 99.982C596.583 104.031 594.734 108.747 590.685 110.515L108.381 321.205L79.7852 255.744Z" fill="black"/>
<path d="M398.145 149.493L394.721 141.653L397.66 140.369C398.263 140.106 398.817 139.997 399.324 140.044C399.832 140.089 400.277 140.262 400.658 140.564C401.041 140.862 401.341 141.259 401.558 141.757C401.778 142.26 401.867 142.753 401.826 143.236C401.784 143.719 401.606 144.163 401.291 144.568C400.974 144.971 400.514 145.304 399.909 145.568L397.96 146.419L397.45 145.252L399.207 144.484C399.56 144.33 399.821 144.143 399.992 143.923C400.163 143.702 400.256 143.461 400.269 143.2C400.285 142.938 400.233 142.667 400.111 142.389C399.99 142.111 399.828 141.89 399.625 141.726C399.426 141.561 399.187 141.47 398.908 141.451C398.631 141.43 398.315 141.496 397.961 141.651L396.659 142.22L399.565 148.873L398.145 149.493ZM410.376 139.483C410.745 140.327 410.902 141.12 410.849 141.86C410.797 142.597 410.569 143.244 410.165 143.8C409.763 144.356 409.219 144.783 408.533 145.083C407.846 145.383 407.161 145.492 406.478 145.411C405.797 145.325 405.167 145.052 404.589 144.591C404.012 144.125 403.539 143.472 403.171 142.63C402.802 141.785 402.644 140.994 402.696 140.257C402.749 139.517 402.976 138.869 403.378 138.314C403.782 137.757 404.328 137.329 405.014 137.029C405.701 136.729 406.384 136.621 407.064 136.703C407.747 136.785 408.377 137.058 408.954 137.523C409.533 137.985 410.007 138.638 410.376 139.483ZM408.948 140.106C408.688 139.512 408.376 139.051 408.011 138.724C407.648 138.393 407.257 138.195 406.839 138.128C406.42 138.059 405.997 138.118 405.571 138.304C405.145 138.49 404.815 138.76 404.581 139.115C404.345 139.467 404.224 139.889 404.217 140.381C404.212 140.87 404.339 141.411 404.599 142.006C404.859 142.601 405.17 143.063 405.534 143.394C405.898 143.721 406.29 143.919 406.709 143.988C407.127 144.054 407.55 143.995 407.976 143.808C408.402 143.622 408.733 143.353 408.968 143.001C409.202 142.647 409.322 142.225 409.327 141.737C409.334 141.244 409.207 140.701 408.948 140.106ZM415.208 135.27C415.026 134.951 414.762 134.757 414.415 134.686C414.071 134.615 413.688 134.671 413.267 134.855C412.971 134.985 412.737 135.14 412.564 135.322C412.391 135.504 412.282 135.696 412.237 135.898C412.191 136.1 412.21 136.3 412.293 136.498C412.365 136.661 412.464 136.786 412.59 136.874C412.719 136.961 412.867 137.018 413.034 137.045C413.2 137.07 413.374 137.076 413.557 137.063C413.739 137.05 413.92 137.027 414.097 136.995L414.912 136.858C415.238 136.798 415.564 136.766 415.888 136.764C416.215 136.761 416.526 136.802 416.821 136.886C417.118 136.969 417.386 137.108 417.624 137.305C417.862 137.502 418.055 137.77 418.203 138.11C418.404 138.569 418.463 139.025 418.381 139.477C418.298 139.927 418.077 140.347 417.719 140.737C417.363 141.124 416.87 141.455 416.242 141.729C415.632 141.995 415.062 142.132 414.53 142.14C414.001 142.146 413.531 142.023 413.12 141.771C412.712 141.518 412.383 141.135 412.136 140.624L413.533 140.013C413.673 140.277 413.856 140.468 414.083 140.584C414.31 140.701 414.562 140.752 414.838 140.738C415.117 140.722 415.405 140.65 415.701 140.52C416.01 140.386 416.26 140.221 416.452 140.028C416.646 139.831 416.773 139.621 416.833 139.397C416.892 139.17 416.874 138.944 416.778 138.719C416.686 138.516 416.553 138.373 416.378 138.292C416.201 138.208 415.987 138.168 415.737 138.171C415.487 138.17 415.207 138.196 414.895 138.247L413.902 138.407C413.184 138.523 412.564 138.495 412.042 138.322C411.521 138.145 411.138 137.776 410.892 137.214C410.691 136.753 410.639 136.293 410.738 135.837C410.839 135.38 411.064 134.96 411.414 134.58C411.764 134.196 412.212 133.885 412.761 133.645C413.317 133.402 413.847 133.286 414.351 133.297C414.855 133.304 415.302 133.427 415.691 133.664C416.08 133.899 416.374 134.235 416.575 134.673L415.208 135.27ZM417.182 133.259L416.662 132.068L422.917 129.336L423.437 130.527L421.014 131.585L423.918 138.234L422.51 138.85L419.605 132.2L417.182 133.259ZM424.123 128.809L425.861 128.05L430.67 132.714L430.761 132.674L430.607 125.977L432.345 125.217L435.77 133.057L434.407 133.652L432.054 128.266L431.982 128.298L432.158 134.608L431.14 135.053L426.625 130.625L426.552 130.656L428.91 136.054L427.547 136.649L424.123 128.809ZM438.323 131.942L436.807 132.604L436.143 123.559L437.896 122.793L444.084 129.425L442.569 130.087L437.752 124.77L437.691 124.797L438.323 131.942ZM437.03 128.846L441.165 127.04L441.663 128.181L437.529 129.987L437.03 128.846ZM448.135 118.32L451.56 126.16L450.296 126.711L444.27 122.985L444.205 123.013L446.537 128.354L445.117 128.974L441.692 121.134L442.963 120.579L448.988 124.311L449.057 124.281L446.722 118.937L448.135 118.32Z" fill="white"/>
<path d="M409.76 158.087L408.566 158.609C408.408 158.374 408.225 158.187 408.015 158.047C407.805 157.908 407.58 157.81 407.34 157.754C407.099 157.698 406.852 157.685 406.597 157.714C406.345 157.742 406.094 157.811 405.844 157.92C405.392 158.117 405.037 158.408 404.779 158.791C404.524 159.173 404.389 159.629 404.374 160.158C404.361 160.686 404.493 161.266 404.77 161.899C405.048 162.537 405.386 163.031 405.782 163.381C406.18 163.73 406.607 163.938 407.062 164.007C407.518 164.075 407.969 164.012 408.415 163.817C408.663 163.709 408.883 163.573 409.076 163.41C409.271 163.243 409.43 163.053 409.553 162.841C409.676 162.629 409.758 162.4 409.8 162.154C409.843 161.905 409.834 161.644 409.773 161.373L410.969 160.855C411.073 161.268 411.105 161.677 411.063 162.081C411.022 162.482 410.91 162.862 410.727 163.222C410.545 163.578 410.299 163.899 409.99 164.187C409.681 164.474 409.311 164.711 408.879 164.9C408.2 165.196 407.525 165.3 406.854 165.21C406.182 165.118 405.561 164.837 404.991 164.369C404.425 163.899 403.959 163.247 403.594 162.413C403.229 161.576 403.068 160.79 403.112 160.057C403.156 159.321 403.372 158.676 403.763 158.123C404.152 157.567 404.685 157.141 405.361 156.845C405.777 156.664 406.191 156.554 406.603 156.517C407.017 156.476 407.418 156.508 407.807 156.611C408.194 156.712 408.555 156.886 408.887 157.133C409.219 157.377 409.51 157.695 409.76 158.087ZM415.923 161.836C415.372 162.077 414.836 162.161 414.314 162.088C413.793 162.015 413.32 161.801 412.894 161.445C412.469 161.09 412.123 160.609 411.858 160.002C411.591 159.392 411.472 158.809 411.499 158.253C411.527 157.697 411.691 157.203 411.992 156.771C412.292 156.339 412.718 156.002 413.269 155.761C413.82 155.52 414.357 155.437 414.878 155.51C415.399 155.583 415.873 155.798 416.3 156.156C416.727 156.514 417.073 156.997 417.34 157.607C417.605 158.215 417.723 158.795 417.694 159.348C417.666 159.902 417.501 160.395 417.201 160.827C416.9 161.259 416.474 161.596 415.923 161.836ZM415.507 160.874C415.864 160.718 416.119 160.494 416.272 160.203C416.424 159.911 416.488 159.584 416.463 159.221C416.44 158.857 416.347 158.486 416.182 158.108C416.018 157.733 415.81 157.414 415.558 157.15C415.308 156.883 415.023 156.705 414.705 156.616C414.386 156.527 414.048 156.561 413.691 156.717C413.331 156.874 413.075 157.1 412.921 157.395C412.77 157.689 412.706 158.019 412.729 158.386C412.754 158.749 412.848 159.118 413.012 159.493C413.177 159.871 413.384 160.192 413.634 160.457C413.886 160.721 414.17 160.896 414.488 160.982C414.807 161.067 415.147 161.031 415.507 160.874ZM419.89 159.962L417.321 154.082L418.42 153.602L418.838 154.559L418.911 154.528C418.892 154.15 418.981 153.81 419.18 153.507C419.378 153.202 419.671 152.965 420.059 152.795C420.452 152.623 420.822 152.572 421.167 152.639C421.515 152.706 421.824 152.872 422.092 153.138L422.153 153.111C422.156 152.736 422.27 152.388 422.495 152.068C422.719 151.746 423.043 151.492 423.466 151.307C424 151.074 424.508 151.051 424.991 151.238C425.476 151.424 425.866 151.854 426.16 152.528L427.883 156.471L426.738 156.971L425.062 153.135C424.889 152.737 424.654 152.496 424.359 152.412C424.064 152.328 423.766 152.352 423.465 152.483C423.092 152.646 422.853 152.888 422.747 153.208C422.639 153.525 422.663 153.862 422.819 154.22L424.457 157.967L423.316 158.466L421.608 154.557C421.469 154.238 421.258 154.025 420.974 153.918C420.69 153.811 420.389 153.827 420.07 153.967C419.853 154.061 419.677 154.206 419.544 154.402C419.412 154.593 419.333 154.814 419.309 155.065C419.288 155.314 419.335 155.572 419.451 155.837L421.034 159.462L419.89 159.962ZM429.417 155.8L426.848 149.921L427.947 149.441L428.365 150.398L428.438 150.366C428.419 149.988 428.508 149.648 428.707 149.345C428.905 149.04 429.198 148.803 429.586 148.633C429.979 148.462 430.349 148.41 430.694 148.478C431.042 148.544 431.351 148.71 431.619 148.976L431.68 148.95C431.683 148.574 431.797 148.227 432.022 147.907C432.246 147.584 432.57 147.33 432.993 147.145C433.527 146.912 434.035 146.889 434.518 147.076C435.003 147.262 435.393 147.692 435.687 148.366L437.41 152.309L436.265 152.809L434.589 148.973C434.416 148.575 434.181 148.334 433.886 148.25C433.591 148.166 433.293 148.19 432.992 148.322C432.619 148.484 432.38 148.726 432.274 149.046C432.166 149.363 432.19 149.701 432.346 150.058L433.984 153.805L432.843 154.304L431.135 150.395C430.996 150.076 430.785 149.863 430.501 149.756C430.217 149.649 429.916 149.666 429.597 149.805C429.38 149.9 429.204 150.045 429.071 150.24C428.939 150.431 428.86 150.652 428.836 150.903C428.815 151.152 428.862 151.41 428.978 151.675L430.561 155.3L429.417 155.8ZM441.603 147.573L440.1 144.132L441.248 143.63L443.817 149.51L442.691 150.002L442.247 148.983L442.185 149.01C442.187 149.383 442.085 149.739 441.877 150.079C441.672 150.415 441.348 150.68 440.906 150.872C440.529 151.037 440.158 151.101 439.795 151.062C439.433 151.019 439.097 150.87 438.787 150.613C438.48 150.355 438.221 149.984 438.009 149.499L436.375 145.759L437.52 145.259L439.093 148.861C439.268 149.262 439.519 149.532 439.844 149.673C440.17 149.813 440.51 149.806 440.865 149.651C441.079 149.557 441.269 149.41 441.434 149.211C441.602 149.01 441.708 148.77 441.754 148.492C441.802 148.213 441.752 147.906 441.603 147.573ZM444.974 144.847L446.499 148.338L445.355 148.838L442.786 142.958L443.885 142.478L444.303 143.435L444.376 143.404C444.375 143.033 444.477 142.691 444.683 142.376C444.892 142.06 445.217 141.805 445.658 141.612C446.059 141.437 446.447 141.368 446.821 141.405C447.195 141.44 447.537 141.585 447.846 141.842C448.156 142.099 448.417 142.469 448.628 142.954L450.262 146.694L449.118 147.194L447.544 143.592C447.358 143.166 447.101 142.881 446.775 142.739C446.447 142.593 446.089 142.605 445.701 142.775C445.435 142.89 445.224 143.051 445.068 143.256C444.914 143.46 444.825 143.699 444.802 143.974C444.781 144.245 444.838 144.536 444.974 144.847ZM451.797 146.024L449.229 140.144L450.373 139.644L452.942 145.524L451.797 146.024ZM449.41 138.984C449.211 139.071 449.011 139.079 448.811 139.009C448.611 138.935 448.471 138.805 448.389 138.619C448.307 138.43 448.307 138.239 448.389 138.045C448.473 137.847 448.614 137.705 448.813 137.618C449.013 137.531 449.212 137.524 449.411 137.598C449.612 137.668 449.754 137.798 449.836 137.987C449.918 138.173 449.916 138.365 449.833 138.563C449.75 138.757 449.609 138.897 449.41 138.984ZM454.658 137.772L455.059 138.691L451.847 140.094L451.446 139.175L454.658 137.772ZM451.692 137.39L452.837 136.89L455.266 142.452C455.363 142.674 455.47 142.827 455.585 142.91C455.699 142.991 455.818 143.029 455.94 143.024C456.064 143.016 456.188 142.984 456.314 142.929C456.405 142.889 456.483 142.848 456.546 142.805C456.61 142.762 456.659 142.729 456.694 142.704L457.313 143.559C457.258 143.614 457.175 143.681 457.064 143.76C456.953 143.841 456.807 143.923 456.624 144.006C456.325 144.143 456.021 144.212 455.712 144.213C455.403 144.215 455.116 144.133 454.853 143.969C454.59 143.804 454.38 143.544 454.225 143.19L451.692 137.39ZM460.179 144.988C460.008 145.063 459.846 145.117 459.694 145.15C459.542 145.186 459.425 145.203 459.343 145.203L459.209 144.144C459.443 144.109 459.64 144.052 459.8 143.973C459.96 143.894 460.077 143.77 460.152 143.6C460.229 143.43 460.26 143.193 460.243 142.89L460.214 142.438L455.461 137.422L456.686 136.886L460.168 140.799L460.229 140.772L459.725 135.559L460.954 135.022L461.442 142.745C461.464 143.1 461.434 143.422 461.353 143.709C461.273 144 461.137 144.251 460.943 144.463C460.75 144.675 460.496 144.85 460.179 144.988ZM467.543 139.145L464.118 131.306L466.913 130.085C467.523 129.818 468.076 129.709 468.574 129.756C469.072 129.803 469.504 129.975 469.872 130.274C470.238 130.57 470.526 130.958 470.735 131.437C470.946 131.92 471.035 132.398 471.002 132.871C470.97 133.341 470.801 133.776 470.496 134.177C470.192 134.574 469.737 134.905 469.13 135.17L467.208 136.01L466.77 135.007L468.584 134.214C468.97 134.046 469.253 133.843 469.435 133.605C469.616 133.365 469.712 133.105 469.723 132.823C469.733 132.542 469.674 132.253 469.545 131.957C469.416 131.661 469.245 131.423 469.032 131.242C468.819 131.062 468.563 130.959 468.264 130.935C467.967 130.91 467.622 130.983 467.229 131.155L465.744 131.803L468.726 138.629L467.543 139.145ZM477.006 132.108L475.502 128.667L476.651 128.165L479.219 134.045L478.094 134.536L477.649 133.518L477.588 133.545C477.59 133.918 477.487 134.274 477.28 134.614C477.074 134.95 476.751 135.214 476.309 135.407C475.931 135.572 475.561 135.635 475.197 135.597C474.835 135.554 474.5 135.404 474.19 135.148C473.883 134.89 473.623 134.518 473.411 134.034L471.778 130.294L472.922 129.794L474.496 133.396C474.671 133.796 474.921 134.067 475.247 134.207C475.573 134.348 475.913 134.34 476.268 134.185C476.482 134.092 476.672 133.945 476.837 133.745C477.004 133.545 477.111 133.305 477.156 133.027C477.205 132.747 477.154 132.441 477.006 132.108ZM480.377 129.382L481.902 132.873L480.757 133.373L478.189 127.493L479.287 127.013L479.705 127.97L479.778 127.938C479.777 127.568 479.88 127.225 480.086 126.91C480.294 126.595 480.619 126.34 481.061 126.147C481.461 125.972 481.849 125.903 482.224 125.94C482.597 125.974 482.939 126.12 483.249 126.377C483.558 126.633 483.819 127.004 484.031 127.489L485.665 131.229L484.52 131.729L482.947 128.127C482.76 127.701 482.504 127.416 482.177 127.273C481.849 127.128 481.491 127.14 481.103 127.309C480.838 127.425 480.627 127.586 480.47 127.791C480.316 127.995 480.228 128.234 480.205 128.509C480.184 128.779 480.241 129.07 480.377 129.382ZM489.786 129.57C489.207 129.823 488.654 129.917 488.127 129.853C487.602 129.784 487.127 129.574 486.702 129.221C486.279 128.865 485.935 128.382 485.668 127.772C485.405 127.17 485.285 126.59 485.309 126.033C485.336 125.474 485.496 124.977 485.789 124.542C486.085 124.106 486.505 123.769 487.052 123.53C487.383 123.385 487.729 123.3 488.088 123.273C488.447 123.247 488.802 123.297 489.152 123.424C489.502 123.551 489.831 123.77 490.138 124.083C490.443 124.393 490.713 124.815 490.946 125.348L491.123 125.754L486.449 127.796L486.074 126.938L489.627 125.387C489.495 125.085 489.317 124.846 489.093 124.667C488.868 124.486 488.615 124.376 488.334 124.338C488.056 124.298 487.768 124.343 487.472 124.472C487.151 124.613 486.905 124.815 486.734 125.078C486.564 125.337 486.47 125.621 486.45 125.931C486.432 126.237 486.487 126.536 486.615 126.83L486.908 127.5C487.079 127.893 487.294 128.197 487.552 128.412C487.813 128.627 488.1 128.752 488.414 128.788C488.727 128.822 489.05 128.766 489.384 128.62C489.601 128.525 489.786 128.408 489.937 128.269C490.088 128.127 490.201 127.965 490.277 127.783C490.352 127.601 490.385 127.403 490.373 127.189L491.542 126.911C491.594 127.268 491.561 127.616 491.441 127.954C491.323 128.288 491.124 128.595 490.845 128.875C490.568 129.151 490.215 129.383 489.786 129.57Z" fill="white"/>
<path d="M153.807 256.229L150.383 248.39L153.323 247.105C153.925 246.842 154.479 246.734 154.986 246.78C155.495 246.825 155.94 246.998 156.321 247.3C156.703 247.598 157.003 247.996 157.22 248.493C157.44 248.996 157.529 249.489 157.488 249.972C157.446 250.455 157.268 250.899 156.953 251.304C156.636 251.707 156.176 252.04 155.571 252.305L153.623 253.156L153.112 251.988L154.87 251.221C155.222 251.067 155.483 250.88 155.654 250.659C155.825 250.438 155.918 250.197 155.931 249.936C155.947 249.674 155.895 249.404 155.773 249.126C155.652 248.847 155.49 248.626 155.288 248.462C155.088 248.297 154.849 248.206 154.57 248.188C154.293 248.166 153.977 248.232 153.623 248.387L152.321 248.956L155.228 255.609L153.807 256.229ZM166.038 246.219C166.407 247.064 166.564 247.856 166.511 248.597C166.459 249.334 166.231 249.98 165.827 250.537C165.425 251.092 164.881 251.52 164.195 251.82C163.508 252.119 162.823 252.229 162.141 252.147C161.459 252.062 160.829 251.788 160.251 251.327C159.674 250.862 159.201 250.208 158.833 249.366C158.464 248.521 158.306 247.73 158.358 246.994C158.411 246.253 158.639 245.605 159.04 245.05C159.444 244.493 159.99 244.065 160.676 243.765C161.363 243.465 162.046 243.357 162.727 243.439C163.41 243.521 164.039 243.794 164.616 244.26C165.195 244.721 165.669 245.374 166.038 246.219ZM164.61 246.843C164.35 246.248 164.038 245.787 163.673 245.46C163.31 245.13 162.919 244.931 162.501 244.864C162.082 244.795 161.659 244.854 161.233 245.04C160.807 245.226 160.477 245.497 160.243 245.851C160.007 246.203 159.886 246.625 159.88 247.117C159.874 247.606 160.001 248.148 160.261 248.742C160.521 249.337 160.832 249.799 161.196 250.13C161.56 250.457 161.952 250.655 162.371 250.724C162.789 250.791 163.212 250.731 163.638 250.545C164.064 250.359 164.395 250.09 164.63 249.738C164.864 249.383 164.984 248.962 164.989 248.473C164.996 247.981 164.87 247.437 164.61 246.843ZM170.87 242.006C170.688 241.688 170.424 241.493 170.077 241.423C169.733 241.351 169.35 241.408 168.929 241.592C168.633 241.721 168.399 241.876 168.226 242.058C168.053 242.24 167.944 242.432 167.899 242.634C167.853 242.836 167.872 243.036 167.955 243.234C168.027 243.397 168.126 243.523 168.252 243.61C168.381 243.697 168.529 243.754 168.696 243.781C168.862 243.806 169.036 243.812 169.219 243.799C169.402 243.786 169.582 243.764 169.759 243.732L170.574 243.594C170.901 243.534 171.226 243.503 171.55 243.501C171.877 243.498 172.188 243.538 172.483 243.622C172.78 243.705 173.048 243.845 173.286 244.042C173.524 244.239 173.717 244.507 173.866 244.846C174.066 245.305 174.126 245.761 174.043 246.213C173.96 246.663 173.74 247.083 173.381 247.474C173.025 247.86 172.532 248.191 171.905 248.465C171.295 248.732 170.724 248.869 170.192 248.876C169.663 248.882 169.193 248.759 168.782 248.507C168.374 248.254 168.046 247.872 167.798 247.36L169.195 246.75C169.335 247.014 169.518 247.204 169.745 247.321C169.972 247.437 170.224 247.488 170.501 247.474C170.779 247.458 171.067 247.386 171.363 247.257C171.672 247.122 171.922 246.958 172.114 246.764C172.308 246.567 172.435 246.357 172.495 246.133C172.554 245.907 172.536 245.681 172.44 245.455C172.349 245.252 172.215 245.11 172.04 245.028C171.863 244.944 171.65 244.904 171.399 244.907C171.149 244.907 170.869 244.932 170.557 244.983L169.564 245.143C168.846 245.259 168.226 245.231 167.704 245.058C167.183 244.881 166.8 244.512 166.555 243.951C166.353 243.489 166.301 243.03 166.4 242.573C166.501 242.116 166.726 241.697 167.077 241.316C167.426 240.932 167.875 240.621 168.423 240.381C168.98 240.138 169.509 240.022 170.013 240.033C170.517 240.041 170.964 240.163 171.354 240.4C171.742 240.635 172.036 240.971 172.237 241.409L170.87 242.006ZM172.844 239.995L172.324 238.805L178.579 236.072L179.099 237.263L176.676 238.321L179.581 244.971L178.172 245.586L175.267 238.937L172.844 239.995ZM179.785 235.546L181.523 234.786L186.332 239.451L186.424 239.41L186.269 232.713L188.007 231.954L191.432 239.793L190.069 240.389L187.716 235.003L187.644 235.035L187.82 241.344L186.802 241.789L182.287 237.361L182.214 237.393L184.572 242.79L183.209 243.385L179.785 235.546ZM193.985 238.678L192.469 239.34L191.805 230.295L193.558 229.529L199.747 236.161L198.231 236.824L193.414 231.506L193.353 231.533L193.985 238.678ZM192.692 235.582L196.827 233.776L197.325 234.917L193.191 236.723L192.692 235.582ZM203.797 225.056L207.222 232.896L205.959 233.448L199.932 229.721L199.867 229.75L202.199 235.09L200.779 235.71L197.354 227.871L198.625 227.315L204.65 231.047L204.719 231.017L202.384 225.673L203.797 225.056Z" fill="white"/>
<path d="M165.422 264.824L164.228 265.345C164.07 265.11 163.887 264.923 163.677 264.784C163.467 264.644 163.242 264.547 163.002 264.491C162.762 264.435 162.514 264.421 162.259 264.45C162.007 264.478 161.756 264.547 161.506 264.656C161.054 264.854 160.699 265.144 160.441 265.527C160.186 265.909 160.051 266.365 160.036 266.894C160.023 267.422 160.155 268.003 160.432 268.636C160.71 269.274 161.048 269.768 161.444 270.117C161.842 270.466 162.269 270.675 162.724 270.743C163.18 270.812 163.631 270.748 164.077 270.553C164.325 270.445 164.545 270.309 164.738 270.146C164.933 269.979 165.092 269.789 165.215 269.578C165.338 269.366 165.42 269.137 165.462 268.891C165.505 268.641 165.496 268.381 165.435 268.109L166.631 267.591C166.736 268.005 166.767 268.413 166.725 268.818C166.684 269.219 166.572 269.599 166.389 269.958C166.207 270.314 165.961 270.636 165.652 270.923C165.343 271.21 164.973 271.448 164.541 271.636C163.863 271.933 163.187 272.036 162.516 271.946C161.844 271.854 161.223 271.574 160.654 271.105C160.087 270.636 159.621 269.984 159.257 269.149C158.891 268.312 158.73 267.527 158.774 266.793C158.818 266.057 159.034 265.412 159.425 264.859C159.814 264.303 160.347 263.877 161.023 263.582C161.439 263.4 161.853 263.291 162.265 263.253C162.679 263.212 163.08 263.244 163.469 263.348C163.856 263.449 164.217 263.623 164.549 263.869C164.881 264.114 165.172 264.432 165.422 264.824ZM171.585 268.573C171.034 268.813 170.498 268.897 169.976 268.824C169.455 268.751 168.982 268.537 168.556 268.182C168.131 267.827 167.785 267.346 167.52 266.738C167.253 266.128 167.134 265.545 167.162 264.989C167.189 264.433 167.353 263.939 167.654 263.507C167.954 263.075 168.38 262.738 168.931 262.498C169.483 262.257 170.019 262.173 170.54 262.246C171.061 262.319 171.535 262.535 171.962 262.892C172.389 263.25 172.735 263.734 173.002 264.344C173.267 264.951 173.385 265.531 173.357 266.085C173.328 266.638 173.163 267.131 172.863 267.563C172.562 267.995 172.136 268.332 171.585 268.573ZM171.169 267.61C171.527 267.454 171.781 267.23 171.934 266.939C172.086 266.648 172.15 266.32 172.125 265.957C172.103 265.593 172.009 265.222 171.844 264.845C171.68 264.47 171.472 264.15 171.22 263.886C170.97 263.619 170.685 263.441 170.367 263.352C170.048 263.263 169.711 263.297 169.353 263.453C168.993 263.61 168.737 263.836 168.583 264.131C168.432 264.425 168.368 264.756 168.391 265.122C168.416 265.485 168.51 265.854 168.674 266.229C168.839 266.607 169.046 266.928 169.296 267.193C169.548 267.457 169.832 267.632 170.15 267.718C170.47 267.803 170.809 267.767 171.169 267.61ZM175.552 266.699L172.983 260.819L174.082 260.339L174.5 261.296L174.573 261.264C174.554 260.886 174.644 260.546 174.843 260.244C175.041 259.938 175.333 259.701 175.721 259.531C176.114 259.36 176.484 259.308 176.829 259.376C177.178 259.442 177.486 259.609 177.754 259.874L177.815 259.848C177.818 259.472 177.932 259.125 178.157 258.805C178.381 258.482 178.705 258.228 179.128 258.043C179.662 257.81 180.17 257.787 180.653 257.974C181.138 258.16 181.528 258.59 181.822 259.264L183.545 263.207L182.4 263.707L180.725 259.871C180.551 259.473 180.316 259.232 180.021 259.148C179.726 259.064 179.428 259.088 179.127 259.22C178.755 259.383 178.515 259.624 178.409 259.944C178.301 260.261 178.325 260.599 178.482 260.956L180.119 264.704L178.978 265.202L177.271 261.293C177.131 260.974 176.92 260.761 176.636 260.654C176.352 260.547 176.051 260.564 175.732 260.703C175.515 260.798 175.339 260.943 175.206 261.138C175.074 261.329 174.996 261.55 174.971 261.801C174.95 262.051 174.997 262.308 175.113 262.573L176.696 266.199L175.552 266.699ZM185.079 262.537L182.51 256.657L183.609 256.177L184.027 257.134L184.1 257.102C184.081 256.725 184.171 256.384 184.37 256.082C184.568 255.776 184.86 255.539 185.248 255.37C185.641 255.198 186.011 255.146 186.356 255.214C186.705 255.281 187.013 255.447 187.281 255.713L187.342 255.686C187.345 255.311 187.459 254.963 187.684 254.643C187.908 254.32 188.232 254.066 188.655 253.881C189.189 253.648 189.697 253.625 190.18 253.813C190.665 253.999 191.055 254.429 191.349 255.102L193.072 259.045L191.927 259.545L190.252 255.709C190.078 255.311 189.843 255.07 189.548 254.986C189.253 254.903 188.955 254.926 188.654 255.058C188.282 255.221 188.042 255.462 187.936 255.782C187.828 256.1 187.852 256.437 188.009 256.794L189.646 260.542L188.505 261.04L186.798 257.132C186.658 256.813 186.447 256.6 186.163 256.493C185.879 256.386 185.578 256.402 185.259 256.541C185.042 256.636 184.866 256.781 184.733 256.976C184.601 257.168 184.523 257.389 184.498 257.639C184.477 257.889 184.524 258.146 184.64 258.412L186.223 262.037L185.079 262.537ZM197.265 254.309L195.762 250.868L196.91 250.366L199.479 256.246L198.353 256.738L197.909 255.72L197.847 255.746C197.849 256.119 197.747 256.476 197.539 256.815C197.334 257.151 197.01 257.416 196.569 257.609C196.191 257.774 195.82 257.837 195.457 257.798C195.095 257.756 194.759 257.606 194.449 257.349C194.142 257.091 193.883 256.72 193.671 256.235L192.037 252.495L193.182 251.995L194.755 255.597C194.93 255.998 195.181 256.269 195.507 256.409C195.832 256.549 196.172 256.542 196.527 256.387C196.742 256.293 196.931 256.147 197.096 255.947C197.264 255.746 197.37 255.507 197.416 255.228C197.464 254.949 197.414 254.643 197.265 254.309ZM200.636 251.583L202.161 255.074L201.017 255.574L198.448 249.695L199.547 249.215L199.965 250.172L200.038 250.14C200.037 249.769 200.14 249.427 200.345 249.112C200.554 248.796 200.879 248.542 201.32 248.349C201.721 248.174 202.109 248.105 202.483 248.142C202.857 248.176 203.199 248.321 203.508 248.578C203.818 248.835 204.079 249.206 204.291 249.691L205.924 253.431L204.78 253.931L203.206 250.328C203.02 249.902 202.764 249.618 202.437 249.475C202.109 249.329 201.751 249.341 201.363 249.511C201.098 249.627 200.887 249.787 200.73 249.992C200.576 250.196 200.488 250.436 200.465 250.71C200.443 250.981 200.5 251.272 200.636 251.583ZM207.459 252.76L204.891 246.88L206.035 246.38L208.604 252.26L207.459 252.76ZM205.073 245.72C204.873 245.807 204.674 245.816 204.473 245.746C204.273 245.672 204.133 245.541 204.051 245.355C203.969 245.166 203.969 244.975 204.051 244.781C204.135 244.583 204.277 244.441 204.476 244.354C204.675 244.267 204.874 244.26 205.073 244.334C205.274 244.405 205.416 244.534 205.498 244.723C205.58 244.909 205.579 245.101 205.495 245.299C205.412 245.493 205.272 245.634 205.073 245.72ZM210.32 244.509L210.721 245.427L207.51 246.83L207.108 245.912L210.32 244.509ZM207.354 244.127L208.499 243.627L210.928 249.189C211.025 249.411 211.132 249.563 211.247 249.647C211.361 249.728 211.48 249.765 211.602 249.761C211.726 249.752 211.851 249.72 211.976 249.666C212.068 249.626 212.145 249.584 212.208 249.541C212.272 249.498 212.321 249.465 212.356 249.44L212.976 250.296C212.92 250.35 212.837 250.417 212.726 250.496C212.616 250.578 212.469 250.66 212.286 250.743C211.988 250.879 211.683 250.948 211.374 250.95C211.065 250.951 210.778 250.87 210.515 250.705C210.252 250.54 210.043 250.281 209.888 249.926L207.354 244.127ZM215.841 251.724C215.67 251.799 215.509 251.853 215.356 251.886C215.204 251.922 215.087 251.94 215.005 251.939L214.871 250.881C215.105 250.846 215.302 250.788 215.462 250.709C215.622 250.63 215.739 250.506 215.814 250.337C215.892 250.166 215.922 249.929 215.905 249.627L215.876 249.174L211.123 244.158L212.348 243.623L215.83 247.535L215.891 247.508L215.387 242.295L216.616 241.758L217.104 249.481C217.126 249.837 217.096 250.158 217.015 250.446C216.935 250.736 216.799 250.987 216.606 251.199C216.413 251.411 216.158 251.586 215.841 251.724ZM223.205 245.882L219.78 238.042L222.575 236.821C223.185 236.555 223.738 236.445 224.236 236.492C224.734 236.539 225.166 236.712 225.534 237.01C225.9 237.306 226.188 237.694 226.398 238.174C226.608 238.656 226.697 239.134 226.664 239.607C226.632 240.077 226.463 240.512 226.158 240.913C225.855 241.31 225.399 241.641 224.792 241.907L222.87 242.746L222.432 241.743L224.246 240.95C224.632 240.782 224.915 240.579 225.097 240.342C225.278 240.102 225.374 239.841 225.385 239.56C225.396 239.278 225.336 238.99 225.207 238.694C225.078 238.398 224.907 238.159 224.694 237.979C224.481 237.798 224.225 237.696 223.926 237.671C223.629 237.646 223.285 237.719 222.892 237.891L221.406 238.54L224.388 245.365L223.205 245.882ZM232.668 238.844L231.165 235.403L232.313 234.901L234.881 240.781L233.756 241.273L233.311 240.254L233.25 240.281C233.252 240.654 233.149 241.011 232.942 241.35C232.736 241.686 232.413 241.951 231.971 242.144C231.593 242.309 231.223 242.372 230.86 242.333C230.498 242.29 230.162 242.141 229.852 241.884C229.545 241.626 229.285 241.255 229.074 240.77L227.44 237.03L228.584 236.53L230.158 240.132C230.333 240.533 230.583 240.803 230.909 240.944C231.235 241.084 231.575 241.077 231.93 240.922C232.144 240.828 232.334 240.681 232.499 240.482C232.666 240.281 232.773 240.041 232.818 239.763C232.867 239.484 232.816 239.177 232.668 238.844ZM236.039 236.118L237.564 239.609L236.419 240.109L233.851 234.229L234.949 233.749L235.368 234.706L235.44 234.675C235.44 234.304 235.542 233.962 235.748 233.647C235.956 233.331 236.281 233.076 236.723 232.884C237.124 232.709 237.511 232.64 237.886 232.676C238.26 232.711 238.601 232.856 238.911 233.113C239.221 233.37 239.481 233.741 239.693 234.225L241.327 237.965L240.182 238.465L238.609 234.863C238.423 234.437 238.166 234.153 237.839 234.01C237.511 233.864 237.153 233.876 236.765 234.046C236.5 234.162 236.289 234.322 236.133 234.527C235.979 234.731 235.89 234.971 235.867 235.245C235.846 235.516 235.903 235.807 236.039 236.118ZM245.448 236.307C244.869 236.56 244.316 236.654 243.789 236.589C243.264 236.521 242.789 236.31 242.364 235.958C241.941 235.602 241.597 235.119 241.33 234.509C241.067 233.906 240.948 233.326 240.971 232.769C240.998 232.21 241.158 231.714 241.451 231.279C241.747 230.842 242.168 230.505 242.714 230.267C243.045 230.122 243.391 230.036 243.75 230.01C244.11 229.983 244.464 230.034 244.814 230.16C245.164 230.287 245.493 230.507 245.8 230.819C246.105 231.13 246.375 231.551 246.608 232.085L246.785 232.49L242.111 234.532L241.736 233.675L245.289 232.123C245.157 231.822 244.98 231.582 244.756 231.403C244.53 231.222 244.277 231.112 243.996 231.074C243.718 231.034 243.43 231.079 243.134 231.209C242.813 231.349 242.567 231.551 242.396 231.814C242.227 232.073 242.132 232.358 242.112 232.667C242.094 232.973 242.149 233.273 242.277 233.566L242.57 234.236C242.741 234.629 242.956 234.933 243.215 235.149C243.475 235.363 243.762 235.488 244.076 235.525C244.389 235.558 244.712 235.502 245.046 235.356C245.263 235.261 245.448 235.144 245.6 235.005C245.75 234.863 245.864 234.701 245.939 234.519C246.015 234.337 246.047 234.14 246.035 233.926L247.204 233.648C247.256 234.005 247.223 234.352 247.103 234.69C246.985 235.024 246.786 235.331 246.507 235.611C246.23 235.887 245.877 236.119 245.448 236.307Z" fill="white"/>
<line x1="340.055" y1="161.575" x2="335.537" y2="201.841" stroke="white" stroke-width="0.653522"/>
<path d="M487.97 302.919L488.627 294.389L491.826 294.635C492.481 294.686 493.021 294.85 493.447 295.129C493.875 295.408 494.187 295.77 494.381 296.215C494.579 296.657 494.657 297.149 494.616 297.691C494.573 298.238 494.421 298.715 494.158 299.122C493.894 299.529 493.529 299.837 493.06 300.047C492.592 300.254 492.028 300.332 491.37 300.281L489.25 300.118L489.348 298.848L491.26 298.995C491.643 299.025 491.962 298.982 492.216 298.868C492.471 298.753 492.666 298.584 492.8 298.36C492.938 298.136 493.018 297.872 493.041 297.569C493.064 297.267 493.025 296.996 492.924 296.756C492.825 296.517 492.657 296.323 492.419 296.177C492.185 296.027 491.875 295.938 491.489 295.908L490.073 295.799L489.516 303.038L487.97 302.919ZM503.469 299.822C503.398 300.741 503.165 301.515 502.77 302.144C502.379 302.77 501.874 303.234 501.256 303.535C500.64 303.837 499.959 303.959 499.212 303.902C498.465 303.844 497.809 303.619 497.245 303.227C496.683 302.831 496.255 302.294 495.961 301.615C495.67 300.934 495.56 300.135 495.63 299.218C495.701 298.299 495.932 297.527 496.324 296.901C496.719 296.272 497.224 295.806 497.839 295.505C498.457 295.203 499.14 295.081 499.887 295.139C500.634 295.196 501.288 295.421 501.85 295.813C502.415 296.206 502.843 296.743 503.134 297.425C503.428 298.104 503.54 298.903 503.469 299.822ZM501.915 299.702C501.965 299.055 501.906 298.502 501.737 298.042C501.572 297.58 501.32 297.221 500.982 296.966C500.644 296.708 500.244 296.561 499.78 296.526C499.316 296.49 498.898 296.574 498.525 296.777C498.152 296.977 497.847 297.293 497.61 297.724C497.376 298.153 497.234 298.691 497.184 299.338C497.134 299.985 497.192 300.54 497.357 301.002C497.526 301.462 497.779 301.821 498.117 302.079C498.454 302.334 498.855 302.479 499.319 302.515C499.783 302.551 500.201 302.468 500.574 302.268C500.947 302.065 501.251 301.749 501.485 301.32C501.722 300.888 501.865 300.349 501.915 299.702ZM509.713 298.371C509.702 298.004 509.56 297.709 509.287 297.484C509.017 297.259 508.652 297.129 508.194 297.094C507.872 297.069 507.592 297.096 507.354 297.176C507.116 297.255 506.93 297.373 506.795 297.531C506.66 297.688 506.583 297.873 506.563 298.087C506.55 298.265 506.578 298.422 506.649 298.558C506.722 298.695 506.826 298.815 506.96 298.918C507.095 299.017 507.246 299.104 507.414 299.179C507.581 299.253 507.751 299.318 507.922 299.373L508.707 299.634C509.023 299.734 509.325 299.859 509.612 300.01C509.902 300.161 510.158 300.342 510.379 300.555C510.603 300.768 510.773 301.017 510.891 301.303C511.009 301.588 511.053 301.916 511.025 302.285C510.986 302.785 510.825 303.215 510.54 303.576C510.256 303.934 509.863 304.201 509.364 304.378C508.867 304.552 508.277 304.612 507.594 304.56C506.931 304.509 506.362 304.362 505.89 304.118C505.419 303.876 505.062 303.546 504.818 303.131C504.576 302.716 504.466 302.224 504.487 301.656L506.007 301.773C506.007 302.072 506.079 302.326 506.225 302.535C506.371 302.745 506.569 302.908 506.82 303.025C507.074 303.143 507.361 303.214 507.683 303.238C508.019 303.264 508.318 303.237 508.578 303.156C508.841 303.073 509.052 302.947 509.21 302.778C509.369 302.606 509.459 302.398 509.481 302.153C509.495 301.931 509.444 301.743 509.327 301.589C509.211 301.432 509.041 301.296 508.818 301.181C508.598 301.063 508.338 300.954 508.039 300.853L507.088 300.528C506.399 300.293 505.865 299.977 505.485 299.579C505.108 299.179 504.943 298.673 504.99 298.062C505.029 297.559 505.199 297.13 505.5 296.773C505.804 296.417 506.2 296.153 506.688 295.981C507.176 295.806 507.719 295.742 508.316 295.788C508.921 295.834 509.443 295.98 509.882 296.227C510.325 296.47 510.662 296.788 510.894 297.18C511.127 297.569 511.229 298.005 511.2 298.486L509.713 298.371ZM512.4 297.522L512.5 296.227L519.306 296.751L519.206 298.046L516.569 297.843L516.012 305.078L514.48 304.96L515.037 297.725L512.4 297.522ZM520.618 296.852L522.508 296.998L524.565 303.373L524.665 303.381L527.673 297.395L529.564 297.541L528.907 306.071L527.425 305.957L527.876 300.096L527.797 300.09L524.99 305.744L523.882 305.659L521.975 299.629L521.896 299.623L521.444 305.496L519.961 305.382L520.618 296.852ZM531.685 306.285L530.036 306.158L533.696 297.859L535.603 298.006L537.954 306.767L536.304 306.64L534.548 299.684L534.481 299.679L531.685 306.285ZM531.997 302.944L536.495 303.291L536.4 304.532L531.901 304.185L531.997 302.944ZM546.744 298.863L546.087 307.393L544.712 307.287L541.141 301.168L541.07 301.162L540.622 306.973L539.077 306.854L539.734 298.324L541.117 298.43L544.684 304.554L544.759 304.559L545.207 298.745L546.744 298.863Z" fill="black"/>
<path d="M493.15 317.834L491.994 317.745C491.969 317.494 491.903 317.271 491.797 317.074C491.69 316.877 491.554 316.706 491.389 316.562C491.224 316.418 491.035 316.304 490.823 316.221C490.614 316.137 490.388 316.087 490.146 316.068C489.709 316.034 489.309 316.114 488.947 316.307C488.587 316.5 488.291 316.802 488.058 317.211C487.828 317.62 487.689 318.131 487.642 318.743C487.595 319.36 487.653 319.888 487.818 320.328C487.985 320.768 488.233 321.11 488.562 321.354C488.891 321.597 489.271 321.736 489.703 321.769C489.943 321.788 490.172 321.773 490.392 321.725C490.614 321.675 490.818 321.593 491.003 321.478C491.188 321.363 491.348 321.218 491.484 321.042C491.621 320.864 491.723 320.656 491.789 320.418L492.943 320.51C492.853 320.878 492.707 321.212 492.505 321.512C492.306 321.809 492.059 322.061 491.765 322.267C491.474 322.47 491.147 322.62 490.785 322.716C490.422 322.813 490.033 322.845 489.616 322.813C488.959 322.762 488.386 322.562 487.897 322.211C487.407 321.858 487.037 321.379 486.786 320.774C486.537 320.169 486.444 319.462 486.506 318.655C486.568 317.846 486.77 317.162 487.11 316.605C487.451 316.045 487.891 315.63 488.428 315.358C488.965 315.085 489.561 314.973 490.215 315.023C490.618 315.054 490.988 315.141 491.327 315.284C491.669 315.424 491.971 315.616 492.233 315.86C492.495 316.101 492.705 316.388 492.863 316.72C493.021 317.05 493.117 317.421 493.15 317.834ZM496.422 323.348C495.889 323.307 495.433 323.149 495.055 322.874C494.676 322.599 494.394 322.233 494.208 321.777C494.022 321.321 493.952 320.799 493.997 320.212C494.043 319.622 494.192 319.114 494.446 318.689C494.699 318.264 495.034 317.945 495.451 317.731C495.867 317.518 496.341 317.431 496.875 317.472C497.408 317.513 497.864 317.671 498.242 317.946C498.621 318.221 498.903 318.588 499.088 319.047C499.274 319.506 499.344 320.03 499.299 320.62C499.254 321.207 499.104 321.712 498.851 322.134C498.597 322.557 498.262 322.875 497.846 323.089C497.43 323.302 496.955 323.389 496.422 323.348ZM496.497 322.419C496.843 322.445 497.136 322.376 497.377 322.211C497.619 322.046 497.805 321.816 497.937 321.52C498.072 321.225 498.153 320.895 498.181 320.53C498.209 320.167 498.179 319.83 498.091 319.517C498.006 319.203 497.857 318.945 497.645 318.742C497.432 318.539 497.153 318.425 496.807 318.398C496.459 318.371 496.163 318.442 495.919 318.609C495.678 318.777 495.49 319.009 495.355 319.307C495.223 319.602 495.143 319.931 495.116 320.294C495.087 320.659 495.116 320.998 495.201 321.31C495.289 321.622 495.439 321.878 495.652 322.078C495.868 322.278 496.149 322.392 496.497 322.419ZM500.317 323.532L500.755 317.846L501.818 317.927L501.747 318.853L501.817 318.858C501.96 318.554 502.172 318.325 502.455 318.17C502.737 318.013 503.066 317.949 503.441 317.978C503.821 318.007 504.133 318.121 504.376 318.318C504.622 318.516 504.794 318.775 504.893 319.095L504.953 319.1C505.112 318.807 505.346 318.581 505.656 318.424C505.967 318.264 506.327 318.2 506.736 318.232C507.252 318.271 507.661 318.465 507.962 318.814C508.265 319.162 508.391 319.662 508.341 320.314L508.048 324.127L506.941 324.042L507.226 320.333C507.256 319.947 507.173 319.661 506.976 319.472C506.78 319.283 506.536 319.177 506.244 319.155C505.884 319.127 505.595 319.216 505.378 319.423C505.162 319.627 505.04 319.902 505.013 320.248L504.734 323.872L503.631 323.787L503.922 320.007C503.946 319.699 503.869 319.443 503.69 319.241C503.512 319.039 503.269 318.925 502.961 318.902C502.751 318.886 502.553 318.926 502.367 319.024C502.183 319.119 502.029 319.26 501.906 319.446C501.785 319.633 501.714 319.855 501.694 320.111L501.424 323.617L500.317 323.532ZM509.531 324.242L509.969 318.555L511.032 318.637L510.96 319.562L511.031 319.568C511.173 319.263 511.386 319.034 511.669 318.879C511.951 318.722 512.28 318.658 512.655 318.687C513.035 318.717 513.347 318.83 513.59 319.027C513.835 319.225 514.008 319.484 514.107 319.805L514.167 319.809C514.326 319.516 514.56 319.291 514.87 319.133C515.181 318.974 515.541 318.909 515.95 318.941C516.466 318.981 516.875 319.175 517.175 319.523C517.479 319.872 517.605 320.372 517.555 321.023L517.262 324.837L516.155 324.752L516.44 321.042C516.47 320.657 516.387 320.37 516.19 320.181C515.994 319.992 515.75 319.886 515.458 319.864C515.098 319.836 514.809 319.926 514.592 320.132C514.376 320.337 514.254 320.612 514.227 320.957L513.948 324.582L512.845 324.497L513.136 320.717C513.16 320.408 513.083 320.153 512.904 319.95C512.726 319.748 512.483 319.635 512.175 319.611C511.965 319.595 511.767 319.636 511.58 319.733C511.397 319.828 511.243 319.969 511.12 320.156C510.999 320.342 510.928 320.564 510.908 320.821L510.638 324.327L509.531 324.242ZM522.529 322.87L522.785 319.542L523.896 319.627L523.458 325.314L522.37 325.23L522.446 324.245L522.386 324.241C522.232 324.534 522.003 324.771 521.699 324.951C521.397 325.129 521.033 325.202 520.606 325.169C520.24 325.141 519.923 325.035 519.654 324.853C519.388 324.669 519.187 324.411 519.051 324.081C518.917 323.75 518.869 323.35 518.905 322.881L519.183 319.264L520.29 319.35L520.022 322.833C519.992 323.221 520.076 323.538 520.273 323.784C520.47 324.03 520.74 324.166 521.083 324.192C521.29 324.208 521.5 324.172 521.713 324.085C521.928 323.997 522.112 323.853 522.264 323.654C522.418 323.455 522.507 323.193 522.529 322.87ZM526.313 322.137L526.053 325.514L524.946 325.428L525.383 319.742L526.446 319.823L526.375 320.749L526.445 320.754C526.599 320.463 526.823 320.237 527.116 320.076C527.411 319.915 527.772 319.851 528.199 319.884C528.587 319.914 528.92 320.021 529.198 320.207C529.477 320.39 529.685 320.646 529.821 320.977C529.957 321.308 530.006 321.708 529.97 322.177L529.692 325.794L528.585 325.708L528.853 322.225C528.885 321.813 528.802 321.482 528.605 321.234C528.409 320.983 528.123 320.843 527.748 320.814C527.491 320.794 527.258 320.832 527.05 320.928C526.844 321.024 526.675 321.174 526.542 321.38C526.412 321.584 526.336 321.836 526.313 322.137ZM531.177 325.908L531.614 320.221L532.721 320.307L532.283 325.993L531.177 325.908ZM532.241 319.387C532.048 319.372 531.888 319.295 531.76 319.156C531.634 319.015 531.578 318.854 531.592 318.674C531.606 318.491 531.686 318.341 531.831 318.223C531.98 318.103 532.15 318.05 532.343 318.065C532.535 318.08 532.694 318.158 532.82 318.299C532.948 318.438 533.005 318.599 532.991 318.782C532.977 318.962 532.896 319.112 532.748 319.232C532.602 319.35 532.433 319.402 532.241 319.387ZM536.865 320.626L536.797 321.514L533.69 321.275L533.759 320.386L536.865 320.626ZM534.697 319.088L535.804 319.173L535.39 324.553C535.373 324.767 535.393 324.932 535.448 325.045C535.504 325.156 535.582 325.235 535.68 325.283C535.781 325.328 535.891 325.355 536.012 325.364C536.101 325.371 536.179 325.371 536.247 325.364C536.315 325.356 536.367 325.351 536.405 325.346L536.534 326.276C536.468 326.296 536.375 326.313 536.255 326.329C536.134 326.347 535.985 326.35 535.807 326.339C535.515 326.322 535.248 326.249 535.004 326.121C534.761 325.993 534.57 325.809 534.432 325.57C534.294 325.331 534.238 325.04 534.265 324.697L534.697 319.088ZM538.187 328.593C538.022 328.58 537.872 328.555 537.739 328.517C537.605 328.482 537.506 328.447 537.441 328.413L537.778 327.526C537.976 327.596 538.154 327.633 538.313 327.638C538.471 327.643 538.615 327.594 538.745 327.493C538.877 327.391 538.999 327.218 539.113 326.973L539.279 326.606L537.642 320.685L538.826 320.777L539.927 325.301L539.986 325.305L541.766 321.003L542.954 321.094L540.115 327.36C539.983 327.647 539.826 327.887 539.642 328.079C539.458 328.274 539.246 328.414 539.006 328.5C538.766 328.585 538.493 328.616 538.187 328.593ZM546.405 327.08L546.988 319.498L549.691 319.706C550.281 319.752 550.761 319.897 551.132 320.141C551.503 320.386 551.771 320.702 551.935 321.089C552.099 321.474 552.163 321.899 552.127 322.363C552.091 322.829 551.961 323.242 551.738 323.599C551.517 323.955 551.203 324.226 550.796 324.413C550.392 324.598 549.896 324.668 549.309 324.623L547.45 324.48L547.525 323.51L549.28 323.645C549.653 323.673 549.96 323.632 550.202 323.522C550.444 323.409 550.628 323.244 550.754 323.028C550.88 322.812 550.954 322.561 550.976 322.274C550.998 321.988 550.963 321.73 550.871 321.499C550.78 321.269 550.622 321.081 550.397 320.937C550.175 320.794 549.873 320.707 549.493 320.678L548.057 320.567L547.549 327.168L546.405 327.08ZM556.768 325.506L557.025 322.178L558.135 322.263L557.697 327.95L556.609 327.866L556.685 326.881L556.626 326.877C556.471 327.17 556.242 327.407 555.938 327.587C555.636 327.765 555.272 327.838 554.845 327.805C554.479 327.777 554.162 327.671 553.893 327.489C553.627 327.305 553.426 327.047 553.29 326.717C553.156 326.386 553.108 325.986 553.144 325.517L553.422 321.9L554.529 321.986L554.261 325.469C554.231 325.857 554.315 326.174 554.512 326.42C554.709 326.666 554.979 326.802 555.322 326.828C555.529 326.844 555.74 326.808 555.952 326.721C556.168 326.633 556.351 326.489 556.503 326.29C556.658 326.091 556.746 325.83 556.768 325.506ZM560.552 324.773L560.292 328.15L559.185 328.064L559.623 322.378L560.685 322.46L560.614 323.385L560.684 323.39C560.838 323.099 561.062 322.873 561.355 322.712C561.65 322.551 562.011 322.487 562.438 322.52C562.826 322.55 563.159 322.657 563.438 322.843C563.717 323.026 563.924 323.282 564.06 323.613C564.196 323.944 564.246 324.344 564.21 324.813L563.931 328.43L562.824 328.345L563.092 324.861C563.124 324.449 563.042 324.118 562.845 323.87C562.648 323.619 562.362 323.479 561.987 323.45C561.73 323.43 561.498 323.468 561.289 323.564C561.083 323.66 560.914 323.81 560.781 324.016C560.651 324.22 560.575 324.472 560.552 324.773ZM567.858 328.847C567.297 328.804 566.824 328.648 566.438 328.377C566.054 328.104 565.769 327.741 565.583 327.287C565.4 326.831 565.331 326.308 565.376 325.718C565.421 325.136 565.569 324.631 565.821 324.203C566.075 323.776 566.407 323.452 566.819 323.233C567.233 323.015 567.704 322.925 568.232 322.966C568.553 322.991 568.86 323.068 569.153 323.197C569.446 323.326 569.703 323.514 569.925 323.759C570.147 324.005 570.313 324.314 570.424 324.688C570.534 325.059 570.57 325.502 570.53 326.018L570.5 326.41L565.979 326.062L566.043 325.233L569.479 325.498C569.501 325.206 569.462 324.944 569.361 324.71C569.26 324.474 569.107 324.282 568.902 324.135C568.7 323.988 568.456 323.903 568.169 323.881C567.858 323.857 567.581 323.913 567.337 324.048C567.096 324.181 566.903 324.365 566.758 324.599C566.616 324.832 566.534 325.09 566.513 325.374L566.463 326.021C566.433 326.402 566.475 326.73 566.588 327.007C566.703 327.284 566.876 327.502 567.107 327.661C567.339 327.818 567.616 327.909 567.939 327.934C568.149 327.95 568.343 327.935 568.52 327.889C568.697 327.841 568.854 327.761 568.989 327.65C569.124 327.538 569.232 327.397 569.312 327.224L570.345 327.493C570.238 327.796 570.066 328.054 569.831 328.27C569.599 328.483 569.315 328.641 568.979 328.744C568.646 328.845 568.272 328.879 567.858 328.847Z" fill="black"/>
<path d="M49.0335 343.671L20.7934 279.025L46.2985 267.883C51.2016 265.741 55.7879 264.853 60.0572 265.218C64.3174 265.563 68.074 266.991 71.327 269.505C74.5918 271.988 77.1619 275.376 79.0373 279.669C80.9126 283.962 81.6413 288.154 81.2236 292.246C80.8058 296.338 79.2396 300.066 76.5251 303.432C73.8316 306.789 70.0017 309.552 65.0353 311.722L48.779 318.823L43.9942 307.87L58.0409 301.734C60.6714 300.585 62.6413 299.185 63.9505 297.536C65.2716 295.856 65.9991 294.022 66.133 292.034C66.2788 290.016 65.8875 287.944 64.959 285.819C64.0213 283.672 62.7718 281.988 61.2103 280.765C59.6607 279.513 57.8301 278.821 55.7184 278.691C53.5976 278.54 51.2114 279.044 48.5598 280.202L39.3427 284.228L62.7014 337.701L49.0335 343.671Z" fill="#FF6C37"/>
<defs>
<filter id="filter0_f_148_1344" x="223.46" y="136.651" width="314.577" height="316.375" filterUnits="userSpaceOnUse" color-interpolation-filters="sRGB">
<feFlood flood-opacity="0" result="BackgroundImageFix"/>
<feBlend mode="normal" in="SourceGraphic" in2="BackgroundImageFix" result="shape"/>
<feGaussianBlur stdDeviation="65.3521" result="effect1_foregroundBlur_148_1344"/>
</filter>
</defs>
</svg>
