<svg width="1440" height="392" viewBox="0 0 1440 392" fill="none" xmlns="http://www.w3.org/2000/svg">
<g clip-path="url(#clip0_47_8964)">
<mask id="mask0_47_8964" style="mask-type:luminance" maskUnits="userSpaceOnUse" x="0" y="0" width="1440" height="392">
<path d="M0 0H1440V392H0V0Z" fill="white"/>
</mask>
<g mask="url(#mask0_47_8964)">
<path d="M338.695 372.155H325.965C325.635 375.591 324.342 378.864 322.235 381.603C320.127 384.34 317.29 386.432 314.047 387.638C294.39 394.841 289.965 372.939 289.965 372.939V372.203H263.205C259.84 381.244 254.727 388.936 247.134 388.619C232.39 388.03 228.999 378.819 228.483 372.203H220.816C218.307 372.203 215.9 373.196 214.126 374.967C212.352 376.734 211.355 379.134 211.355 381.636C211.355 384.137 212.352 386.537 214.126 388.307C215.9 390.075 218.307 391.069 220.816 391.069H338.767C341.277 391.069 343.685 390.075 345.457 388.307C347.232 386.537 348.23 384.137 348.23 381.636C348.23 379.134 347.232 376.734 345.457 374.967C343.685 373.196 341.277 372.203 338.767 372.203L338.695 372.155Z" fill="#E5E5E5"/>
<path d="M944.676 372.155H912.361C907.276 379.014 907.054 379.089 899.436 378.769C884.691 378.183 889.264 376.565 883.266 372.155H875.599C874.359 372.155 873.126 372.397 871.979 372.872C870.831 373.346 869.789 374.04 868.911 374.917C868.031 375.793 867.334 376.834 866.859 377.978C866.384 379.121 866.139 380.347 866.139 381.588C866.139 382.827 866.384 384.053 866.859 385.196C867.334 386.342 868.031 387.381 868.911 388.257C869.789 389.134 870.831 389.828 871.979 390.302C873.126 390.777 874.359 391.019 875.599 391.019H988.636C989.879 391.019 991.111 390.777 992.259 390.302C993.406 389.828 994.449 389.134 995.326 388.257C996.206 387.381 996.904 386.342 997.379 385.196C997.854 384.053 998.099 382.827 998.099 381.588C998.099 380.347 997.854 379.121 997.379 377.978C996.904 376.834 996.206 375.793 995.326 374.917C994.449 374.04 993.406 373.346 992.259 372.872C991.111 372.397 989.879 372.155 988.636 372.155H975.934" fill="#E5E5E5"/>
<path d="M1328.95 372.155H1309.59C1305.86 377.838 1310.52 377.446 1302.86 380.24C1283.2 387.443 1280.25 372.889 1280.25 372.889V372.155H1248.57C1244.89 379.726 1242.55 383.988 1234.96 383.671C1220.22 383.081 1216.83 378.769 1216.31 372.155H1211.1C1208.59 372.155 1206.18 373.149 1204.41 374.917C1202.64 376.687 1201.64 379.086 1201.64 381.588C1201.64 384.09 1202.64 386.487 1204.41 388.257C1206.18 390.025 1208.59 391.019 1211.1 391.019H1329.05C1330.29 391.019 1331.53 390.777 1332.67 390.302C1333.82 389.828 1334.86 389.134 1335.74 388.257C1336.62 387.381 1337.32 386.342 1337.79 385.196C1338.27 384.053 1338.51 382.827 1338.51 381.588C1338.51 380.347 1338.27 379.121 1337.79 377.978C1337.32 376.834 1336.62 375.793 1335.74 374.917C1334.86 374.04 1333.82 373.346 1332.67 372.872C1331.53 372.397 1330.29 372.155 1329.05 372.155H1328.95Z" fill="#E5E5E5"/>
<path d="M464.044 252.62H443.429C441.094 252.62 439.201 254.505 439.201 256.835V282.167C439.201 284.494 441.094 286.38 443.429 286.38H464.044C466.379 286.38 468.271 284.494 468.271 282.167V256.835C468.271 254.505 466.379 252.62 464.044 252.62Z" fill="#FFDE83" stroke="#3A3836" stroke-miterlimit="10"/>
<path d="M383.59 73.7455C386.713 73.7455 389.243 71.2227 389.243 68.1104C389.243 64.9984 386.713 62.4756 383.59 62.4756C380.47 62.4756 377.938 64.9984 377.938 68.1104C377.938 71.2227 380.47 73.7455 383.59 73.7455Z" stroke="#3A3836" stroke-linecap="round" stroke-linejoin="round"/>
<path d="M457.559 124.705L459.279 129.605" stroke="#3A3836" stroke-linecap="round" stroke-linejoin="round"/>
<path d="M467.385 112.7L471.562 113.68" stroke="#3A3836" stroke-linecap="round" stroke-linejoin="round"/>
<path d="M462.227 95.5502L464.439 92.1201" stroke="#3A3836" stroke-linecap="round" stroke-linejoin="round"/>
<path d="M445.026 92.3651L443.551 88.2002" stroke="#3A3836" stroke-linecap="round" stroke-linejoin="round"/>
<path d="M435.441 105.105L430.281 104.125" stroke="#3A3836" stroke-linecap="round" stroke-linejoin="round"/>
<path d="M438.636 122.255L435.934 125.44" stroke="#3A3836" stroke-linecap="round" stroke-linejoin="round"/>
<path d="M699.113 232.504C725.305 232.504 746.541 211.334 746.541 185.22C746.541 159.105 725.305 137.935 699.113 137.935C672.92 137.935 651.686 159.105 651.686 185.22C651.686 211.334 672.92 232.504 699.113 232.504Z" stroke="#3A3836" stroke-linecap="round" stroke-linejoin="round"/>
<path d="M710.663 321.929V368.969C710.175 373.561 707.995 377.808 704.543 380.887C701.093 383.965 696.618 385.656 691.988 385.631C687.27 385.673 682.715 383.925 679.245 380.739C675.775 377.553 673.655 373.169 673.31 368.48C669.14 319.842 667.418 271.024 668.15 222.215" stroke="#3A3836" stroke-linecap="round" stroke-linejoin="round"/>
<path d="M740.888 208.985C762.266 225.155 791.263 269.254 798.881 284.2C807.481 301.106 791.508 307.965 791.508 307.965C791.508 307.965 780.943 313.111 771.113 299.88C763.251 288.854 752.438 273.174 748.751 268.275C748.751 268.275 748.506 268.031 748.506 268.275C748.506 268.52 748.261 268.52 748.506 268.52L755.633 294.245L775.291 362.355C776.363 367.067 775.516 372.008 772.936 376.098C770.356 380.185 766.253 383.087 761.531 384.16C760.153 384.445 758.756 384.607 757.353 384.65H756.123C752.328 384.677 748.621 383.506 745.531 381.306C742.441 379.107 740.128 375.988 738.923 372.4L719.756 326.341L707.961 319.97" stroke="#3A3836" stroke-linecap="round" stroke-linejoin="round"/>
<path d="M749.981 269.745C749.981 269.745 732.779 249.655 749.981 217.805" stroke="#3A3836" stroke-linecap="round" stroke-linejoin="round"/>
<path d="M750.226 271.214C750.226 271.214 718.036 249.165 732.778 218.785" stroke="#3A3836" stroke-linecap="round" stroke-linejoin="round"/>
<path d="M658.321 213.64C658.321 213.64 658.076 242.305 666.676 257.986" stroke="#3A3836" stroke-linecap="round" stroke-linejoin="round"/>
<path d="M705.504 132.3V138.18" stroke="#3A3836" stroke-linecap="round" stroke-linejoin="round"/>
<path d="M718.28 254.8H708.205C707.95 254.782 707.71 254.675 707.53 254.493C707.348 254.313 707.24 254.073 707.223 253.821V243.53C707.24 243.276 707.348 243.036 707.53 242.856C707.71 242.676 707.95 242.567 708.205 242.55H718.28C718.535 242.567 718.775 242.676 718.955 242.856C719.138 243.036 719.245 243.276 719.263 243.53V253.821C719.245 254.073 719.138 254.313 718.955 254.493C718.775 254.675 718.535 254.782 718.28 254.8Z" stroke="#3A3836" stroke-linecap="round" stroke-linejoin="round"/>
<path d="M759.318 227.36V211.435C759.331 210.691 759.193 209.952 758.916 209.263C758.636 208.573 758.221 207.946 757.693 207.421C757.166 206.895 756.536 206.48 755.846 206.202C755.153 205.923 754.413 205.786 753.666 205.8H742.363" stroke="#3A3836" stroke-linecap="round" stroke-linejoin="round"/>
<path d="M758.336 283.221C757.366 283.8 756.269 284.137 755.141 284.199H752.684" stroke="#3A3836" stroke-linecap="round" stroke-linejoin="round"/>
<path opacity="0.7" d="M706.487 130.829C710.152 130.829 713.122 127.868 713.122 124.215C713.122 120.561 710.152 117.6 706.487 117.6C702.822 117.6 699.852 120.561 699.852 124.215C699.852 127.868 702.822 130.829 706.487 130.829Z" fill="#FF6C37"/>
<path d="M706.487 131.809C710.152 131.809 713.122 128.848 713.122 125.194C713.122 121.541 710.152 118.579 706.487 118.579C702.822 118.579 699.852 121.541 699.852 125.194C699.852 128.848 702.822 131.809 706.487 131.809Z" stroke="#3A3836" stroke-linecap="round" stroke-linejoin="round"/>
<path d="M654.881 168.07C661.773 166.847 668.806 166.6 675.768 167.335C694.691 168.805 702.308 176.155 705.503 181.055C706.768 184.157 707.191 187.537 706.731 190.855C705.503 199.43 704.028 220.255 665.448 218.54" stroke="#3A3836" stroke-linecap="round" stroke-linejoin="round"/>
<path d="M728.11 198.205C732.045 198.205 735.235 195.024 735.235 191.1C735.235 187.176 732.045 183.995 728.11 183.995C724.172 183.995 720.982 187.176 720.982 191.1C720.982 195.024 724.172 198.205 728.11 198.205Z" stroke="#3A3836" stroke-linecap="round" stroke-linejoin="round"/>
<path d="M659.796 213.64C649.476 210.21 632.273 201.145 621.953 186.935C620.803 185.375 619.353 184.058 617.688 183.064C616.023 182.069 614.173 181.415 612.251 181.141C610.328 180.868 608.371 180.979 606.493 181.469C604.613 181.959 602.853 182.818 601.311 183.995L601.066 184.24C598.448 186.259 596.606 189.112 595.846 192.323C595.086 195.534 595.453 198.907 596.888 201.88C603.278 215.6 623.181 245 666.431 259.209" stroke="#3A3836" stroke-linecap="round" stroke-linejoin="round"/>
<path d="M327.811 177.624C329.006 181.79 329.828 186.054 330.266 190.364C330.878 201.299 327.686 212.11 321.228 220.97C314.773 229.829 305.446 236.195 294.826 238.992C284.203 241.789 272.941 240.845 262.938 236.321C252.936 231.796 244.804 223.967 239.921 214.157C235.037 204.347 233.699 193.157 236.133 182.477C238.567 171.798 244.624 162.283 253.281 155.541C261.936 148.798 272.661 145.241 283.643 145.47C294.626 145.7 305.191 149.702 313.558 156.799C313.558 156.799 325.353 165.864 327.811 177.624Z" stroke="#3A3836" stroke-linecap="round" stroke-linejoin="round"/>
<path d="M246.471 223.439C224.355 238.629 198.307 275.134 190.198 289.835C180.86 306.494 196.587 313.844 196.587 313.844C196.587 313.844 206.908 319.479 217.229 306.494C225.584 295.715 236.642 283.71 240.328 278.809L239.099 306.494L227.55 367.498C227.058 370.007 227.058 372.587 227.55 375.094C228.517 379.076 230.776 382.626 233.975 385.196C237.175 387.765 241.135 389.208 245.242 389.305C255.318 389.55 260.723 382.689 264.165 371.665L275.96 332.218L288.493 323.155" stroke="#3A3836" stroke-linecap="round" stroke-linejoin="round"/>
<path d="M240.083 279.546C240.083 279.546 253.106 260.924 237.871 230.3" stroke="#3A3836" stroke-linecap="round" stroke-linejoin="round"/>
<path d="M240.082 283.711C240.082 283.711 262.69 256.76 250.648 227.36" stroke="#3A3836" stroke-linecap="round" stroke-linejoin="round"/>
<path d="M226.322 241.57L224.602 227.36C224.537 226.613 224.629 225.86 224.871 225.151C225.114 224.441 225.501 223.789 226.009 223.236C226.518 222.683 227.136 222.242 227.824 221.939C228.512 221.637 229.256 221.481 230.008 221.48L244.506 220.5" stroke="#3A3836" stroke-linecap="round" stroke-linejoin="round"/>
<path d="M325.353 170.274C319.456 170.764 314.786 171.744 303.973 172.969C285.298 175.174 277.926 183.014 274.976 188.159C273.758 191.28 273.503 194.692 274.241 197.959C275.961 207.269 283.578 229.319 318.963 222.704" stroke="#3A3836" stroke-linecap="round" stroke-linejoin="round"/>
<path d="M321.665 247.449C321.665 247.449 324.86 284.933 324.368 296.449L326.088 370.195C326.175 372.569 325.78 374.936 324.93 377.156C324.083 379.375 322.793 381.403 321.143 383.116C319.493 384.828 317.515 386.194 315.325 387.133C313.135 388.069 310.778 388.559 308.395 388.569H307.658C303.33 388.449 299.185 386.808 295.948 383.942C292.713 381.073 290.595 377.161 289.965 372.889L286.035 325.849" stroke="#3A3836" stroke-linecap="round" stroke-linejoin="round"/>
<path d="M323.214 218.564C323.214 218.564 331.251 238.63 321.666 247.205C321.666 247.205 321.666 232.064 315.229 228.879" stroke="#3A3836" stroke-linecap="round" stroke-linejoin="round"/>
<path d="M267.605 142.1L269.57 147" stroke="#3A3836" stroke-linecap="round" stroke-linejoin="round"/>
<path opacity="0.7" d="M265.149 140.875C268.811 140.875 271.784 137.913 271.784 134.26C271.784 130.606 268.811 127.645 265.149 127.645C261.484 127.645 258.514 130.606 258.514 134.26C258.514 137.913 261.484 140.875 265.149 140.875Z" fill="#FF6C37"/>
<path d="M265.393 141.855C269.058 141.855 272.028 138.893 272.028 135.24C272.028 131.587 269.058 128.625 265.393 128.625C261.728 128.625 258.758 131.587 258.758 135.24C258.758 138.893 261.728 141.855 265.393 141.855Z" stroke="#3A3836" stroke-linecap="round" stroke-linejoin="round"/>
<path d="M232.219 288.879L231.974 294.734C231.931 295.51 232.044 296.284 232.307 297.016C232.569 297.745 232.976 298.417 233.503 298.986C234.03 299.558 234.666 300.017 235.374 300.339C236.082 300.661 236.848 300.839 237.625 300.861H239.346" stroke="#3A3836" stroke-linecap="round" stroke-linejoin="round"/>
<path d="M304.956 262.884H294.881C294.626 262.867 294.386 262.759 294.206 262.577C294.026 262.397 293.916 262.158 293.898 261.905V251.614C293.916 251.361 294.026 251.122 294.206 250.939C294.386 250.76 294.626 250.652 294.881 250.635H304.956C305.211 250.652 305.451 250.76 305.633 250.939C305.813 251.122 305.923 251.361 305.938 251.614V261.905C305.951 262.035 305.933 262.168 305.888 262.292C305.841 262.417 305.771 262.53 305.676 262.622C305.583 262.714 305.471 262.787 305.346 262.832C305.221 262.877 305.088 262.897 304.956 262.884Z" stroke="#3A3836" stroke-linecap="round" stroke-linejoin="round"/>
<path d="M324.367 222.092C327.317 233.362 337.885 247.939 343.535 249.042C348.695 250.021 353.61 250.757 358.525 246.102C363.685 240.957 368.6 240.957 373.76 246.102C376.257 248.904 377.635 252.522 377.635 256.27C377.635 260.018 376.257 263.633 373.76 266.437C362.702 277.216 352.627 280.402 344.765 280.402C341.467 280.317 338.182 279.99 334.935 279.421C334.935 279.421 327.072 277.461 324.615 273.788" stroke="#3A3836" stroke-linecap="round" stroke-linejoin="round"/>
<path d="M364.179 226.87C368.252 226.87 371.552 215.901 371.552 202.37C371.552 188.839 368.252 177.87 364.179 177.87C360.107 177.87 356.807 188.839 356.807 202.37C356.807 215.901 360.107 226.87 364.179 226.87Z" stroke="#3A3836" stroke-linecap="round" stroke-linejoin="round"/>
<path d="M364.424 232.75C371.211 232.75 376.711 218.929 376.711 201.88C376.711 184.831 371.211 171.01 364.424 171.01C357.639 171.01 352.139 184.831 352.139 201.88C352.139 218.929 357.639 232.75 364.424 232.75Z" stroke="#3A3836" stroke-linecap="round" stroke-linejoin="round"/>
<path d="M364.424 232.75V242.795" stroke="#3A3836" stroke-linecap="round" stroke-linejoin="round"/>
<path d="M366.143 225.988C366.143 225.988 370.345 221.235 383.86 221.97C388.098 222.219 392.258 223.215 396.148 224.91C401.225 226.819 406.74 227.268 412.063 226.207C417.385 225.146 422.3 222.617 426.253 218.908C430.205 215.199 433.033 210.458 434.415 205.226C435.8 199.993 435.683 194.479 434.078 189.309C432.473 184.14 429.443 179.524 425.338 175.985C421.23 172.447 416.21 170.129 410.848 169.294C405.485 168.46 399.995 169.142 395.003 171.265C390.01 173.387 385.715 176.864 382.608 181.3C382.608 181.3 374.35 193.55 366.488 179.095" stroke="#3A3836" stroke-linecap="round" stroke-linejoin="round"/>
<path d="M401.038 183.995C401.038 183.995 392.438 200.9 402.265 211.435" stroke="#3A3836" stroke-linecap="round" stroke-linejoin="round"/>
<path d="M393.176 190.855C393.176 190.855 403.988 197.47 418.241 190.12" stroke="#3A3836" stroke-linecap="round" stroke-linejoin="round"/>
<path d="M408.41 201.389C403.207 200.973 397.997 202.08 393.42 204.575" stroke="#3A3836" stroke-linecap="round" stroke-linejoin="round"/>
<path d="M407.428 211.925H405.953C402.11 211.918 398.425 210.393 395.708 207.684C392.99 204.974 391.46 201.301 391.455 197.47C391.455 193.636 392.983 189.959 395.7 187.249C398.42 184.538 402.108 183.015 405.953 183.015C409.798 183.015 413.485 184.538 416.205 187.249C418.923 189.959 420.45 193.636 420.45 197.47C420.49 198.375 420.408 199.281 420.205 200.165" stroke="#3A3836" stroke-linecap="round" stroke-linejoin="round"/>
<path d="M411.357 184.24C413.205 188.577 414.125 193.249 414.062 197.96" stroke="#3A3836" stroke-linecap="round" stroke-linejoin="round"/>
<path d="M411.852 207.27L415.537 203.105L419.714 206.781" stroke="#3A3836" stroke-linecap="round" stroke-linejoin="round"/>
<path d="M415.535 205.555V214.375" stroke="#3A3836" stroke-linecap="round" stroke-linejoin="round"/>
<path d="M517.76 144.06C521.502 142.56 525.505 141.814 529.537 141.866C533.567 141.917 537.55 142.765 541.252 144.359C544.952 145.954 548.302 148.264 551.102 151.156C553.902 154.048 556.102 157.465 557.57 161.21C559.415 165.832 560.112 170.832 559.597 175.781C559.085 180.73 557.377 185.482 554.62 189.63" stroke="#3A3836" stroke-linecap="round" stroke-linejoin="round"/>
<path d="M550.935 194.04C548.125 197.004 544.747 199.375 541.002 201.015C537.257 202.654 533.222 203.529 529.132 203.586C525.042 203.643 520.982 202.883 517.192 201.349C513.405 199.815 509.962 197.539 507.07 194.655C504.177 191.772 501.895 188.339 500.355 184.561C498.817 180.783 498.055 176.735 498.112 172.658C498.17 168.58 499.045 164.556 500.69 160.822C502.335 157.089 504.712 153.722 507.685 150.92C508.715 149.812 509.87 148.826 511.127 147.98" stroke="#3A3836" stroke-linecap="round" stroke-linejoin="round"/>
<path d="M550.199 171.99L549.954 171.745C538.896 154.595 518.254 155.085 507.686 172.48L506.951 173.46C517.761 190.61 538.404 190.61 549.216 173.46L550.199 171.99Z" stroke="#3A3836" stroke-linecap="round" stroke-linejoin="round"/>
<path d="M528.573 177.87C531.831 177.87 534.471 175.238 534.471 171.99C534.471 168.743 531.831 166.11 528.573 166.11C525.316 166.11 522.676 168.743 522.676 171.99C522.676 175.238 525.316 177.87 528.573 177.87Z" fill="url(#paint0_linear_47_8964)"/>
<path d="M528.573 177.87C531.831 177.87 534.471 175.238 534.471 171.99C534.471 168.743 531.831 166.11 528.573 166.11C525.316 166.11 522.676 168.743 522.676 171.99C522.676 175.238 525.316 177.87 528.573 177.87Z" stroke="#3A3836" stroke-linecap="round" stroke-linejoin="round"/>
<path d="M633.504 78.1544C627.214 77.9919 621.119 80.3269 616.556 84.6459C611.994 88.9649 609.339 94.9141 609.176 101.184C609.011 107.455 611.354 113.533 615.686 118.082C620.019 122.63 625.986 125.277 632.274 125.439H633.749C636.626 125.484 639.479 124.899 642.104 123.724L659.059 133.034L653.654 114.169C656.949 108.834 657.996 102.416 656.571 96.3138C655.144 90.2113 651.356 84.9173 646.036 81.5843C642.241 79.3404 637.914 78.1557 633.504 78.1544Z" stroke="#3A3836" stroke-linecap="round" stroke-linejoin="round"/>
<path d="M624.656 94.3252H643.331" stroke="#3A3836" stroke-linecap="round" stroke-linejoin="round"/>
<path d="M624.656 101.675H643.331" stroke="#3A3836" stroke-linecap="round" stroke-linejoin="round"/>
<path d="M624.656 109.024H643.331" stroke="#3A3836" stroke-linecap="round" stroke-linejoin="round"/>
<path d="M823.209 129.36L824.929 134.26" stroke="#3A3836" stroke-linecap="round" stroke-linejoin="round"/>
<path d="M835.004 116.865L839.181 117.845" stroke="#3A3836" stroke-linecap="round" stroke-linejoin="round"/>
<path d="M827.633 100.204L829.843 96.7744" stroke="#3A3836" stroke-linecap="round" stroke-linejoin="round"/>
<path d="M813.134 97.2653L811.414 92.8555" stroke="#3A3836" stroke-linecap="round" stroke-linejoin="round"/>
<path d="M803.303 109.759L798.143 109.024" stroke="#3A3836" stroke-linecap="round" stroke-linejoin="round"/>
<path d="M806.497 126.91L803.795 130.095" stroke="#3A3836" stroke-linecap="round" stroke-linejoin="round"/>
<path d="M956.889 191.1C958.141 191.674 959.186 192.614 959.889 193.796C960.591 194.977 960.916 196.344 960.821 197.715" stroke="#3A3836" stroke-linecap="round" stroke-linejoin="round"/>
<path d="M863.018 193.06C864.245 190.61 866.458 189.875 869.898 189.875H872.848" stroke="#3A3836" stroke-linecap="round" stroke-linejoin="round"/>
<path d="M873.339 268.276H869.899C868.084 268.423 866.281 267.869 864.864 266.73C863.446 265.589 862.521 263.951 862.281 262.151V235.2" stroke="#3A3836" stroke-linecap="round" stroke-linejoin="round"/>
<path opacity="0.7" d="M871.863 148.224C869.875 147.737 868.163 146.482 867.103 144.736C866.043 142.99 865.723 140.896 866.213 138.914C866.7 136.932 867.96 135.225 869.71 134.169C871.46 133.112 873.563 132.792 875.55 133.279C875.795 133.279 875.795 133.279 876.04 133.524C877.56 133.95 878.923 134.8 879.973 135.974" fill="#FF6C37"/>
<path d="M871.863 148.224C869.875 147.737 868.163 146.482 867.103 144.736C866.043 142.99 865.723 140.896 866.213 138.914C866.7 136.932 867.96 135.225 869.71 134.169C871.46 133.112 873.563 132.792 875.55 133.279C875.795 133.279 875.795 133.279 876.04 133.524C877.56 133.95 878.923 134.8 879.973 135.974" stroke="#3A3836" stroke-linecap="round" stroke-linejoin="round"/>
<path d="M915.606 214.375C941.664 214.375 962.786 193.315 962.786 167.335C962.786 141.356 941.664 120.295 915.606 120.295C889.549 120.295 868.424 141.356 868.424 167.335C868.424 193.315 889.549 214.375 915.606 214.375Z" stroke="#3A3836" stroke-linecap="round" stroke-linejoin="round"/>
<path d="M872.602 257.005L879.729 361.619C880.092 366.281 882.179 370.64 885.584 373.856C888.989 377.069 893.472 378.907 898.159 379.014C902.999 379.122 907.689 377.336 911.224 374.041C914.762 370.742 916.864 366.198 917.079 361.374L916.344 321.685" stroke="#3A3836" stroke-linecap="round" stroke-linejoin="round"/>
<path d="M904.055 321.93H934.525" stroke="#3A3836" stroke-linecap="round" stroke-linejoin="round"/>
<path d="M874.076 258.964C874.076 258.964 894.669 241.398 886.559 204.403" stroke="#3A3836" stroke-linecap="round" stroke-linejoin="round"/>
<path d="M883.414 201.635L875.796 201.145C865.229 197.47 847.291 185.465 836.724 170.765C834.326 167.576 830.766 165.454 826.811 164.858C822.859 164.262 818.829 165.24 815.591 167.58C815.346 167.58 815.346 167.825 815.101 167.825C812.484 169.956 810.651 172.894 809.896 176.177C809.139 179.459 809.501 182.9 810.924 185.955C817.559 200.165 826.896 223.195 871.374 237.895L872.601 257.005" stroke="#3A3836" stroke-linecap="round" stroke-linejoin="round"/>
<path d="M950.498 200.9C954.141 200.725 957.721 199.895 961.066 198.45C973.553 193.108 984.463 184.675 992.766 173.95C995.163 170.76 998.723 168.639 1002.68 168.043C1006.63 167.447 1010.66 168.425 1013.9 170.765L1014.39 171.255C1017.04 173.361 1018.91 176.284 1019.71 179.566C1020.51 182.847 1020.2 186.301 1018.81 189.385C1012.18 203.595 1001.12 222.705 962.293 239.365L960.821 257.249" stroke="#3A3836" stroke-linecap="round" stroke-linejoin="round"/>
<path d="M871.373 237.895C871.373 237.895 882.676 225.155 875.796 201.635" stroke="#3A3836" stroke-linecap="round" stroke-linejoin="round"/>
<path d="M960.821 197.715C960.821 197.715 954.676 219.765 962.293 239.365" stroke="#3A3836" stroke-linecap="round" stroke-linejoin="round"/>
<path d="M877.025 329.524L874.075 328.79C870.967 328.076 868.145 326.456 865.965 324.134C861.787 319.48 862.035 314.578 862.772 309.435L863.017 306.494C864 299.88 868.915 295.226 874.567 295.715" stroke="#3A3836" stroke-linecap="round" stroke-linejoin="round"/>
<path d="M918.553 338.59C918.553 338.59 975.073 355.494 960.82 257.494C960.82 257.494 944.6 232.26 950.745 201.145" stroke="#3A3836" stroke-linecap="round" stroke-linejoin="round"/>
<path d="M931.578 221.97H939.932C940.19 221.967 940.447 222.015 940.687 222.112C940.927 222.21 941.145 222.354 941.33 222.537C941.513 222.719 941.657 222.937 941.755 223.176C941.852 223.415 941.9 223.671 941.897 223.93V232.75C941.9 233.008 941.852 233.264 941.755 233.504C941.657 233.743 941.513 233.96 941.33 234.143C941.145 234.326 940.927 234.47 940.687 234.567C940.447 234.665 940.19 234.713 939.932 234.71H931.578C931.318 234.713 931.06 234.665 930.82 234.567C930.58 234.47 930.362 234.326 930.18 234.143C929.995 233.96 929.853 233.743 929.755 233.504C929.655 233.264 929.607 233.008 929.61 232.75V223.93C929.365 222.705 930.348 221.97 931.578 221.97Z" stroke="#3A3836" stroke-linecap="round" stroke-linejoin="round"/>
<path d="M1030.36 141.12C1044.88 141.12 1056.66 129.383 1056.66 114.905C1056.66 100.426 1044.88 88.6895 1030.36 88.6895C1015.84 88.6895 1004.07 100.426 1004.07 114.905C1004.07 129.383 1015.84 141.12 1030.36 141.12Z" stroke="#3A3836" stroke-linecap="round" stroke-linejoin="round"/>
<path d="M1022.5 106.575C1023.99 106.575 1025.2 105.368 1025.2 103.88C1025.2 102.391 1023.99 101.185 1022.5 101.185C1021 101.185 1019.79 102.391 1019.79 103.88C1019.79 105.368 1021 106.575 1022.5 106.575Z" fill="#3A3836"/>
<path d="M1022.74 130.83C1024.37 130.83 1025.69 129.514 1025.69 127.89C1025.69 126.267 1024.37 124.95 1022.74 124.95C1021.11 124.95 1019.79 126.267 1019.79 127.89C1019.79 129.514 1021.11 130.83 1022.74 130.83Z" stroke="#3A3836" stroke-linecap="round" stroke-linejoin="round"/>
<path d="M1022.74 130.83C1024.37 130.83 1025.69 129.514 1025.69 127.89C1025.69 126.267 1024.37 124.95 1022.74 124.95C1021.11 124.95 1019.79 126.267 1019.79 127.89C1019.79 129.514 1021.11 130.83 1022.74 130.83Z" fill="url(#paint1_linear_47_8964)"/>
<path d="M1022.75 132.3C1025.19 132.3 1027.17 130.326 1027.17 127.89C1027.17 125.455 1025.19 123.48 1022.75 123.48C1020.3 123.48 1018.32 125.455 1018.32 127.89C1018.32 130.326 1020.3 132.3 1022.75 132.3Z" stroke="#3A3836" stroke-linecap="round" stroke-linejoin="round"/>
<path d="M1022.5 105.84V122.99" stroke="#3A3836" stroke-linecap="round" stroke-linejoin="round"/>
<path d="M1039.46 107.8L1039.7 112.21C1039.7 114.17 1040.19 117.6 1038.72 117.6H1026.92C1024.47 117.6 1022.75 117.6 1022.75 119.805V122.255" stroke="#3A3836" stroke-linecap="round" stroke-linejoin="round"/>
<path d="M1036.01 113.19L1039.46 110.74L1042.9 113.68" stroke="#3A3836" stroke-linecap="round" stroke-linejoin="round"/>
<path d="M1039.46 106.085C1041.9 106.085 1043.88 104.11 1043.88 101.675C1043.88 99.2389 1041.9 97.2646 1039.46 97.2646C1037.01 97.2646 1035.03 99.2389 1035.03 101.675C1035.03 104.11 1037.01 106.085 1039.46 106.085Z" fill="url(#paint2_linear_47_8964)"/>
<path d="M1039.46 106.085C1041.9 106.085 1043.88 104.11 1043.88 101.675C1043.88 99.2389 1041.9 97.2646 1039.46 97.2646C1037.01 97.2646 1035.03 99.2389 1035.03 101.675C1035.03 104.11 1037.01 106.085 1039.46 106.085Z" stroke="#3A3836" stroke-linecap="round" stroke-linejoin="round"/>
<path d="M961.31 158.343C959.345 172.063 945.337 188.649 926.417 189.384C905.775 190.119 888.82 174.439 888.327 159.984C887.83 155.116 888.33 150.198 889.802 145.529C892.75 138.179 901.352 133.034 924.695 132.054C932.805 131.519 940.945 132.347 948.777 134.504" stroke="#3A3836" stroke-linecap="round" stroke-linejoin="round"/>
<path d="M1381.27 176.645L1382.99 181.545" stroke="#3A3836" stroke-linecap="round" stroke-linejoin="round"/>
<path d="M1391.1 164.64L1395.28 165.62" stroke="#3A3836" stroke-linecap="round" stroke-linejoin="round"/>
<path d="M1385.94 147.245L1388.15 144.06" stroke="#3A3836" stroke-linecap="round" stroke-linejoin="round"/>
<path d="M1368.74 144.305L1367.26 140.14" stroke="#3A3836" stroke-linecap="round" stroke-linejoin="round"/>
<path d="M1358.91 157.044L1353.99 156.064" stroke="#3A3836" stroke-linecap="round" stroke-linejoin="round"/>
<path d="M1362.35 174.194L1359.64 177.38" stroke="#3A3836" stroke-linecap="round" stroke-linejoin="round"/>
<path d="M1095.24 241.079L1096.71 245.489" stroke="#3A3836" stroke-linecap="round" stroke-linejoin="round"/>
<path d="M1065.75 210.945L1061.33 210.21" stroke="#3A3836" stroke-linecap="round" stroke-linejoin="round"/>
<path d="M1069.19 235.199L1066.73 237.894" stroke="#3A3836" stroke-linecap="round" stroke-linejoin="round"/>
<path d="M583.863 318.254L586.321 323.889" stroke="#3A3836" stroke-linecap="round" stroke-linejoin="round"/>
<path d="M596.643 304.289L603.03 305.026" stroke="#3A3836" stroke-linecap="round" stroke-linejoin="round"/>
<path d="M592.219 284.2L596.644 279.301" stroke="#3A3836" stroke-linecap="round" stroke-linejoin="round"/>
<path d="M568.873 279.301L566.908 273.421" stroke="#3A3836" stroke-linecap="round" stroke-linejoin="round"/>
<path d="M554.376 295.226L548.971 294" stroke="#3A3836" stroke-linecap="round" stroke-linejoin="round"/>
<path d="M561.255 316.294L557.57 321.195" stroke="#3A3836" stroke-linecap="round" stroke-linejoin="round"/>
<path d="M469.105 293.019L470.825 296.694" stroke="#3A3836" stroke-linecap="round" stroke-linejoin="round"/>
<path d="M478.197 269.254L483.85 269.499" stroke="#3A3836" stroke-linecap="round" stroke-linejoin="round"/>
<path d="M470.58 249.655L473.038 245.979" stroke="#3A3836" stroke-linecap="round" stroke-linejoin="round"/>
<path d="M440.355 245.49L438.635 242.06" stroke="#3A3836" stroke-linecap="round" stroke-linejoin="round"/>
<path d="M428.315 268.275H423.4" stroke="#3A3836" stroke-linecap="round" stroke-linejoin="round"/>
<path d="M436.177 291.306L432.982 295.715" stroke="#3A3836" stroke-linecap="round" stroke-linejoin="round"/>
<path d="M461.98 259.945H444.777V262.884H461.98V259.945Z" fill="#3A3836"/>
<path d="M461.98 266.315H444.777V269.254H461.98V266.315Z" fill="#3A3836"/>
<path d="M454.362 272.659H444.777V275.6H454.362V272.659Z" fill="#3A3836"/>
<path d="M1079.76 201.39H1105.07C1106.04 201.414 1106.96 201.81 1107.64 202.493C1108.33 203.177 1108.73 204.098 1108.75 205.065V227.36C1108.73 228.327 1108.33 229.247 1107.64 229.931C1106.96 230.615 1106.04 231.01 1105.07 231.035H1079.76C1078.79 231.01 1077.86 230.615 1077.18 229.931C1076.49 229.247 1076.09 228.327 1076.07 227.36V205.065C1076.09 204.098 1076.49 203.177 1077.18 202.493C1077.86 201.81 1078.79 201.414 1079.76 201.39Z" fill="#FFDE83" stroke="#3A3836" stroke-miterlimit="10"/>
<path d="M1080.74 217.56H1086.88L1090.32 209.229L1094.5 222.949L1099.41 212.17L1102.12 218.785" stroke="#3A3836" stroke-linecap="round" stroke-linejoin="round"/>
<path d="M1078.77 192.57L1078.28 188.895" stroke="#3A3836" stroke-linecap="round" stroke-linejoin="round"/>
<path d="M1104.82 191.835L1107.28 188.16" stroke="#3A3836" stroke-linecap="round" stroke-linejoin="round"/>
<path d="M1121.28 232.995L1117.11 232.26" stroke="#3A3836" stroke-linecap="round" stroke-linejoin="round"/>
<path d="M1122.02 208.985L1117.6 210.945" stroke="#3A3836" stroke-linecap="round" stroke-linejoin="round"/>
<path d="M1132.09 297.92C1134.81 297.92 1137.01 295.725 1137.01 293.021C1137.01 290.315 1134.81 288.12 1132.09 288.12C1129.38 288.12 1127.18 290.315 1127.18 293.021C1127.18 295.725 1129.38 297.92 1132.09 297.92Z" stroke="#3A3836" stroke-linecap="round" stroke-linejoin="round"/>
<path d="M347.96 117.845C350.672 117.845 352.872 115.651 352.872 112.945C352.872 110.239 350.672 108.045 347.96 108.045C345.245 108.045 343.045 110.239 343.045 112.945C343.045 115.651 345.245 117.845 347.96 117.845Z" stroke="#3A3836" stroke-linecap="round" stroke-linejoin="round"/>
<path d="M1298.46 295.47C1298.46 295.47 1339.25 286.404 1352.03 335.404C1352.03 335.404 1383.73 328.545 1392.57 360.15C1393.06 361.738 1393.31 363.388 1393.31 365.049" stroke="#3A3836" stroke-linecap="round" stroke-linejoin="round"/>
<path d="M230.745 342.019C230.745 342.019 170.295 306.986 131.469 363.089H73.9668" stroke="#3A3836" stroke-linecap="round" stroke-linejoin="round"/>
<path d="M1393.8 365.049H1436.81" stroke="#3A3836" stroke-linecap="round" stroke-linejoin="round"/>
<path d="M1250.29 318.499L1249.31 366.765C1248.33 376.32 1242.68 383.426 1233.09 383.426C1228.38 383.468 1223.82 381.721 1220.35 378.535C1216.88 375.349 1214.76 370.964 1214.42 366.275C1211.96 338.099 1213.43 338.001 1214.66 278.712" stroke="#3A3836" stroke-linecap="round" stroke-linejoin="round"/>
<path d="M1296.49 295.715L1308.78 359.658C1311.48 371.174 1307.55 381.955 1295.76 381.955H1294.53C1290.73 381.98 1287.02 380.809 1283.93 378.609C1280.85 376.409 1278.53 373.293 1277.33 369.705L1259.88 320.95L1248.82 317.275" stroke="#3A3836" stroke-linecap="round" stroke-linejoin="round"/>
<path d="M1289.12 260.19C1289.12 260.19 1273.15 250.146 1290.35 218.295" stroke="#3A3836" stroke-linecap="round" stroke-linejoin="round"/>
<path d="M1283.22 254.311C1277.08 245.735 1266.76 230.79 1276.59 210.455" stroke="#3A3836" stroke-linecap="round" stroke-linejoin="round"/>
<path d="M1300.42 229.565V208.25C1300.42 206.95 1299.91 205.704 1298.99 204.785C1298.06 203.866 1296.81 203.35 1295.51 203.35H1281.26" stroke="#3A3836" stroke-linecap="round" stroke-linejoin="round"/>
<path d="M1247.1 129.36L1246.36 135.975" stroke="#3A3836" stroke-linecap="round" stroke-linejoin="round"/>
<path opacity="0.7" d="M1247.59 127.89C1251.26 127.89 1254.23 124.929 1254.23 121.275C1254.23 117.622 1251.26 114.66 1247.59 114.66C1243.93 114.66 1240.96 117.622 1240.96 121.275C1240.96 124.929 1243.93 127.89 1247.59 127.89Z" fill="#FF6C37"/>
<path d="M1247.59 128.87C1251.26 128.87 1254.23 125.908 1254.23 122.255C1254.23 118.601 1251.26 115.64 1247.59 115.64C1243.93 115.64 1240.96 118.601 1240.96 122.255C1240.96 125.908 1243.93 128.87 1247.59 128.87Z" stroke="#3A3836" stroke-linecap="round" stroke-linejoin="round"/>
<path d="M1254.72 189.63C1258.65 189.63 1261.84 186.449 1261.84 182.525C1261.84 178.601 1258.65 175.42 1254.72 175.42C1250.78 175.42 1247.59 178.601 1247.59 182.525C1247.59 186.449 1250.78 189.63 1254.72 189.63Z" stroke="#3A3836" stroke-linecap="round" stroke-linejoin="round"/>
<path d="M1204.34 213.395C1203.12 211.985 1201.97 210.513 1200.9 208.985C1200.17 208.005 1199.43 206.78 1198.69 205.555C1194.11 197.556 1192.02 188.383 1192.67 179.197C1193.33 170.012 1196.7 161.225 1202.36 153.95C1208.02 146.675 1215.72 141.238 1224.49 138.327C1233.25 135.416 1242.68 135.162 1251.59 137.597C1260.5 140.031 1268.48 145.045 1274.53 152.005C1280.58 158.964 1284.42 167.556 1285.57 176.693C1286.72 185.83 1285.13 195.102 1280.99 203.336C1276.86 211.57 1270.36 218.396 1262.34 222.95C1255.28 226.911 1247.33 229.019 1239.24 229.075H1237.15" stroke="#3A3836" stroke-linecap="round" stroke-linejoin="round"/>
<path d="M1204.34 278.32H1245.87C1246.38 278.285 1246.86 278.068 1247.22 277.708C1247.58 277.349 1247.8 276.869 1247.83 276.36V275.871L1234.07 215.6C1233.98 215.16 1233.73 214.768 1233.37 214.497C1233.01 214.227 1232.56 214.097 1232.11 214.13H1171.41C1171.15 214.127 1170.9 214.175 1170.66 214.273C1170.42 214.37 1170.2 214.514 1170.01 214.697C1169.83 214.88 1169.69 215.097 1169.59 215.336C1169.49 215.576 1169.44 215.832 1169.45 216.09V216.58L1179.77 259.701L1181 264.845" stroke="#3A3836" stroke-linecap="round" stroke-linejoin="round"/>
<path d="M1180.75 265.579L1184.44 260.435C1185.42 259.032 1186.67 257.836 1188.12 256.917C1189.56 255.996 1191.18 255.372 1192.87 255.075C1194.56 254.777 1196.29 254.817 1197.96 255.192C1199.64 255.564 1201.22 256.266 1202.62 257.249C1202.87 257.494 1203.11 257.494 1203.36 257.739C1205.98 259.786 1207.71 262.75 1208.21 266.026C1208.72 269.304 1207.95 272.647 1206.06 275.379L1202.62 280.525C1200.67 283.373 1197.67 285.353 1194.28 286.038C1190.88 286.724 1187.35 286.065 1184.44 284.2C1184.19 283.955 1183.95 283.955 1183.7 283.711C1181 281.623 1179.19 278.59 1178.64 275.224C1178.09 271.858 1178.85 268.413 1180.75 265.579Z" stroke="#3A3836" stroke-linecap="round" stroke-linejoin="round"/>
<path d="M1296.98 267.786C1296.98 267.786 1267.5 237.405 1254.23 245C1240.96 252.595 1259.88 274.4 1259.88 274.4C1259.88 274.4 1295.02 317.03 1310.99 281.995C1325.74 249.655 1279.78 205.8 1279.78 205.8" stroke="#3A3836" stroke-linecap="round" stroke-linejoin="round"/>
<path d="M1257.18 272.195L1245.87 278.32" stroke="#3A3836" stroke-linecap="round" stroke-linejoin="round"/>
<path d="M1245.13 261.169L1251.52 260.925" stroke="#3A3836" stroke-linecap="round" stroke-linejoin="round"/>
<path opacity="0.7" d="M1207.53 250.146C1212.15 250.146 1215.89 246.416 1215.89 241.815C1215.89 237.215 1212.15 233.485 1207.53 233.485C1202.92 233.485 1199.18 237.215 1199.18 241.815C1199.18 246.416 1202.92 250.146 1207.53 250.146Z" fill="url(#paint3_linear_47_8964)"/>
<path d="M1207.53 250.146C1212.15 250.146 1215.89 246.416 1215.89 241.815C1215.89 237.215 1212.15 233.485 1207.53 233.485C1202.92 233.485 1199.18 237.215 1199.18 241.815C1199.18 246.416 1202.92 250.146 1207.53 250.146Z" stroke="#3A3836" stroke-linecap="round" stroke-linejoin="round"/>
<path d="M1205.81 154.35C1209.42 156.489 1212.5 159.402 1214.84 162.876C1217.18 166.351 1218.71 170.301 1219.33 174.44C1222.03 189.875 1216.63 204.82 1201.88 209.23" stroke="#3A3836" stroke-linecap="round" stroke-linejoin="round"/>
<path d="M1205.57 122.01L1200.16 107.8H1199.92C1202.2 104.456 1203.44 100.512 1203.48 96.4657C1203.51 92.4196 1202.35 88.4534 1200.12 85.0687C1197.9 81.6843 1194.72 79.0334 1190.98 77.4514C1187.25 75.8695 1183.12 75.4275 1179.14 76.1816C1175.15 76.9356 1171.48 78.8517 1168.58 81.6873C1165.69 84.5229 1163.7 88.151 1162.87 92.1125C1162.05 96.0742 1162.42 100.191 1163.94 103.943C1165.46 107.695 1168.06 110.913 1171.41 113.19C1174.22 115.119 1177.47 116.31 1180.87 116.652C1184.26 116.995 1187.68 116.478 1190.82 115.15L1205.57 122.01Z" stroke="#3A3836" stroke-linecap="round" stroke-linejoin="round"/>
<path opacity="0.7" d="M1195 93.5897C1195.01 92.7201 1194.84 91.8584 1194.51 91.0544C1194.17 90.2502 1193.69 89.5199 1193.07 88.9049C1192.45 88.29 1191.72 87.8029 1190.91 87.4715C1190.11 87.1402 1189.24 86.9714 1188.37 86.9747C1187.76 87.5939 1187.03 88.086 1186.23 88.4218C1185.43 88.7576 1184.57 88.9307 1183.7 88.9307C1182.83 88.9307 1181.97 88.7576 1181.17 88.4218C1180.37 88.086 1179.64 87.5939 1179.03 86.9747C1178.16 86.9714 1177.3 87.1402 1176.49 87.4715C1175.68 87.8029 1174.95 88.29 1174.33 88.9049C1173.72 89.5199 1173.23 90.2502 1172.9 91.0544C1172.56 91.8584 1172.39 92.7201 1172.4 93.5897C1172.41 94.5725 1172.64 95.54 1173.07 96.4276C1173.49 97.315 1174.1 98.1017 1174.85 98.7347L1184.68 107.8L1193.78 97.9996C1194.58 96.6703 1195.01 95.1442 1195 93.5897Z" fill="url(#paint4_linear_47_8964)"/>
<path d="M1195 93.5897C1195.01 92.7201 1194.84 91.8584 1194.51 91.0544C1194.17 90.2502 1193.69 89.5199 1193.07 88.9049C1192.45 88.29 1191.72 87.8029 1190.91 87.4715C1190.11 87.1402 1189.24 86.9714 1188.37 86.9747C1187.76 87.5939 1187.03 88.086 1186.23 88.4218C1185.43 88.7576 1184.57 88.9307 1183.7 88.9307C1182.83 88.9307 1181.97 88.7576 1181.17 88.4218C1180.37 88.086 1179.64 87.5939 1179.03 86.9747C1178.16 86.9714 1177.3 87.1402 1176.49 87.4715C1175.68 87.8029 1174.95 88.29 1174.33 88.9049C1173.72 89.5199 1173.23 90.2502 1172.9 91.0544C1172.56 91.8584 1172.39 92.7201 1172.4 93.5897C1172.41 94.5725 1172.64 95.54 1173.07 96.4276C1173.49 97.315 1174.1 98.1017 1174.85 98.7347L1184.68 107.8L1193.78 97.9996C1194.58 96.6703 1195.01 95.1442 1195 93.5897Z" stroke="#3A3836" stroke-linecap="round" stroke-linejoin="round"/>
<path d="M41.2839 260.679C60.1484 260.679 75.4409 245.432 75.4409 226.624C75.4409 207.816 60.1484 192.569 41.2839 192.569C22.4196 192.569 7.12695 207.816 7.12695 226.624C7.12695 245.432 22.4196 260.679 41.2839 260.679Z" stroke="#3A3836" stroke-linecap="round" stroke-linejoin="round"/>
<path d="M1057.89 340.795C1076.89 340.795 1092.29 325.437 1092.29 306.494C1092.29 287.551 1076.89 272.195 1057.89 272.195C1038.89 272.195 1023.48 287.551 1023.48 306.494C1023.48 325.437 1038.89 340.795 1057.89 340.795Z" stroke="#3A3836" stroke-linecap="round" stroke-linejoin="round"/>
<path d="M1392.08 120.294C1411.08 120.294 1426.48 104.938 1426.48 85.9943C1426.48 67.051 1411.08 51.6943 1392.08 51.6943C1373.08 51.6943 1357.68 67.051 1357.68 85.9943C1357.68 104.938 1373.08 120.294 1392.08 120.294Z" stroke="#3A3836" stroke-linecap="round" stroke-linejoin="round"/>
<path d="M34.4039 243.285C40.4439 243.28 46.2424 240.919 50.5591 236.706C54.8759 232.494 57.3681 226.765 57.5029 220.745V219.52C59.0556 218.38 60.3876 216.969 61.4346 215.355C59.9576 216.019 58.3796 216.434 56.7656 216.58C58.4326 215.599 59.6629 214.022 60.2059 212.17C58.6634 213.217 56.8959 213.888 55.0454 214.13C53.6001 212.59 51.6071 211.676 49.4939 211.585C47.3806 211.493 45.3156 212.231 43.7416 213.64C42.9296 214.384 42.2891 215.295 41.8649 216.31C41.4406 217.326 41.2426 218.421 41.2844 219.52C41.2446 220.183 41.3279 220.847 41.5301 221.48C38.3216 221.304 35.1831 220.475 32.3089 219.042C29.4349 217.609 26.8859 215.604 24.8203 213.15C24.1223 214.424 23.7826 215.863 23.8373 217.315C23.8081 218.644 24.134 219.957 24.7818 221.12C25.4294 222.282 26.3756 223.252 27.5234 223.93C26.2441 223.835 24.994 223.502 23.8373 222.95C23.819 224.794 24.4474 226.587 25.6139 228.018C26.7806 229.45 28.4119 230.43 30.2264 230.79C29.0261 231.115 27.7731 231.198 26.5404 231.035C27.1106 232.619 28.1381 233.999 29.4939 235.002C30.8494 236.004 32.4724 236.585 34.1581 236.67C31.2326 238.851 27.7296 240.128 24.083 240.345C23.4182 240.385 22.7517 240.301 22.1172 240.1C25.8876 242.153 30.1079 243.247 34.4039 243.285Z" fill="#1DA1F2"/>
<path d="M161.694 135.73C180.559 135.73 195.851 120.483 195.851 101.675C195.851 82.8672 180.559 67.6201 161.694 67.6201C142.83 67.6201 127.537 82.8672 127.537 101.675C127.537 120.483 142.83 135.73 161.694 135.73Z" stroke="#3A3836" stroke-linecap="round" stroke-linejoin="round"/>
<path d="M1424.77 260.435C1427.89 260.435 1430.42 257.913 1430.42 254.8C1430.42 251.689 1427.89 249.165 1424.77 249.165C1421.64 249.165 1419.11 251.689 1419.11 254.8C1419.11 257.913 1421.64 260.435 1424.77 260.435Z" stroke="#3A3836" stroke-linecap="round" stroke-linejoin="round"/>
<path d="M919.045 72.765C938.045 72.765 953.448 57.4083 953.448 38.465C953.448 19.5217 938.045 4.16504 919.045 4.16504C900.045 4.16504 884.643 19.5217 884.643 38.465C884.643 57.4083 900.045 72.765 919.045 72.765Z" stroke="#3A3836" stroke-linecap="round" stroke-linejoin="round"/>
<path fill-rule="evenodd" clip-rule="evenodd" d="M161.939 119.805L169.065 97.5098H154.812L161.939 119.805Z" fill="#E24329"/>
<path fill-rule="evenodd" clip-rule="evenodd" d="M161.94 119.805L154.813 97.5098H144.738L161.94 119.805Z" fill="#FC6D26"/>
<path fill-rule="evenodd" clip-rule="evenodd" d="M144.737 97.5098L142.525 104.37C142.416 104.671 142.404 104.999 142.492 105.307C142.58 105.615 142.764 105.887 143.017 106.085L161.938 119.805L144.737 97.5098Z" fill="#FCA326"/>
<path fill-rule="evenodd" clip-rule="evenodd" d="M144.738 97.5099H154.813L150.39 84.0348C150.144 83.5449 149.899 83.5449 149.407 83.5449C148.916 83.5449 149.162 83.7899 148.916 84.0348L144.738 97.5099Z" fill="#E24329"/>
<path fill-rule="evenodd" clip-rule="evenodd" d="M161.939 119.805L169.066 97.5098H179.387L161.939 119.805Z" fill="#FC6D26"/>
<path fill-rule="evenodd" clip-rule="evenodd" d="M179.387 97.5098L181.598 104.37C181.708 104.671 181.72 104.999 181.631 105.307C181.543 105.615 181.36 105.887 181.107 106.085L161.939 119.805L179.387 97.5098Z" fill="#FCA326"/>
<path fill-rule="evenodd" clip-rule="evenodd" d="M179.386 97.5099H169.311L173.734 84.0348C173.98 83.5449 174.225 83.5449 174.717 83.5449C175.208 83.5449 174.963 83.7899 175.208 84.0348L179.386 97.5099Z" fill="#E24329"/>
<path d="M1047.07 326.585C1047.56 326.83 1048.06 327.319 1048.55 327.319C1049.61 327.597 1050.73 327.509 1051.74 327.075C1052.04 326.925 1052.3 326.718 1052.51 326.463C1052.72 326.211 1052.88 325.919 1052.97 325.604C1053.37 324.853 1053.54 324.001 1053.46 323.155C1053.4 321.764 1052.97 320.416 1052.23 319.235C1051.63 318.194 1050.67 317.41 1049.53 317.03C1049.04 317.03 1048.79 316.785 1048.3 316.785C1049.5 316.646 1050.71 316.905 1051.74 317.519C1052.44 318.054 1053.02 318.718 1053.46 319.479C1053.96 320.199 1054.22 321.055 1054.2 321.929C1054.2 322.174 1054.2 322.174 1054.44 322.174H1055.67V311.639H1058.38L1058.13 311.395C1057.11 310.623 1056.2 309.717 1055.43 308.701C1055.18 308.454 1055.18 308.454 1055.43 308.209L1055.67 308.454C1056.82 309.57 1058.15 310.481 1059.61 311.15C1060.05 311.422 1060.56 311.59 1061.08 311.639C1061.54 311.749 1062.02 311.762 1062.48 311.677C1062.95 311.592 1063.39 311.412 1063.78 311.15C1064.58 310.656 1065.32 310.081 1065.99 309.435V309.924C1065.75 310.169 1065.75 310.414 1065.5 310.661V310.905C1065.79 311.1 1066.14 311.188 1066.49 311.15H1068.21C1068.7 310.536 1069.06 309.827 1069.27 309.07C1069.48 308.311 1069.54 307.52 1069.43 306.741C1069.38 306.219 1069.22 305.717 1068.94 305.27C1068.68 304.534 1068.26 303.867 1067.71 303.31V301.105C1067.74 300.154 1067.48 299.218 1066.98 298.409L1064.77 295.47L1064.27 294.981C1065.2 295.495 1066.03 296.157 1066.73 296.941C1066.73 296.694 1066.98 296.694 1066.98 296.449V295.959C1066.78 295.413 1066.69 294.828 1066.73 294.244V293.021C1066.77 292.516 1066.69 292.012 1066.49 291.55V291.305C1066.76 291.752 1066.93 292.254 1066.98 292.774C1067.01 293.945 1067.45 295.068 1068.21 295.959C1068.54 296.506 1068.95 297.003 1069.43 297.43C1069.56 297.57 1069.74 297.657 1069.93 297.675C1070.06 297.69 1070.19 297.677 1070.32 297.635C1070.45 297.592 1070.57 297.522 1070.66 297.43V295.959C1070.37 294.429 1069.69 292.998 1068.7 291.795L1067.96 291.061C1067.76 290.809 1067.49 290.624 1067.18 290.536C1066.87 290.449 1066.54 290.459 1066.24 290.569C1065.75 290.569 1065.5 290.814 1065.01 291.305C1064.52 291.795 1064.27 292.039 1064.03 292.284C1063.49 292.774 1062.79 293.038 1062.06 293.021H1061.57L1059.85 292.774L1060.34 292.284L1059.85 292.529L1059.11 293.999L1059.61 293.51C1059.11 293.755 1058.87 293.999 1058.38 293.999C1058.38 293.755 1058.62 293.51 1058.87 293.265H1058.38C1057.94 293.455 1057.52 293.702 1057.15 293.999H1056.9C1056.17 294.244 1055.43 294.244 1054.69 294.489H1054.44C1053.78 294.227 1053.19 293.807 1052.72 293.265C1052.48 293.021 1052.23 292.774 1052.23 292.529C1052.08 292.157 1051.8 291.852 1051.43 291.672C1051.07 291.493 1050.66 291.448 1050.27 291.55C1049.75 291.6 1049.24 291.767 1048.79 292.039L1047.07 292.529H1048.06L1047.32 292.774C1047.07 292.774 1046.83 293.021 1046.58 293.021H1047.32C1046.53 293.423 1045.79 293.917 1045.11 294.489L1046.09 294.244C1046.09 294.309 1046.06 294.371 1046.02 294.419C1045.97 294.464 1045.91 294.489 1045.84 294.489C1045.6 294.734 1045.6 294.981 1045.35 294.981C1045.14 295.205 1045 295.493 1044.96 295.8C1044.92 296.104 1044.97 296.419 1045.11 296.694C1045.35 297.707 1045.86 298.639 1046.58 299.39L1047.81 300.614C1048.15 300.923 1048.58 301.095 1049.04 301.105H1049.28C1049.88 300.906 1050.45 300.658 1051 300.369C1051.26 300.227 1051.47 300.009 1051.6 299.747C1051.73 299.485 1051.78 299.19 1051.74 298.901C1051.99 298.269 1051.99 297.57 1051.74 296.941C1051.7 295.458 1051.54 293.984 1051.25 292.529V292.284C1051.77 293.72 1052.18 295.195 1052.48 296.694C1052.68 297.66 1052.77 298.649 1052.72 299.635C1052.74 299.767 1052.73 299.902 1052.68 300.029C1052.64 300.157 1052.57 300.274 1052.48 300.369C1052.29 300.873 1051.95 301.305 1051.5 301.595C1051 301.837 1050.45 301.964 1049.9 301.964C1049.35 301.964 1048.8 301.837 1048.3 301.595C1048.24 301.595 1048.17 301.57 1048.13 301.522C1048.08 301.477 1048.06 301.415 1048.06 301.35C1047.85 302.316 1047.77 303.303 1047.81 304.289V304.534C1048.03 305.078 1048.11 305.667 1048.06 306.249C1048.02 306.596 1048.11 306.943 1048.3 307.23C1048.3 306.985 1048.55 306.741 1048.55 306.494C1048.51 306.918 1048.59 307.342 1048.79 307.719V307.964C1048.78 307.832 1048.79 307.697 1048.83 307.57C1048.88 307.442 1048.95 307.327 1049.04 307.23C1049.28 307.475 1049.28 307.719 1049.53 307.964V308.209C1049.53 308.454 1049.78 308.945 1049.78 309.19V308.454C1050.27 308.988 1050.53 309.692 1050.51 310.414V311.884C1050.52 312.206 1050.46 312.526 1050.33 312.823C1050.21 313.118 1050.02 313.385 1049.78 313.599C1049.26 314.149 1048.68 314.641 1048.06 315.07C1047.21 315.727 1046.31 316.301 1045.35 316.785C1044.52 317.337 1043.84 318.099 1043.39 318.99C1043.19 319.452 1043.1 319.956 1043.14 320.461C1043.14 320.648 1043.19 320.835 1043.28 321.005C1043.36 321.175 1043.48 321.322 1043.63 321.439C1044.11 321.866 1044.53 322.361 1044.86 322.91L1045.11 323.399H1041.18V288.854H1075.82V309.435H1076.81V325.849C1076.81 325.914 1076.78 325.976 1076.73 326.024C1076.69 326.069 1076.63 326.094 1076.56 326.094H1055.92V322.665H1054.69C1054.65 323.422 1054.48 324.166 1054.2 324.87C1053.95 325.359 1053.95 325.604 1053.71 325.849C1053.09 326.613 1052.22 327.135 1051.25 327.319C1050.59 327.372 1049.92 327.289 1049.28 327.075C1048.68 326.823 1048.17 326.396 1047.81 325.849C1047.72 325.754 1047.65 325.637 1047.6 325.509C1047.56 325.382 1047.55 325.247 1047.56 325.115L1047.07 326.585ZM1075.09 324.87V312.129L1071.4 312.374L1064.52 312.865H1064.27L1063.78 313.355C1063.12 313.747 1062.34 313.919 1061.57 313.844L1059.36 313.11H1056.66V326.094C1056.66 326.341 1056.66 326.341 1056.9 326.341L1059.61 326.094L1064.77 325.849L1069.93 325.604L1075.09 324.87Z" fill="#6922AC"/>
<path d="M1059.11 299.88C1059.25 299.865 1059.38 299.877 1059.51 299.92C1059.64 299.962 1059.75 300.032 1059.85 300.125C1060.1 300.125 1060.1 300.369 1059.85 300.369C1059.61 300.369 1059.61 300.614 1059.85 300.859C1060 301.176 1060.06 301.528 1060.01 301.875C1059.97 302.222 1059.83 302.551 1059.61 302.819H1059.36C1058.6 302.866 1057.85 303.031 1057.15 303.31H1056.9C1056.71 303.148 1056.55 302.951 1056.43 302.729C1056.31 302.507 1056.24 302.264 1056.22 302.012C1056.2 301.762 1056.22 301.51 1056.3 301.271C1056.37 301.031 1056.49 300.809 1056.66 300.614C1056.77 300.467 1056.92 300.344 1057.09 300.259C1057.26 300.175 1057.45 300.13 1057.64 300.125C1058.1 299.925 1058.61 299.842 1059.11 299.88Z" fill="#6923AC"/>
<path d="M1066.48 309.191C1066.03 309.181 1065.59 309.008 1065.25 308.701C1064.97 308.397 1064.64 308.149 1064.27 307.965C1064.03 307.72 1064.03 307.72 1064.03 307.475C1064.03 307.231 1064.27 306.986 1064.52 306.741C1064.98 306.541 1065.49 306.457 1065.99 306.494H1067.96C1068.08 306.506 1068.2 306.561 1068.29 306.651C1068.38 306.741 1068.44 306.859 1068.45 306.986C1068.45 307.231 1068.45 307.231 1068.2 307.475C1068.02 307.98 1067.67 308.409 1067.22 308.701C1067.22 309.191 1066.73 309.191 1066.48 309.191Z" fill="#6923AC"/>
<path d="M1065.26 299.88C1065.35 299.787 1065.47 299.717 1065.6 299.675C1065.73 299.632 1065.86 299.62 1065.99 299.635C1066.38 299.662 1066.73 299.827 1067.01 300.097C1067.28 300.367 1067.44 300.724 1067.47 301.106V302.574C1067.18 302.379 1066.83 302.294 1066.49 302.329H1066.24L1065.99 302.084L1065.26 300.614C1065.26 300.369 1065.26 300.369 1065.5 300.124C1065.75 299.88 1065.75 299.88 1065.5 299.88H1065.26Z" fill="#6923AC"/>
<path d="M1057.39 324.87V323.4L1061.08 319.235L1064.27 320.461L1067.71 316.049L1070.91 318.746L1074.1 313.6L1073.86 323.644L1057.39 324.87Z" fill="#6922AC"/>
<path d="M1392.08 105.595C1388.2 105.595 1384.39 104.445 1381.16 102.291C1377.93 100.138 1375.41 97.0767 1373.92 93.4953C1372.43 89.9139 1372.04 85.9729 1372.8 82.1707C1373.56 78.3688 1375.43 74.8765 1378.18 72.1353C1380.93 69.3943 1384.43 67.5274 1388.25 66.7711C1392.06 66.0148 1396.01 66.4031 1399.61 67.8865C1403.2 69.3701 1406.27 71.8821 1408.43 75.1055C1410.59 78.3286 1411.74 82.1181 1411.74 85.9946V86.2396C1411.73 88.7983 1411.21 91.3296 1410.21 93.6878C1409.22 96.0463 1407.77 98.1858 1405.94 99.9838C1404.11 101.782 1401.95 103.203 1399.57 104.165C1397.19 105.128 1394.65 105.614 1392.08 105.595ZM1383.48 96.5297L1383.24 96.2847C1383.24 96.0395 1383.24 96.0395 1382.99 96.2847L1382.5 96.7746L1381.76 97.5097C1381.76 97.5097 1381.52 97.5097 1381.76 97.7546C1382.01 97.9995 1382.01 97.7546 1382.01 97.7546L1384.71 97.9996H1385.45L1384.96 97.5097L1383.48 96.5297ZM1384.71 97.0195L1384.96 96.5297C1384.82 96.1334 1384.74 95.7217 1384.71 95.3047C1384.71 94.8146 1384.71 94.8146 1384.96 94.8146L1385.45 94.5697C1387.3 93.5994 1389.11 92.5365 1390.85 91.3847C1391.73 90.8075 1392.55 90.1516 1393.31 89.4247V89.1796L1392.08 87.9546H1391.84L1389.38 88.4445C1389.13 88.4445 1388.89 88.6897 1388.64 88.6897L1386.68 90.6497L1382.99 94.3247V94.5697L1384.96 96.5297C1384.47 97.0196 1384.47 97.0195 1384.71 97.0195ZM1398.72 78.8897C1398.6 78.7401 1398.45 78.6188 1398.28 78.5339C1398.11 78.449 1397.93 78.4033 1397.74 78.3996C1397.23 78.3611 1396.72 78.445 1396.26 78.6445C1395.51 78.9923 1394.84 79.4929 1394.29 80.1146C1392.57 81.5847 1390.85 83.2996 1389.13 85.0146V85.2596L1390.36 86.4847H1390.61L1391.35 85.7497L1397.24 79.8697C1397.37 79.5848 1397.58 79.3421 1397.84 79.1688C1398.1 78.9955 1398.4 78.8987 1398.72 78.8897ZM1398.72 79.1346C1398.58 79.1186 1398.45 79.1324 1398.32 79.1746C1398.19 79.217 1398.08 79.2869 1397.98 79.3796L1397.24 80.1146L1392.57 84.7697L1390.85 86.4847C1390.85 86.4847 1390.61 86.4847 1390.85 86.7297L1391.59 87.4647H1391.84L1392.33 86.9746L1396.51 83.2996L1399.21 80.8497C1399.37 80.6961 1399.48 80.4956 1399.53 80.2762C1399.57 80.0567 1399.55 79.829 1399.46 79.6247C1399.46 79.3796 1399.21 79.1346 1398.72 79.1346ZM1401.18 73.7447C1400.4 73.7572 1399.65 74.0711 1399.1 74.6196C1398.55 75.1684 1398.24 75.9087 1398.23 76.6847C1398.25 77.4011 1398.51 78.0899 1398.96 78.6445C1399.36 79.1488 1399.91 79.5151 1400.52 79.6912C1401.14 79.8672 1401.8 79.8437 1402.4 79.6247C1402.65 79.6247 1402.65 79.6247 1402.4 79.3796L1400.68 77.4196C1400.44 77.1746 1400.44 77.1746 1400.68 76.9297C1401.56 76.1754 1402.38 75.3564 1403.14 74.4796V74.2346C1402.58 73.8184 1401.87 73.6424 1401.18 73.7447ZM1399.7 81.0946L1395.28 85.0146C1394.29 85.9946 1393.07 86.9746 1392.08 87.9546V88.1996L1393.31 89.4247H1393.56C1395.03 87.9546 1396.51 86.4845 1397.98 84.7697C1398.69 83.9677 1399.27 83.0581 1399.7 82.0746V81.0946ZM1404.37 76.9297C1404.35 76.1374 1404.09 75.3692 1403.63 74.7247H1403.39L1402.9 75.2146L1401.18 76.9297C1401.18 76.9297 1400.93 77.1746 1401.18 77.1746L1402.9 78.8897H1403.14C1403.51 78.7107 1403.82 78.4318 1404.04 78.0852C1404.25 77.7386 1404.37 77.3384 1404.37 76.9297ZM1389.87 86.7297L1388.64 85.5047H1388.4L1387.41 86.4847L1386.68 87.2196V87.4647H1387.17L1389.87 86.7297ZM1391.1 87.9546L1390.36 87.2196H1390.12L1389.13 88.1996V88.4445H1389.87L1391.1 87.9546Z" fill="#F1622D"/>
<path d="M1384.47 97.0194L1382.5 95.0594V94.8142L1386.19 91.1394L1388.15 89.1794C1388.25 89.0868 1388.36 89.0166 1388.49 88.9744C1388.62 88.932 1388.76 88.9182 1388.89 88.9342L1391.35 88.4443H1391.59L1392.82 89.6693V89.9142C1392.08 90.6493 1391.1 91.1394 1390.36 91.8742C1388.65 93.0787 1386.84 94.1438 1384.96 95.0594L1384.47 95.3043C1384.22 95.5493 1384.22 95.5493 1384.22 95.7942C1384.33 96.1974 1384.41 96.6064 1384.47 97.0194V97.2643C1384.47 97.2643 1384.71 97.0194 1384.47 97.0194Z" fill="#FFFAF6"/>
<path d="M1398.72 78.8895C1397.98 78.8895 1397.74 79.3793 1397.24 79.8695L1391.35 85.9944L1390.61 86.7295H1390.36L1389.13 85.5045V85.2593C1390.85 83.5445 1392.57 82.0744 1394.29 80.3594C1395.03 79.8695 1395.52 79.3793 1396.26 78.8895C1396.47 78.7337 1396.71 78.6301 1396.97 78.5876C1397.22 78.5449 1397.49 78.5644 1397.74 78.6445C1397.98 78.3993 1398.47 78.6445 1398.72 78.8895Z" fill="#FFFAF6"/>
<path d="M1398.72 79.1348C1399.21 79.1348 1399.46 79.38 1399.7 79.8698C1399.95 80.36 1399.7 80.6049 1399.46 81.0948L1396.75 83.5449L1392.57 87.22L1392.08 87.7098H1391.84L1391.1 86.9748V86.7298L1392.82 85.0148L1397.49 80.36L1398.23 79.6249C1397.98 79.1348 1398.47 79.1348 1398.72 79.1348Z" fill="#FFF8F5"/>
<path d="M1401.17 73.7452C1401.86 73.7617 1402.53 73.929 1403.14 74.2353V74.4803L1400.68 76.9304C1400.44 77.1754 1400.44 77.1754 1400.68 77.4203L1402.4 79.1354C1402.65 79.3803 1402.65 79.3803 1402.4 79.3803C1401.72 79.5618 1400.99 79.5084 1400.34 79.229C1399.68 78.9493 1399.15 78.46 1398.81 77.8388C1398.47 77.2178 1398.35 76.501 1398.46 75.8031C1398.58 75.1055 1398.93 74.4671 1399.45 73.9904C1399.7 73.8241 1399.99 73.7158 1400.28 73.6736C1400.58 73.6311 1400.89 73.6556 1401.17 73.7452Z" fill="#FFFAF6"/>
<path d="M1399.7 81.0947C1399.7 81.3399 1399.46 81.8298 1399.46 82.0747C1398.97 83.0265 1398.39 83.9291 1397.74 84.7698C1396.26 86.4849 1394.79 87.9547 1393.31 89.4249H1393.07L1391.84 88.1999V87.955C1392.82 86.975 1394.05 85.995 1395.03 85.015L1399.7 81.0947Z" fill="#FFF8F5"/>
<path d="M1404.37 76.9297C1404.34 77.3657 1404.22 77.7899 1404.01 78.1716C1403.79 78.5532 1403.5 78.8825 1403.14 79.1347H1402.9L1401.18 77.4199V77.1747L1402.9 75.4599L1403.39 74.9697H1403.63C1404.12 75.503 1404.39 76.2059 1404.37 76.9297ZM1403.63 76.6848V76.1947L1403.39 75.9497L1403.14 76.1947C1403.2 76.2384 1403.24 76.294 1403.27 76.3577C1403.31 76.4214 1403.32 76.4913 1403.32 76.5622C1403.32 76.6331 1403.31 76.7033 1403.27 76.7669C1403.24 76.8306 1403.2 76.8863 1403.14 76.9297V77.1747H1403.39C1403.88 77.4199 1403.88 77.1747 1403.63 76.6848Z" fill="#FFF7F2"/>
<path d="M1382.75 96.0394L1383.48 96.5293L1380.78 96.2843H1380.53V96.0394L1381.27 95.3043L1381.76 94.8145H1382.01M1382.25 95.0594C1382.52 95.3705 1382.77 95.6976 1382.99 96.0394L1382.25 95.0594Z" fill="#FFF7F2"/>
<path d="M1389.87 86.7292L1386.92 87.2194H1386.43V86.9742L1387.17 86.2394L1388.15 85.2594C1388.15 85.2594 1388.15 85.0142 1388.39 85.2594L1389.87 86.7292Z" fill="#FFF7F2"/>
<path d="M1391.35 87.9546L1389.87 88.1998H1389.13V87.9546L1390.12 86.9746H1390.36L1391.35 87.9546Z" fill="#FFF7F2"/>
<path d="M1403.63 76.6845C1403.65 76.8175 1403.63 76.9524 1403.59 77.0795C1403.55 77.2065 1403.48 77.3226 1403.39 77.4195H1403.14V77.1743C1403.2 77.1309 1403.24 77.0752 1403.27 77.0115C1403.31 76.9479 1403.32 76.878 1403.32 76.8071C1403.32 76.7361 1403.31 76.666 1403.27 76.6023C1403.24 76.5386 1403.2 76.483 1403.14 76.4395V76.1943C1403.39 76.1943 1403.39 76.1943 1403.39 76.4395C1403.45 76.4395 1403.51 76.4652 1403.56 76.5112C1403.61 76.5571 1403.63 76.6195 1403.63 76.6845Z" fill="#F1622D"/>
<path d="M919.536 27.4394L909.709 33.8093L919.536 40.1794L909.709 46.5493L899.879 40.1794L909.709 33.8093L899.879 27.6844L909.709 21.3143L919.536 27.4394ZM909.709 48.2644L919.536 41.8942L929.366 48.2644L919.536 54.3893L909.709 48.2644ZM919.536 39.9342L929.366 33.5644L919.536 27.4394L929.366 21.0693L939.196 27.4394L929.366 33.8093L939.196 40.1794L929.366 46.5493L919.536 39.9342Z" fill="#0061FF"/>
<path d="M787.035 372.155H774.333C773.25 378.647 772.513 379.945 764.87 382.739C745.213 389.943 738.333 372.939 738.333 372.939V372.203H711.573C708.205 381.244 700.635 386.487 693.018 386.17C678.275 385.581 674.883 378.819 674.393 372.203H669.183C666.673 372.203 664.268 373.196 662.493 374.967C660.718 376.734 659.723 379.134 659.723 381.636C659.723 384.137 660.718 386.537 662.493 388.307C664.268 390.075 666.673 391.069 669.183 391.069H787.135C789.643 391.069 792.05 390.075 793.825 388.307C795.598 386.537 796.595 384.137 796.595 381.636C796.595 379.134 795.598 376.734 793.825 374.967C792.05 373.196 789.643 372.203 787.135 372.203L787.035 372.155Z" fill="#E5E5E5"/>
</g>
<path d="M525.241 41.0312C525.325 41.0938 525.564 41.125 525.96 41.125C526.356 41.125 526.658 40.9688 526.866 40.6562C527.075 40.3438 527.179 39.8333 527.179 39.125V36.75C527.179 36 527.085 35.4688 526.897 35.1562C526.731 34.8229 526.439 34.6562 526.022 34.6562C525.627 34.6562 525.356 34.6979 525.21 34.7812C525.231 34.8854 525.241 35.0625 525.241 35.3125V41.0312ZM526.022 55.1562V59.9375C525.106 60.7083 523.814 61.3438 522.147 61.8438C520.481 62.3229 518.741 62.5625 516.929 62.5625C514.345 62.5625 512.231 62.0625 510.585 61.0625C508.71 59.9167 507.772 58.2604 507.772 56.0938V26.4062C507.772 25.7396 508.22 25.0729 509.116 24.4062C510.033 23.7396 511.293 23.1354 512.897 22.5938C516.335 21.4271 520.262 20.8438 524.679 20.8438C530.783 20.8438 535.647 22.3646 539.272 25.4062C542.897 28.4479 544.71 32.5417 544.71 37.6875C544.71 42.8125 543.075 46.8021 539.804 49.6562C536.658 52.3646 532.293 53.7188 526.71 53.7188C525.439 53.7188 524.075 53.5729 522.616 53.2812C521.179 52.9688 520.21 52.6979 519.71 52.4688C519.543 52.6354 519.46 52.8646 519.46 53.1562C519.46 54.2188 521.647 54.8854 526.022 55.1562ZM569.658 48.375C569.908 48.375 570.178 48.2708 570.47 48.0625C570.262 47.375 570.158 46.3021 570.158 44.8438V29.4062C572.366 28.0729 575.022 27.4062 578.126 27.4062C579.876 27.4062 581.408 27.6458 582.72 28.125C584.053 28.5833 585.074 29.1979 585.783 29.9688V46.25C585.783 49.3542 586.533 51.375 588.033 52.3125C588.053 52.4167 588.064 52.6146 588.064 52.9062V53.4688C588.064 56.5104 587.262 58.8125 585.658 60.375C584.199 61.8333 582.189 62.5625 579.626 62.5625C578.022 62.5625 576.564 62.1979 575.251 61.4688C573.96 60.7396 572.991 59.6771 572.345 58.2812C571.637 58.2812 571.283 58.625 571.283 59.3125C571.283 59.7917 571.522 60.2708 572.001 60.75C571.335 61.2917 570.533 61.7292 569.595 62.0625C568.658 62.3958 567.272 62.5625 565.439 62.5625C563.626 62.5625 561.855 62.1875 560.126 61.4375C557.98 60.5208 556.335 59.1146 555.189 57.2188C553.793 54.9688 553.095 52.1146 553.095 48.6562V40.8125C552.033 38.9583 551.501 36.9167 551.501 34.6875C551.501 33.5417 551.647 32.3542 551.939 31.125C552.23 29.8958 552.699 28.8021 553.345 27.8438H560.22C562.803 27.8438 564.824 28.4583 566.283 29.6875C567.762 30.8958 568.501 32.7396 568.501 35.2188V45.3438C568.501 47.3646 568.887 48.375 569.658 48.375ZM628.292 46.5312C628.292 48.0312 628.459 49.2396 628.792 50.1562C629.126 51.0729 629.709 51.7917 630.542 52.3125C630.563 52.4167 630.574 52.6146 630.574 52.9062V53.4688C630.574 56.3438 629.74 58.5833 628.074 60.1875C626.428 61.7708 624.292 62.5625 621.667 62.5625C619.063 62.5625 616.949 61.8229 615.324 60.3438C613.428 58.6562 612.48 56.0938 612.48 52.6562C612.48 51.1979 612.542 49.9167 612.667 48.8125C612.813 47.6875 612.907 46.8854 612.949 46.4062C613.011 45.9271 613.074 45.4792 613.136 45.0625C613.199 44.6458 613.23 44.0312 613.23 43.2188C613.23 42.4062 613.115 41.8229 612.886 41.4688C612.678 41.1146 612.376 40.9375 611.98 40.9375C611.605 40.9375 611.272 41.0208 610.98 41.1875L611.386 46.2812C611.011 48.3854 610.824 50.6146 610.824 52.9688C610.824 55.3229 611.355 57.4688 612.417 59.4062C610.376 61.5104 607.511 62.5625 603.824 62.5625C601.72 62.5625 599.897 62.0104 598.355 60.9062C596.563 59.6562 595.667 58 595.667 55.9375V40.8125C594.438 39.0833 593.824 36.9583 593.824 34.4375C593.824 31.8958 594.438 29.6979 595.667 27.8438H601.23C602.709 27.8438 603.97 28.3958 605.011 29.5C604.095 30.3542 603.636 31.0625 603.636 31.625C603.636 32.2708 604.001 32.5938 604.73 32.5938C605.647 31.0104 607.042 29.6979 608.917 28.6562C610.813 27.6146 612.959 27.0938 615.355 27.0938C618.959 27.0938 621.886 27.9792 624.136 29.75C626.97 31.9792 628.386 35.4375 628.386 40.125L628.292 46.5312ZM655.521 62.9688C649.75 62.9688 645.198 61.3646 641.865 58.1562C638.448 54.9271 636.74 50.5104 636.74 44.9062C636.74 39.2812 638.5 34.8229 642.021 31.5312C645.271 28.4688 649.386 26.9375 654.365 26.9375C659.344 26.9375 663.334 28.3125 666.334 31.0625C669.355 33.7917 670.865 37.1562 670.865 41.1562C670.865 44.7188 669.625 47.4062 667.146 49.2188C664.855 50.9271 661.73 51.7812 657.771 51.7812C654.813 51.7812 652.313 51.1667 650.271 49.9375C650.105 50.0625 650.021 50.2917 650.021 50.625C650.021 51.25 650.844 51.8229 652.49 52.3438C654.136 52.9062 656 53.1875 658.084 53.1875C660.188 53.1875 662.094 52.9271 663.802 52.4062C665.532 51.8646 666.917 51.2292 667.959 50.5C668.459 50.9375 668.855 51.75 669.146 52.9375C669.459 54.1042 669.615 55.1771 669.615 56.1562C669.615 57.1146 669.521 57.9688 669.334 58.7188C667.709 60.0938 666.042 61.0729 664.334 61.6562C661.917 62.5312 658.98 62.9688 655.521 62.9688ZM655.115 41.8125C656.157 41.8125 656.677 41.4167 656.677 40.625C656.677 39.875 656.125 39.5 655.021 39.5C653.917 39.5 653.282 40.0938 653.115 41.2812C653.698 41.6354 654.365 41.8125 655.115 41.8125ZM732.604 35.625C732.604 38.9792 731.614 41.7708 729.635 44C727.406 46.5 724.145 48.1771 719.854 49.0312C719.854 49.8229 720.208 50.2188 720.916 50.2188C722.166 50.2188 723.698 49.8229 725.51 49.0312C727.323 48.2396 728.729 47.3021 729.729 46.2188C731.708 48.1979 732.698 50.8125 732.698 54.0625C732.698 57.2917 731.77 59.8333 729.916 61.6875H701.823C700.218 59.2917 699.416 56.6458 699.416 53.75C699.416 50.8333 699.979 48.3854 701.104 46.4062C705.208 45.6146 708.927 44.1667 712.26 42.0625C715.593 39.9583 717.26 37.7292 717.26 35.375C717.26 34.75 717.114 34.2396 716.823 33.8438C716.552 33.4479 716.166 33.25 715.666 33.25C714.645 33.25 714.135 33.7917 714.135 34.875C714.135 35.9375 714.5 36.7188 715.229 37.2188C714.208 38.7396 712.635 40.1354 710.51 41.4062C708.385 42.6771 706.302 43.5938 704.26 44.1562C700.552 41.6979 698.698 38.375 698.698 34.1875C698.698 30 700.354 26.6771 703.666 24.2188C706.75 21.9271 710.698 20.7812 715.51 20.7812C720.343 20.7812 724.343 22.0521 727.51 24.5938C730.906 27.3438 732.604 31.0208 732.604 35.625ZM764.051 49.0625C763.426 48.6042 762.572 47.8125 761.489 46.6875C760.197 45.3958 759.083 44.1146 758.145 42.8438C757.228 41.5729 756.312 40.0938 755.395 38.4062C754.478 36.7188 753.968 35.6667 753.864 35.25C753.218 35.25 752.895 35.625 752.895 36.375C752.895 36.9375 753.228 37.8854 753.895 39.2188C754.562 40.5312 755.572 42.125 756.926 44C758.301 45.8542 759.541 47.2708 760.645 48.25C761.791 49.2917 762.624 49.8125 763.145 49.8125C763.666 49.8125 763.968 49.5625 764.051 49.0625ZM770.833 57.2188C767.666 60.7396 763.322 62.5 757.801 62.5C752.28 62.5 747.947 60.7396 744.801 57.2188C741.489 53.5521 739.833 48.4375 739.833 41.875C739.833 35.3125 741.51 30.1354 744.864 26.3438C748.239 22.5521 752.551 20.6562 757.801 20.6562C763.051 20.6562 767.353 22.5521 770.708 26.3438C774.083 30.1354 775.77 35.3125 775.77 41.875C775.77 48.4167 774.124 53.5312 770.833 57.2188ZM816.499 35.625C816.499 38.9792 815.509 41.7708 813.53 44C811.301 46.5 808.04 48.1771 803.749 49.0312C803.749 49.8229 804.103 50.2188 804.811 50.2188C806.061 50.2188 807.593 49.8229 809.405 49.0312C811.218 48.2396 812.624 47.3021 813.624 46.2188C815.603 48.1979 816.593 50.8125 816.593 54.0625C816.593 57.2917 815.665 59.8333 813.811 61.6875H785.718C784.113 59.2917 783.311 56.6458 783.311 53.75C783.311 50.8333 783.874 48.3854 784.999 46.4062C789.103 45.6146 792.822 44.1667 796.155 42.0625C799.488 39.9583 801.155 37.7292 801.155 35.375C801.155 34.75 801.009 34.2396 800.718 33.8438C800.447 33.4479 800.061 33.25 799.561 33.25C798.54 33.25 798.03 33.7917 798.03 34.875C798.03 35.9375 798.395 36.7188 799.124 37.2188C798.103 38.7396 796.53 40.1354 794.405 41.4062C792.28 42.6771 790.197 43.5938 788.155 44.1562C784.447 41.6979 782.593 38.375 782.593 34.1875C782.593 30 784.249 26.6771 787.561 24.2188C790.645 21.9271 794.593 20.7812 799.405 20.7812C804.238 20.7812 808.238 22.0521 811.405 24.5938C814.801 27.3438 816.499 31.0208 816.499 35.625ZM827.134 42.2188C826.446 41.9688 825.905 41.5104 825.509 40.8438C825.113 40.1771 824.915 39.4479 824.915 38.6562C824.915 38.5312 824.957 38.0833 825.04 37.3125C825.353 32.9375 825.821 28.7188 826.446 24.6562C826.675 23.1562 827.03 22.2292 827.509 21.875C827.988 21.5 828.957 21.3125 830.415 21.3125H854.353C855.436 23.125 855.978 25.5 855.978 28.4375C855.978 31.375 855.353 33.7188 854.103 35.4688C852.811 34.6771 851.571 34.0833 850.384 33.6875C848.53 33.1042 846.54 32.8125 844.415 32.8125H840.915L840.728 34.2188H843.634C847.946 34.2188 851.446 35.3333 854.134 37.5625C857.071 40.0208 858.54 43.4792 858.54 47.9375C858.54 52.3958 856.894 55.9479 853.603 58.5938C850.311 61.2396 845.8 62.5625 840.071 62.5625C834.967 62.5625 830.967 61.4688 828.071 59.2812C825.175 57.0729 823.728 54.3021 823.728 50.9688C823.728 48.3229 824.603 46.25 826.353 44.75C828.123 43.25 830.196 42.5 832.571 42.5C834.946 42.5 836.946 43.1771 838.571 44.5312C840.405 46.0938 841.384 48.1771 841.509 50.7812C842.467 50.7812 842.946 50.3333 842.946 49.4375C842.946 47.2292 842.04 45.2917 840.228 43.625C838.415 41.9375 835.873 41.0938 832.603 41.0938C830.623 41.0938 828.8 41.4688 827.134 42.2188Z" fill="#000001"/>
<path d="M528.741 38.0312C528.825 38.0938 529.064 38.125 529.46 38.125C529.856 38.125 530.158 37.9688 530.366 37.6562C530.575 37.3438 530.679 36.8333 530.679 36.125V33.75C530.679 33 530.585 32.4688 530.397 32.1562C530.231 31.8229 529.939 31.6562 529.522 31.6562C529.127 31.6562 528.856 31.6979 528.71 31.7812C528.731 31.8854 528.741 32.0625 528.741 32.3125V38.0312ZM529.522 52.1562V56.9375C528.606 57.7083 527.314 58.3438 525.647 58.8438C523.981 59.3229 522.241 59.5625 520.429 59.5625C517.845 59.5625 515.731 59.0625 514.085 58.0625C512.21 56.9167 511.272 55.2604 511.272 53.0938V23.4062C511.272 22.7396 511.72 22.0729 512.616 21.4062C513.533 20.7396 514.793 20.1354 516.397 19.5938C519.835 18.4271 523.762 17.8438 528.179 17.8438C534.283 17.8438 539.147 19.3646 542.772 22.4062C546.397 25.4479 548.21 29.5417 548.21 34.6875C548.21 39.8125 546.575 43.8021 543.304 46.6562C540.158 49.3646 535.793 50.7188 530.21 50.7188C528.939 50.7188 527.575 50.5729 526.116 50.2812C524.679 49.9688 523.71 49.6979 523.21 49.4688C523.043 49.6354 522.96 49.8646 522.96 50.1562C522.96 51.2188 525.147 51.8854 529.522 52.1562ZM573.158 45.375C573.408 45.375 573.678 45.2708 573.97 45.0625C573.762 44.375 573.658 43.3021 573.658 41.8438V26.4062C575.866 25.0729 578.522 24.4062 581.626 24.4062C583.376 24.4062 584.908 24.6458 586.22 25.125C587.553 25.5833 588.574 26.1979 589.283 26.9688V43.25C589.283 46.3542 590.033 48.375 591.533 49.3125C591.553 49.4167 591.564 49.6146 591.564 49.9062V50.4688C591.564 53.5104 590.762 55.8125 589.158 57.375C587.699 58.8333 585.689 59.5625 583.126 59.5625C581.522 59.5625 580.064 59.1979 578.751 58.4688C577.46 57.7396 576.491 56.6771 575.845 55.2812C575.137 55.2812 574.783 55.625 574.783 56.3125C574.783 56.7917 575.022 57.2708 575.501 57.75C574.835 58.2917 574.033 58.7292 573.095 59.0625C572.158 59.3958 570.772 59.5625 568.939 59.5625C567.126 59.5625 565.355 59.1875 563.626 58.4375C561.48 57.5208 559.835 56.1146 558.689 54.2188C557.293 51.9688 556.595 49.1146 556.595 45.6562V37.8125C555.533 35.9583 555.001 33.9167 555.001 31.6875C555.001 30.5417 555.147 29.3542 555.439 28.125C555.73 26.8958 556.199 25.8021 556.845 24.8438H563.72C566.303 24.8438 568.324 25.4583 569.783 26.6875C571.262 27.8958 572.001 29.7396 572.001 32.2188V42.3438C572.001 44.3646 572.387 45.375 573.158 45.375ZM631.792 43.5312C631.792 45.0312 631.959 46.2396 632.292 47.1562C632.626 48.0729 633.209 48.7917 634.042 49.3125C634.063 49.4167 634.074 49.6146 634.074 49.9062V50.4688C634.074 53.3438 633.24 55.5833 631.574 57.1875C629.928 58.7708 627.792 59.5625 625.167 59.5625C622.563 59.5625 620.449 58.8229 618.824 57.3438C616.928 55.6562 615.98 53.0938 615.98 49.6562C615.98 48.1979 616.042 46.9167 616.167 45.8125C616.313 44.6875 616.407 43.8854 616.449 43.4062C616.511 42.9271 616.574 42.4792 616.636 42.0625C616.699 41.6458 616.73 41.0312 616.73 40.2188C616.73 39.4062 616.615 38.8229 616.386 38.4688C616.178 38.1146 615.876 37.9375 615.48 37.9375C615.105 37.9375 614.772 38.0208 614.48 38.1875L614.886 43.2812C614.511 45.3854 614.324 47.6146 614.324 49.9688C614.324 52.3229 614.855 54.4688 615.917 56.4062C613.876 58.5104 611.011 59.5625 607.324 59.5625C605.22 59.5625 603.397 59.0104 601.855 57.9062C600.063 56.6562 599.167 55 599.167 52.9375V37.8125C597.938 36.0833 597.324 33.9583 597.324 31.4375C597.324 28.8958 597.938 26.6979 599.167 24.8438H604.73C606.209 24.8438 607.47 25.3958 608.511 26.5C607.595 27.3542 607.136 28.0625 607.136 28.625C607.136 29.2708 607.501 29.5938 608.23 29.5938C609.147 28.0104 610.542 26.6979 612.417 25.6562C614.313 24.6146 616.459 24.0938 618.855 24.0938C622.459 24.0938 625.386 24.9792 627.636 26.75C630.47 28.9792 631.886 32.4375 631.886 37.125L631.792 43.5312ZM659.021 59.9688C653.25 59.9688 648.698 58.3646 645.365 55.1562C641.948 51.9271 640.24 47.5104 640.24 41.9062C640.24 36.2812 642 31.8229 645.521 28.5312C648.771 25.4688 652.886 23.9375 657.865 23.9375C662.844 23.9375 666.834 25.3125 669.834 28.0625C672.855 30.7917 674.365 34.1562 674.365 38.1562C674.365 41.7188 673.125 44.4062 670.646 46.2188C668.355 47.9271 665.23 48.7812 661.271 48.7812C658.313 48.7812 655.813 48.1667 653.771 46.9375C653.605 47.0625 653.521 47.2917 653.521 47.625C653.521 48.25 654.344 48.8229 655.99 49.3438C657.636 49.9062 659.5 50.1875 661.584 50.1875C663.688 50.1875 665.594 49.9271 667.302 49.4062C669.032 48.8646 670.417 48.2292 671.459 47.5C671.959 47.9375 672.355 48.75 672.646 49.9375C672.959 51.1042 673.115 52.1771 673.115 53.1562C673.115 54.1146 673.021 54.9688 672.834 55.7188C671.209 57.0938 669.542 58.0729 667.834 58.6562C665.417 59.5312 662.48 59.9688 659.021 59.9688ZM658.615 38.8125C659.657 38.8125 660.177 38.4167 660.177 37.625C660.177 36.875 659.625 36.5 658.521 36.5C657.417 36.5 656.782 37.0938 656.615 38.2812C657.198 38.6354 657.865 38.8125 658.615 38.8125ZM736.104 32.625C736.104 35.9792 735.114 38.7708 733.135 41C730.906 43.5 727.645 45.1771 723.354 46.0312C723.354 46.8229 723.708 47.2188 724.416 47.2188C725.666 47.2188 727.198 46.8229 729.01 46.0312C730.823 45.2396 732.229 44.3021 733.229 43.2188C735.208 45.1979 736.198 47.8125 736.198 51.0625C736.198 54.2917 735.27 56.8333 733.416 58.6875H705.323C703.718 56.2917 702.916 53.6458 702.916 50.75C702.916 47.8333 703.479 45.3854 704.604 43.4062C708.708 42.6146 712.427 41.1667 715.76 39.0625C719.093 36.9583 720.76 34.7292 720.76 32.375C720.76 31.75 720.614 31.2396 720.323 30.8438C720.052 30.4479 719.666 30.25 719.166 30.25C718.145 30.25 717.635 30.7917 717.635 31.875C717.635 32.9375 718 33.7188 718.729 34.2188C717.708 35.7396 716.135 37.1354 714.01 38.4062C711.885 39.6771 709.802 40.5938 707.76 41.1562C704.052 38.6979 702.198 35.375 702.198 31.1875C702.198 27 703.854 23.6771 707.166 21.2188C710.25 18.9271 714.198 17.7812 719.01 17.7812C723.843 17.7812 727.843 19.0521 731.01 21.5938C734.406 24.3438 736.104 28.0208 736.104 32.625ZM767.551 46.0625C766.926 45.6042 766.072 44.8125 764.989 43.6875C763.697 42.3958 762.583 41.1146 761.645 39.8438C760.728 38.5729 759.812 37.0938 758.895 35.4062C757.978 33.7188 757.468 32.6667 757.364 32.25C756.718 32.25 756.395 32.625 756.395 33.375C756.395 33.9375 756.728 34.8854 757.395 36.2188C758.062 37.5312 759.072 39.125 760.426 41C761.801 42.8542 763.041 44.2708 764.145 45.25C765.291 46.2917 766.124 46.8125 766.645 46.8125C767.166 46.8125 767.468 46.5625 767.551 46.0625ZM774.333 54.2188C771.166 57.7396 766.822 59.5 761.301 59.5C755.78 59.5 751.447 57.7396 748.301 54.2188C744.989 50.5521 743.333 45.4375 743.333 38.875C743.333 32.3125 745.01 27.1354 748.364 23.3438C751.739 19.5521 756.051 17.6562 761.301 17.6562C766.551 17.6562 770.853 19.5521 774.208 23.3438C777.583 27.1354 779.27 32.3125 779.27 38.875C779.27 45.4167 777.624 50.5312 774.333 54.2188ZM819.999 32.625C819.999 35.9792 819.009 38.7708 817.03 41C814.801 43.5 811.54 45.1771 807.249 46.0312C807.249 46.8229 807.603 47.2188 808.311 47.2188C809.561 47.2188 811.093 46.8229 812.905 46.0312C814.718 45.2396 816.124 44.3021 817.124 43.2188C819.103 45.1979 820.093 47.8125 820.093 51.0625C820.093 54.2917 819.165 56.8333 817.311 58.6875H789.218C787.613 56.2917 786.811 53.6458 786.811 50.75C786.811 47.8333 787.374 45.3854 788.499 43.4062C792.603 42.6146 796.322 41.1667 799.655 39.0625C802.988 36.9583 804.655 34.7292 804.655 32.375C804.655 31.75 804.509 31.2396 804.218 30.8438C803.947 30.4479 803.561 30.25 803.061 30.25C802.04 30.25 801.53 30.7917 801.53 31.875C801.53 32.9375 801.895 33.7188 802.624 34.2188C801.603 35.7396 800.03 37.1354 797.905 38.4062C795.78 39.6771 793.697 40.5938 791.655 41.1562C787.947 38.6979 786.093 35.375 786.093 31.1875C786.093 27 787.749 23.6771 791.061 21.2188C794.145 18.9271 798.093 17.7812 802.905 17.7812C807.738 17.7812 811.738 19.0521 814.905 21.5938C818.301 24.3438 819.999 28.0208 819.999 32.625ZM830.634 39.2188C829.946 38.9688 829.405 38.5104 829.009 37.8438C828.613 37.1771 828.415 36.4479 828.415 35.6562C828.415 35.5312 828.457 35.0833 828.54 34.3125C828.853 29.9375 829.321 25.7188 829.946 21.6562C830.175 20.1562 830.53 19.2292 831.009 18.875C831.488 18.5 832.457 18.3125 833.915 18.3125H857.853C858.936 20.125 859.478 22.5 859.478 25.4375C859.478 28.375 858.853 30.7188 857.603 32.4688C856.311 31.6771 855.071 31.0833 853.884 30.6875C852.03 30.1042 850.04 29.8125 847.915 29.8125H844.415L844.228 31.2188H847.134C851.446 31.2188 854.946 32.3333 857.634 34.5625C860.571 37.0208 862.04 40.4792 862.04 44.9375C862.04 49.3958 860.394 52.9479 857.103 55.5938C853.811 58.2396 849.3 59.5625 843.571 59.5625C838.467 59.5625 834.467 58.4688 831.571 56.2812C828.675 54.0729 827.228 51.3021 827.228 47.9688C827.228 45.3229 828.103 43.25 829.853 41.75C831.623 40.25 833.696 39.5 836.071 39.5C838.446 39.5 840.446 40.1771 842.071 41.5312C843.905 43.0938 844.884 45.1771 845.009 47.7812C845.967 47.7812 846.446 47.3333 846.446 46.4375C846.446 44.2292 845.54 42.2917 843.728 40.625C841.915 38.9375 839.373 38.0938 836.103 38.0938C834.123 38.0938 832.3 38.4688 830.634 39.2188Z" fill="white"/>
<path d="M531.241 34.0312C531.325 34.0938 531.564 34.125 531.96 34.125C532.356 34.125 532.658 33.9688 532.866 33.6562C533.075 33.3438 533.179 32.8333 533.179 32.125V29.75C533.179 29 533.085 28.4688 532.897 28.1562C532.731 27.8229 532.439 27.6562 532.022 27.6562C531.627 27.6562 531.356 27.6979 531.21 27.7812C531.231 27.8854 531.241 28.0625 531.241 28.3125V34.0312ZM532.022 48.1562V52.9375C531.106 53.7083 529.814 54.3438 528.147 54.8438C526.481 55.3229 524.741 55.5625 522.929 55.5625C520.345 55.5625 518.231 55.0625 516.585 54.0625C514.71 52.9167 513.772 51.2604 513.772 49.0938V19.4062C513.772 18.7396 514.22 18.0729 515.116 17.4062C516.033 16.7396 517.293 16.1354 518.897 15.5938C522.335 14.4271 526.262 13.8438 530.679 13.8438C536.783 13.8438 541.647 15.3646 545.272 18.4062C548.897 21.4479 550.71 25.5417 550.71 30.6875C550.71 35.8125 549.075 39.8021 545.804 42.6562C542.658 45.3646 538.293 46.7188 532.71 46.7188C531.439 46.7188 530.075 46.5729 528.616 46.2812C527.179 45.9688 526.21 45.6979 525.71 45.4688C525.543 45.6354 525.46 45.8646 525.46 46.1562C525.46 47.2188 527.647 47.8854 532.022 48.1562ZM575.658 41.375C575.908 41.375 576.178 41.2708 576.47 41.0625C576.262 40.375 576.158 39.3021 576.158 37.8438V22.4062C578.366 21.0729 581.022 20.4062 584.126 20.4062C585.876 20.4062 587.408 20.6458 588.72 21.125C590.053 21.5833 591.074 22.1979 591.783 22.9688V39.25C591.783 42.3542 592.533 44.375 594.033 45.3125C594.053 45.4167 594.064 45.6146 594.064 45.9062V46.4688C594.064 49.5104 593.262 51.8125 591.658 53.375C590.199 54.8333 588.189 55.5625 585.626 55.5625C584.022 55.5625 582.564 55.1979 581.251 54.4688C579.96 53.7396 578.991 52.6771 578.345 51.2812C577.637 51.2812 577.283 51.625 577.283 52.3125C577.283 52.7917 577.522 53.2708 578.001 53.75C577.335 54.2917 576.533 54.7292 575.595 55.0625C574.658 55.3958 573.272 55.5625 571.439 55.5625C569.626 55.5625 567.855 55.1875 566.126 54.4375C563.98 53.5208 562.335 52.1146 561.189 50.2188C559.793 47.9688 559.095 45.1146 559.095 41.6562V33.8125C558.033 31.9583 557.501 29.9167 557.501 27.6875C557.501 26.5417 557.647 25.3542 557.939 24.125C558.23 22.8958 558.699 21.8021 559.345 20.8438H566.22C568.803 20.8438 570.824 21.4583 572.283 22.6875C573.762 23.8958 574.501 25.7396 574.501 28.2188V38.3438C574.501 40.3646 574.887 41.375 575.658 41.375ZM634.292 39.5312C634.292 41.0312 634.459 42.2396 634.792 43.1562C635.126 44.0729 635.709 44.7917 636.542 45.3125C636.563 45.4167 636.574 45.6146 636.574 45.9062V46.4688C636.574 49.3438 635.74 51.5833 634.074 53.1875C632.428 54.7708 630.292 55.5625 627.667 55.5625C625.063 55.5625 622.949 54.8229 621.324 53.3438C619.428 51.6562 618.48 49.0938 618.48 45.6562C618.48 44.1979 618.542 42.9167 618.667 41.8125C618.813 40.6875 618.907 39.8854 618.949 39.4062C619.011 38.9271 619.074 38.4792 619.136 38.0625C619.199 37.6458 619.23 37.0312 619.23 36.2188C619.23 35.4062 619.115 34.8229 618.886 34.4688C618.678 34.1146 618.376 33.9375 617.98 33.9375C617.605 33.9375 617.272 34.0208 616.98 34.1875L617.386 39.2812C617.011 41.3854 616.824 43.6146 616.824 45.9688C616.824 48.3229 617.355 50.4688 618.417 52.4062C616.376 54.5104 613.511 55.5625 609.824 55.5625C607.72 55.5625 605.897 55.0104 604.355 53.9062C602.563 52.6562 601.667 51 601.667 48.9375V33.8125C600.438 32.0833 599.824 29.9583 599.824 27.4375C599.824 24.8958 600.438 22.6979 601.667 20.8438H607.23C608.709 20.8438 609.97 21.3958 611.011 22.5C610.095 23.3542 609.636 24.0625 609.636 24.625C609.636 25.2708 610.001 25.5938 610.73 25.5938C611.647 24.0104 613.042 22.6979 614.917 21.6562C616.813 20.6146 618.959 20.0938 621.355 20.0938C624.959 20.0938 627.886 20.9792 630.136 22.75C632.97 24.9792 634.386 28.4375 634.386 33.125L634.292 39.5312ZM661.521 55.9688C655.75 55.9688 651.198 54.3646 647.865 51.1562C644.448 47.9271 642.74 43.5104 642.74 37.9062C642.74 32.2812 644.5 27.8229 648.021 24.5312C651.271 21.4688 655.386 19.9375 660.365 19.9375C665.344 19.9375 669.334 21.3125 672.334 24.0625C675.355 26.7917 676.865 30.1562 676.865 34.1562C676.865 37.7188 675.625 40.4062 673.146 42.2188C670.855 43.9271 667.73 44.7812 663.771 44.7812C660.813 44.7812 658.313 44.1667 656.271 42.9375C656.105 43.0625 656.021 43.2917 656.021 43.625C656.021 44.25 656.844 44.8229 658.49 45.3438C660.136 45.9062 662 46.1875 664.084 46.1875C666.188 46.1875 668.094 45.9271 669.802 45.4062C671.532 44.8646 672.917 44.2292 673.959 43.5C674.459 43.9375 674.855 44.75 675.146 45.9375C675.459 47.1042 675.615 48.1771 675.615 49.1562C675.615 50.1146 675.521 50.9688 675.334 51.7188C673.709 53.0938 672.042 54.0729 670.334 54.6562C667.917 55.5312 664.98 55.9688 661.521 55.9688ZM661.115 34.8125C662.157 34.8125 662.677 34.4167 662.677 33.625C662.677 32.875 662.125 32.5 661.021 32.5C659.917 32.5 659.282 33.0938 659.115 34.2812C659.698 34.6354 660.365 34.8125 661.115 34.8125ZM738.604 28.625C738.604 31.9792 737.614 34.7708 735.635 37C733.406 39.5 730.145 41.1771 725.854 42.0312C725.854 42.8229 726.208 43.2188 726.916 43.2188C728.166 43.2188 729.698 42.8229 731.51 42.0312C733.323 41.2396 734.729 40.3021 735.729 39.2188C737.708 41.1979 738.698 43.8125 738.698 47.0625C738.698 50.2917 737.77 52.8333 735.916 54.6875H707.823C706.218 52.2917 705.416 49.6458 705.416 46.75C705.416 43.8333 705.979 41.3854 707.104 39.4062C711.208 38.6146 714.927 37.1667 718.26 35.0625C721.593 32.9583 723.26 30.7292 723.26 28.375C723.26 27.75 723.114 27.2396 722.823 26.8438C722.552 26.4479 722.166 26.25 721.666 26.25C720.645 26.25 720.135 26.7917 720.135 27.875C720.135 28.9375 720.5 29.7188 721.229 30.2188C720.208 31.7396 718.635 33.1354 716.51 34.4062C714.385 35.6771 712.302 36.5938 710.26 37.1562C706.552 34.6979 704.698 31.375 704.698 27.1875C704.698 23 706.354 19.6771 709.666 17.2188C712.75 14.9271 716.698 13.7812 721.51 13.7812C726.343 13.7812 730.343 15.0521 733.51 17.5938C736.906 20.3438 738.604 24.0208 738.604 28.625ZM770.051 42.0625C769.426 41.6042 768.572 40.8125 767.489 39.6875C766.197 38.3958 765.083 37.1146 764.145 35.8438C763.228 34.5729 762.312 33.0938 761.395 31.4062C760.478 29.7188 759.968 28.6667 759.864 28.25C759.218 28.25 758.895 28.625 758.895 29.375C758.895 29.9375 759.228 30.8854 759.895 32.2188C760.562 33.5312 761.572 35.125 762.926 37C764.301 38.8542 765.541 40.2708 766.645 41.25C767.791 42.2917 768.624 42.8125 769.145 42.8125C769.666 42.8125 769.968 42.5625 770.051 42.0625ZM776.833 50.2188C773.666 53.7396 769.322 55.5 763.801 55.5C758.28 55.5 753.947 53.7396 750.801 50.2188C747.489 46.5521 745.833 41.4375 745.833 34.875C745.833 28.3125 747.51 23.1354 750.864 19.3438C754.239 15.5521 758.551 13.6562 763.801 13.6562C769.051 13.6562 773.353 15.5521 776.708 19.3438C780.083 23.1354 781.77 28.3125 781.77 34.875C781.77 41.4167 780.124 46.5312 776.833 50.2188ZM822.499 28.625C822.499 31.9792 821.509 34.7708 819.53 37C817.301 39.5 814.04 41.1771 809.749 42.0312C809.749 42.8229 810.103 43.2188 810.811 43.2188C812.061 43.2188 813.593 42.8229 815.405 42.0312C817.218 41.2396 818.624 40.3021 819.624 39.2188C821.603 41.1979 822.593 43.8125 822.593 47.0625C822.593 50.2917 821.665 52.8333 819.811 54.6875H791.718C790.113 52.2917 789.311 49.6458 789.311 46.75C789.311 43.8333 789.874 41.3854 790.999 39.4062C795.103 38.6146 798.822 37.1667 802.155 35.0625C805.488 32.9583 807.155 30.7292 807.155 28.375C807.155 27.75 807.009 27.2396 806.718 26.8438C806.447 26.4479 806.061 26.25 805.561 26.25C804.54 26.25 804.03 26.7917 804.03 27.875C804.03 28.9375 804.395 29.7188 805.124 30.2188C804.103 31.7396 802.53 33.1354 800.405 34.4062C798.28 35.6771 796.197 36.5938 794.155 37.1562C790.447 34.6979 788.593 31.375 788.593 27.1875C788.593 23 790.249 19.6771 793.561 17.2188C796.645 14.9271 800.593 13.7812 805.405 13.7812C810.238 13.7812 814.238 15.0521 817.405 17.5938C820.801 20.3438 822.499 24.0208 822.499 28.625ZM833.134 35.2188C832.446 34.9688 831.905 34.5104 831.509 33.8438C831.113 33.1771 830.915 32.4479 830.915 31.6562C830.915 31.5312 830.957 31.0833 831.04 30.3125C831.353 25.9375 831.821 21.7188 832.446 17.6562C832.675 16.1562 833.03 15.2292 833.509 14.875C833.988 14.5 834.957 14.3125 836.415 14.3125H860.353C861.436 16.125 861.978 18.5 861.978 21.4375C861.978 24.375 861.353 26.7188 860.103 28.4688C858.811 27.6771 857.571 27.0833 856.384 26.6875C854.53 26.1042 852.54 25.8125 850.415 25.8125H846.915L846.728 27.2188H849.634C853.946 27.2188 857.446 28.3333 860.134 30.5625C863.071 33.0208 864.54 36.4792 864.54 40.9375C864.54 45.3958 862.894 48.9479 859.603 51.5938C856.311 54.2396 851.8 55.5625 846.071 55.5625C840.967 55.5625 836.967 54.4688 834.071 52.2812C831.175 50.0729 829.728 47.3021 829.728 43.9688C829.728 41.3229 830.603 39.25 832.353 37.75C834.123 36.25 836.196 35.5 838.571 35.5C840.946 35.5 842.946 36.1771 844.571 37.5312C846.405 39.0938 847.384 41.1771 847.509 43.7812C848.467 43.7812 848.946 43.3333 848.946 42.4375C848.946 40.2292 848.04 38.2917 846.228 36.625C844.415 34.9375 841.873 34.0938 838.603 34.0938C836.623 34.0938 834.8 34.4688 833.134 35.2188Z" fill="#F3A125"/>
</g>
<defs>
<linearGradient id="paint0_linear_47_8964" x1="522.676" y1="171.99" x2="534.348" y2="171.99" gradientUnits="userSpaceOnUse">
<stop stop-color="#FF7002"/>
<stop offset="0.3" stop-color="#FE7304"/>
<stop offset="0.5" stop-color="#FC7C0A"/>
<stop offset="0.68" stop-color="#F88B15"/>
<stop offset="0.84" stop-color="#F3A125"/>
<stop offset="0.98" stop-color="#ECBD39"/>
<stop offset="1" stop-color="#EBC03B"/>
</linearGradient>
<linearGradient id="paint1_linear_47_8964" x1="1019.77" y1="127.89" x2="1025.69" y2="127.89" gradientUnits="userSpaceOnUse">
<stop stop-color="#FF7002"/>
<stop offset="0.3" stop-color="#FE7304"/>
<stop offset="0.5" stop-color="#FC7C0A"/>
<stop offset="0.68" stop-color="#F88B15"/>
<stop offset="0.84" stop-color="#F3A125"/>
<stop offset="0.98" stop-color="#ECBD39"/>
<stop offset="1" stop-color="#EBC03B"/>
</linearGradient>
<linearGradient id="paint2_linear_47_8964" x1="1035.06" y1="101.675" x2="1043.83" y2="101.675" gradientUnits="userSpaceOnUse">
<stop stop-color="#FF7002"/>
<stop offset="0.3" stop-color="#FE7304"/>
<stop offset="0.5" stop-color="#FC7C0A"/>
<stop offset="0.68" stop-color="#F88B15"/>
<stop offset="0.84" stop-color="#F3A125"/>
<stop offset="0.98" stop-color="#ECBD39"/>
<stop offset="1" stop-color="#EBC03B"/>
</linearGradient>
<linearGradient id="paint3_linear_47_8964" x1="1199.06" y1="241.815" x2="1215.89" y2="241.815" gradientUnits="userSpaceOnUse">
<stop stop-color="#FF7002"/>
<stop offset="0.3" stop-color="#FE7304"/>
<stop offset="0.5" stop-color="#FC7C0A"/>
<stop offset="0.68" stop-color="#F88B15"/>
<stop offset="0.84" stop-color="#F3A125"/>
<stop offset="0.98" stop-color="#ECBD39"/>
<stop offset="1" stop-color="#EBC03B"/>
</linearGradient>
<linearGradient id="paint4_linear_47_8964" x1="1172" y1="97.3871" x2="1194.96" y2="97.3871" gradientUnits="userSpaceOnUse">
<stop stop-color="#FF7002"/>
<stop offset="0.3" stop-color="#FE7304"/>
<stop offset="0.5" stop-color="#FC7C0A"/>
<stop offset="0.68" stop-color="#F88B15"/>
<stop offset="0.84" stop-color="#F3A125"/>
<stop offset="0.98" stop-color="#ECBD39"/>
<stop offset="1" stop-color="#EBC03B"/>
</linearGradient>
<clipPath id="clip0_47_8964">
<rect width="1440" height="392" fill="white"/>
</clipPath>
</defs>
</svg>
